<svg xmlns="http://www.w3.org/2000/svg" x="0px" y="0px" viewBox="0 0 22 18" fill="#f65d55" width="25px">
<g>
	<path d="M13.4,16.3c-0.7,0-1.2-0.6-1.2-1.2c0-0.3,0.1-0.6,0.3-0.8l5.4-6.5c0.6-0.8,0.9-1.4,0.9-2.4C18.8,4.1,18,3,16.6,3
		C15.6,3,15,3.2,14,3.6c-0.2,0.1-0.3,0.2-0.6,0.2c-0.6,0-1.1-0.4-1.1-1c0-0.4,0.2-0.8,0.6-1C14.3,1.2,15.4,1,16.6,1
		c1.3,0,2.4,0.4,3.2,1.2C20.6,3.1,21,4.2,21,5.5c0,1.7-0.8,2.7-1.5,3.6c-0.4,0.5-2.7,3.3-4.2,5.1h4.8c0.6,0,1.1,0.5,1.1,1
		c0,0.6-0.5,1.1-1.1,1.1H13.4z"/>
	<path d="M9.7,4.9L9.7,4.9c-0.3-0.5-0.1-1.1,0.4-1.4L13,1.9c0.5-0.3,1.4-0.3,1.7,0.2l0,0c0.3,0.5,0.1,1.1-0.4,1.4l-3.2,1.8
		C10.7,5.6,10,5.4,9.7,4.9z"/>
	<path d="M12.1,4.8c0,0-1.3,0.7-1.3,2.1h-0.6L9.9,5L12.1,4.8z"/>
	<circle cx="7.1" cy="2.2" r="1"/>
	<path d="M10.1,3.5c-0.4,0.2-1.6,1-1.6,3v5.3c0,1.7-1,2.7-2.7,2.7s-2.7-1-2.7-2.7v-6C3.1,4,4.1,3,5.8,3c0.4,0,0.7,0.1,1,0.1l0.6-2
		C6.9,1.1,6.4,1,5.8,1C4.3,1,3.1,1.5,2.2,2.4C1.3,3.3,0.9,4.5,0.9,5.9v5.6c0,1.4,0.5,2.7,1.4,3.6c0.9,0.9,2.1,1.4,3.6,1.4
		s2.7-0.5,3.6-1.4c0.9-0.9,1.4-2.1,1.4-3.6V5.9C10.7,5,10.5,4.2,10.1,3.5z"/>
</g>
</svg>
