<svg xmlns="http://www.w3.org/2000/svg" x="0px" y="0px" viewBox="0 0 42 18" fill="#F65D55" width="42px">
<g>
	<path class="st0" d="M1.9,17.5c-0.8,0-1.4-0.6-1.4-1.4c0-0.3,0.1-0.6,0.3-0.9l6-7.3c0.7-0.8,1-1.6,1-2.6c0-1.4-0.9-2.6-2.5-2.6
		c-1,0-1.8,0.1-2.8,0.7C2.4,3.5,2.2,3.6,1.9,3.6c-0.6,0-1.2-0.5-1.2-1.1c0-0.4,0.2-0.9,0.7-1.1c1.5-0.8,2.6-0.9,4-0.9
		C6.8,0.5,8.1,1,9,1.9c0.9,0.9,1.4,2.2,1.4,3.6c0,1.9-0.9,3-1.7,4C8.2,10,5.6,13.2,4,15.2h5.3c0.7,0,1.2,0.5,1.2,1.1
		c0,0.7-0.5,1.2-1.2,1.2H1.9z"/>
	<path class="st0" d="M27.1,3.6L22.6,6c-0.2,0.1-0.5,0.2-0.7,0.2c-0.7,0-1.2-0.5-1.2-1.2c0-0.4,0.2-0.8,0.6-1l6.1-3.4
		c0.2-0.1,0.4-0.2,0.7-0.2c0.8,0,1.4,0.6,1.4,1.4v14.4c0,0.7-0.5,1.2-1.2,1.2c-0.7,0-1.2-0.5-1.2-1.2V3.6z"/>
	<path class="st0" d="M38.6,2.8h-5.7c-0.7,0-1.2-0.5-1.2-1.1c0-0.7,0.5-1.2,1.2-1.2h7.2c0.8,0,1.4,0.7,1.4,1.4c0,0.2,0,0.3-0.1,0.5
		l-6,14.4c-0.2,0.5-0.7,0.8-1.1,0.8c-0.7,0-1.2-0.6-1.2-1.2c0-0.2,0-0.3,0.1-0.5L38.6,2.8z"/>
	<path class="st0" d="M18,17.5H2.9c-0.4,0-0.7-0.3-0.7-0.7v-1c0-0.4,0.3-0.7,0.7-0.7H18c0.4,0,0.7,0.3,0.7,0.7v1
		C18.7,17.2,18.4,17.5,18,17.5z"/>
	<path class="st0" d="M21.6,2c-1-1-2.3-1.5-3.9-1.5S14.8,1,13.8,2c-1,1-1.5,2.3-1.5,3.9v5.7c0,0.5,2.4,0.2,2.4-0.1V5.7
		c0-1.9,1.1-3,3-3s3,1.1,3,3v6.5c0,1.9-1.1,2.9-2.9,3l0,0h-4.7c0.2,0.3,0.4,0.6,0.7,0.9c1,1,2.3,1.5,3.9,1.5s3-0.5,3.9-1.5
		c1-1,1.5-2.3,1.5-3.9V5.9C23.1,4.3,22.6,3,21.6,2z"/>
	<circle class="st0" cx="13.5" cy="11.6" r="1.2"/>
	<path class="st0" d="M35.1,15.1h-6.8c-0.7,0-1.2,0.5-1.2,1.2c0,0.7,0.5,1.2,1.2,1.2h6L35.1,15.1z"/>
</g>
</svg>
