<svg xmlns="http://www.w3.org/2000/svg" x="0px" y="0px" viewBox="0 0 92 12" fill="#9cb2bc" width="92px">
	<g>
		<g>
			<g>
				<path d="M53.5,8.5H50l-0.8,2.6h-1.9l3.5-10h1.9l3.5,10h-1.9L53.5,8.5z M51.7,2.8c0,0-0.2,1-0.4,1.6L50.4,7H53l-0.9-2.7
				C51.9,3.8,51.7,2.8,51.7,2.8L51.7,2.8z"/>
			</g>
			<g>
				<path d="M58.9,1.1h3.2c1.1,0,1.6,0.1,2,0.3c1,0.5,1.6,1.4,1.6,2.7c0,1.2-0.6,2.3-1.7,2.7v0c0,0,0.1,0.1,0.3,0.5l2.1,3.7h-2
				l-2-3.7h-1.8v3.7h-1.8L58.9,1.1L58.9,1.1L58.9,1.1L58.9,1.1z M62.4,5.8c1,0,1.6-0.6,1.6-1.6c0-1-0.4-1.6-1.8-1.6h-1.4v3.1
				L62.4,5.8L62.4,5.8z"/>
			</g>
			<g>
				<path d="M69.6,1.1H73c3.1,0,5.1,1.8,5.1,5c0,3.2-2,5-5.1,5h-3.4V1.1z M72.9,9.5c2,0,3.3-1.2,3.3-3.5c0-2.2-1.3-3.4-3.3-3.4h-1.5
				v6.9H72.9L72.9,9.5z"/>
			</g>
			<g>
				<path d="M81.4,8.5c0,0,1.1,1.1,2.5,1.1c0.8,0,1.5-0.4,1.5-1.2c0-1.8-4.7-1.5-4.7-4.6c0-1.7,1.4-2.9,3.4-2.9c2,0,3,1.1,3,1.1
				l-0.8,1.5c0,0-1-0.9-2.2-0.9c-0.8,0-1.5,0.5-1.5,1.2c0,1.8,4.7,1.3,4.7,4.6c0,1.6-1.2,2.9-3.3,2.9c-2.2,0-3.5-1.4-3.5-1.4
				L81.4,8.5z"/>
			</g>
			<g>
				<path d="M32.9,1.1L31.2,8c-0.1,0.6-0.2,1.1-0.2,1.1h0c0,0,0-0.5-0.2-1.1l-1.8-6.9h-1.6L25.7,8c-0.2,0.6-0.2,1.1-0.2,1.1h0
				c0,0,0-0.5-0.2-1.1l-1.2-5.2l-0.9,3.8l1.1,4.5h2.1L28,5.2c0.2-0.7,0.3-1.3,0.3-1.3h0c0,0,0.1,0.7,0.3,1.3l1.5,5.9h2.1l2.6-10
				L32.9,1.1L32.9,1.1z"/>
			</g>
			<g>
				<path d="M44.2,1.1L42.6,8c-0.1,0.6-0.2,1.1-0.2,1.1h0c0,0,0-0.5-0.2-1.1l-1.8-6.9h-1.6L37,8c-0.2,0.6-0.2,1.1-0.2,1.1h0
				c0,0,0-0.5-0.2-1.1l-1.2-5.2l-0.9,3.8l1.1,4.5h2.1l1.5-5.9c0.2-0.7,0.3-1.3,0.3-1.3h0c0,0,0.1,0.7,0.3,1.3l1.5,5.9h2.1l2.6-10
				L44.2,1.1L44.2,1.1z"/>
			</g>
			<g>
				<path d="M6.8,8.5H3.3l-0.8,2.6H0.6l3.5-10H6l3.5,10H7.7L6.8,8.5z M5.1,2.8c0,0-0.2,1-0.4,1.6L3.8,7h2.6L5.5,4.3
				C5.3,3.8,5.1,2.8,5.1,2.8L5.1,2.8L5.1,2.8z"/>
			</g>
			<g>
				<path d="M19.5,8c0.2,0.6,0.2,1.1,0.2,1.1h0c0,0,0-0.5,0.2-1.1l1.7-6.9h1.9l-2.6,10h-2.1l-1.5-5.9c-0.2-0.7-0.3-1.3-0.3-1.3h0
				c0,0-0.1,0.7-0.3,1.3l-1.5,5.9H13l-2.5-10h1.9L14,8c0.1,0.6,0.2,1.1,0.2,1.1h0c0,0,0-0.5,0.2-1.1l1.8-6.9h1.6L19.5,8z"/>
			</g>
		</g>
		<g>
			<path class="st0" d="M90,0.9c1,0,1.7,0.8,1.7,1.8c0,1-0.8,1.8-1.7,1.8c-0.9,0-1.7-0.8-1.7-1.8C88.3,1.7,89,0.9,90,0.9z M90,4.2
			c0.9,0,1.5-0.7,1.5-1.6c0-0.9-0.7-1.6-1.5-1.6c-0.8,0-1.5,0.7-1.5,1.6C88.5,3.5,89.2,4.2,90,4.2z M89.4,1.7h0.6
			c0.3,0,0.6,0.2,0.6,0.6c0,0.3-0.2,0.5-0.4,0.5v0c0,0,0,0,0.1,0.1l0.4,0.7h-0.2l-0.4-0.8h-0.4v0.8h-0.2L89.4,1.7L89.4,1.7z M90,2.6
			c0.2,0,0.4-0.1,0.4-0.4c0-0.2-0.1-0.4-0.4-0.4h-0.4v0.8L90,2.6L90,2.6z"/>
		</g>
	</g>
</svg>
