<svg version="1.1" id="Layer_1" xmlns="http://www.w3.org/2000/svg" xmlns:xlink="http://www.w3.org/1999/xlink" x="0px" y="0px"
	 viewBox="0 0 160 110" style="enable-background:new 0 0 160 110;" xml:space="preserve" width="130">
<style type="text/css">
	.st0{fill:#F3F6F9;}
</style>
<g>
	<g>
		<path class="st0" d="M28.2,77.3c-7.8-4.2-12.2-12.8-14.3-21.1c-2.1-8.1-4.3-18.6-1.3-26.8c3.1-8.4,14.1-12.8,21.9-15.6
			c8.6-3.1,18.1-4.8,27.1-2.6C77.1,15,88.2,30.8,86.3,46.6c-0.9,8.2-5.6,15.7-11.9,20.9c-3.2,2.7-7,4.8-11,6.1
			c-4.2,1.4-8.3,1.2-12.6,1.7c-8.1,1.1-12.2,7.6-16.6,13.7c-6.2,8.4-15.6,13-25.9,13.5c0,1.6,0,3.3,0,4.9
			c12.8-1.3,19.6-13.6,22-25.1c0.4-1.6-2.1-2.9-2.9-1.2c-3.9,8.9-7.3,21.4-19.2,21.4c-3.2,0-3.1,4.8,0,4.9
			c10,0.5,19.7-3.4,26.7-10.5c3-3.1,5.2-6.7,7.9-10.1c1.5-1.9,3.2-3.8,5.3-4.8c3.2-1.6,7.1-1,10.5-1.5c18.1-2.3,33-18.4,33.6-36.7
			C93,25.9,80.1,8.8,62.6,4.7c-11-2.6-22.7-0.5-33.1,3.6c-8.7,3.4-18.8,7.9-23.1,16.9c-4.8,9.9-3,24.7,0.5,34.7
			c3.5,9.8,10.3,17.5,21,18.5C28.5,78.4,28.7,77.6,28.2,77.3L28.2,77.3z"/>
	</g>
</g>
<g>
	<g>
		<path class="st0" d="M96,38.3c9.5-0.6,17.2,3.3,22.2,11.4c2.3,3.8,3.8,8,4.4,12.4c0.5,3.5,0.1,7.3,1.9,10.5
			c3,5.5,10.6,6.4,16.3,6.8c6,0.5,12-0.6,15.2-6.1c1.2-2.1-1.7-4.5-3.4-2.6c-3.7,4.2-8.5,6.1-13.8,7.6c-5.2,1.5-12.3,3.9-16.9,0
			c-1-0.8-3-0.7-3.2,0.8c-1.4,9.1-11.7,12.4-19.3,15c-9.6,3.4-20.5,5.1-26.3-5.2c-1-1.9-3.9-0.6-3.4,1.4c3.1,12.2,18.8,12.1,28.3,9
			c9.5-3.1,22.5-8,24.3-19.2c-1.1,0.3-2.1,0.6-3.2,0.8c5.1,4.5,11.6,3.5,17.8,2c6.9-1.6,13.8-3.8,18.7-9.2c-1-1-2.1-2.1-3.1-3.1
			c-4.5,5-13.2,4-19,2.1c-5.8-1.9-5-6.4-5.6-11.5c-0.4-3.6-1.2-7.2-2.6-10.6c-4.6-11.5-17.3-21.2-30.1-17
			C93.1,34.6,93.3,38.4,96,38.3L96,38.3z"/>
	</g>
</g>
</svg>
