<svg xmlns="http://www.w3.org/2000/svg" xmlns:xlink="http://www.w3.org/1999/xlink" x="0px" y="0px"
	 viewBox="0 0 38 38" style="enable-background:new 0 0 38 38;" xml:space="preserve" width="39">
<style type="text/css">
	.st0{fill:#FFC255;}
	.st1{fill:#2D2D2D;}
</style>
<g>
	<circle class="st0" cx="20" cy="18.4" r="16.3"/>
	<path class="st0" d="M8.6,28c0,0-1.8,6-4.9,7.8c0,0,6.7,3.3,10.6-3.9L8.6,28z"/>
	<g>
		<g>
			<path class="st1" d="M14.4,14.4c3.6,0.3,7.2,0.3,10.8,0c0.8-0.1,0.8-1.3,0-1.3c-3.6,0.3-7.2,0.4-10.8,0
				C13.6,13,13.7,14.3,14.4,14.4L14.4,14.4z"/>
		</g>
	</g>
	<g>
		<g>
			<path class="st1" d="M14.6,19.5c3.9,0,7.9,0,11.8,0c0.8,0,0.8-1.3,0-1.3c-3.9,0-7.9,0-11.8,0C13.8,18.2,13.8,19.5,14.6,19.5
				L14.6,19.5z"/>
		</g>
	</g>
	<g>
		<g>
			<path class="st1" d="M15.3,24.4c1.3,0,2.7,0,4,0c0.8,0,0.8-1.3,0-1.3c-1.3,0-2.7,0-4,0C14.5,23.2,14.5,24.4,15.3,24.4L15.3,24.4z
				"/>
		</g>
	</g>
</g>
</svg>
