<svg xmlns="http://www.w3.org/2000/svg" xmlns:xlink="http://www.w3.org/1999/xlink" x="0px" y="0px"
	 viewBox="0 0 245 160" width="245">
<style type="text/css">
	.st0{fill:#DCE5EA;}
	.st1{fill:none;stroke:#90A1AF;stroke-width:1.5;stroke-miterlimit:10;}
	.st2{fill:none;stroke:#90A1AF;stroke-miterlimit:10;}
	.st3{fill:none;stroke:#90A1AF;stroke-miterlimit:10;stroke-dasharray:2.0019,2.0019;}
	.st4{fill:none;stroke:#90A1AF;stroke-miterlimit:10;stroke-dasharray:1.9746,1.9746;}
	.st5{fill:none;stroke:#90A1AF;stroke-miterlimit:10;stroke-dasharray:1.9752,1.9752;}
	.st6{fill:none;stroke:#90A1AF;stroke-miterlimit:10;stroke-dasharray:1.9673,1.9673;}
	.st7{fill:#C7D1D8;stroke:#90A1AF;stroke-width:1.5;stroke-miterlimit:10;}
	.st8{fill:#FFFFFF;stroke:#90A1AF;stroke-width:1.5;stroke-miterlimit:10;}
	.st9{fill:#6DC075;}
	.st10{fill:#90A1AF;}
</style>
<g>
	<g>
		<g>
			<path class="st0" d="M11.7,5.5c-0.3,20.4-0.3,40.8,0.1,61.3c0,1.1,1.8,1.1,1.8,0c-0.4-20.4-0.4-40.8-0.1-61.3
				C13.5,4.4,11.7,4.4,11.7,5.5L11.7,5.5z"/>
		</g>
	</g>
	<g>
		<g>
			<path class="st0" d="M21.3,16c-5.5-1.2-11-2.7-16.4-4.4c-1.1-0.3-1.5,1.4-0.5,1.7c5.4,1.6,10.8,3.2,16.4,4.4
				C22,17.9,22.4,16.2,21.3,16L21.3,16z"/>
		</g>
	</g>
	<g>
		<g>
			<path class="st0" d="M21.4,26.2c-5.7-0.9-11.3-2.3-16.8-4.1c-1.1-0.4-1.5,1.3-0.5,1.7c5.5,1.8,11.1,3.2,16.8,4.1
				C22,28.1,22.5,26.4,21.4,26.2L21.4,26.2z"/>
		</g>
	</g>
	<g>
		<g>
			<path class="st0" d="M21.3,36.8c-2.8-1.1-5.7-0.9-8.6-1.3c-2.8-0.4-5.4-1.6-8.3-1.7c-1.1,0-1.1,1.7,0,1.8c2.8,0.1,5.3,1.3,8,1.7
				c2.8,0.4,5.6,0.2,8.4,1.3C21.9,38.9,22.3,37.2,21.3,36.8L21.3,36.8z"/>
		</g>
	</g>
	<g>
		<g>
			<path class="st0" d="M21.2,47.5c-3.3-0.2-6.6-0.7-9.9-1.6c-2.4-0.6-4.6-1.4-7.1-1.3c-1.1,0.1-1.1,1.8,0,1.8
				c3.1-0.2,6.1,1.2,9.1,1.8c2.6,0.5,5.2,0.9,7.8,1.1C22.3,49.3,22.3,47.6,21.2,47.5L21.2,47.5z"/>
		</g>
	</g>
	<g>
		<g>
			<path class="st0" d="M22.2,58.2c-4.4-1-8.5-1.9-12.7-3.6c-1-0.4-1.5,1.3-0.5,1.7c4.2,1.7,8.3,2.6,12.7,3.6
				C22.8,60.1,23.3,58.4,22.2,58.2L22.2,58.2z"/>
		</g>
	</g>
	<polygon class="st1" points="3.5,93.1 21.5,97.9 21.5,6.4 3.5,2.4 	"/>
	<g>
		<g>
			<polyline class="st2" points="46.4,126.7 46.4,127.7 47.4,127.9 			"/>
			<line class="st3" x1="49.3" y1="128.4" x2="169" y2="157.1"/>
			<polyline class="st2" points="170,157.3 171,157.6 171,156.6 			"/>
			<line class="st4" x1="171" y1="154.6" x2="171" y2="33.2"/>
			<polyline class="st2" points="171,32.2 171,31.2 170,31 			"/>
			<line class="st5" x1="168.1" y1="30.7" x2="48.4" y2="10"/>
			<polyline class="st2" points="47.4,9.8 46.4,9.6 46.4,10.6 			"/>
			<line class="st6" x1="46.4" y1="12.6" x2="46.4" y2="125.7"/>
		</g>
	</g>
	<polygon class="st1" points="241.5,65 219.3,60.3 219.3,52.2 241.5,56.9 	"/>
	<polygon class="st1" points="218.6,114.8 192.5,109.9 192.5,72.4 218.6,77.3 	"/>
	<polygon class="st1" points="241.5,73.2 219.3,68.5 219.3,60.3 241.5,65.1 	"/>
	<polygon class="st1" points="241.5,81.4 219.3,76.6 219.3,68.5 241.5,73.2 	"/>
	<polygon class="st7" points="241.5,89.5 219.3,84.8 219.3,76.7 241.5,81.4 	"/>
	<polygon class="st8" points="6.5,84.6 12.9,86.3 12.9,78.9 6.5,77.2 	"/>
	<polygon class="st9" points="10.5,81.5 18.5,83.6 18.5,74.4 10.5,72.3 	"/>
	<g>
		<g>
			<path class="st10" d="M213.8,84.4c-5.3-1.4-10.6-2.6-16.1-3.3c-1.1-0.2-1.6,1.5-0.5,1.7c5.4,0.8,10.8,1.9,16.1,3.3
				C214.4,86.4,214.9,84.7,213.8,84.4L213.8,84.4z"/>
		</g>
	</g>
	<g>
		<g>
			<path class="st10" d="M214.1,91c-5.4-1.3-10.9-2.3-16.4-3c-1.1-0.1-1.1,1.6,0,1.8c5.4,0.7,10.7,1.7,15.9,3
				C214.8,93,215.2,91.3,214.1,91L214.1,91z"/>
		</g>
	</g>
	<g>
		<g>
			<path class="st10" d="M213.5,98.7c-5-1.3-10.1-2.2-15.3-3c-1.1-0.2-1.6,1.5-0.5,1.7c5.1,0.7,10.2,1.7,15.3,3
				C214.2,100.7,214.6,99,213.5,98.7L213.5,98.7z"/>
		</g>
	</g>
	<g>
		<g>
			<path class="st10" d="M198.5,103.4c0.2-0.1,0.4,0,0.6,0.2c0.4,0.3,1,0.1,1.2-0.3c0.3-0.4,0.1-0.9-0.3-1.2
				c-0.6-0.4-1.3-0.5-1.9-0.4C197,101.9,197.4,103.6,198.5,103.4L198.5,103.4z"/>
		</g>
	</g>
	<g>
		<g>
			<path class="st10" d="M203.8,104.3c0.8,0.1,1.7,0.2,2.5,0.3c0.5,0,0.9-0.4,0.9-0.9c0-0.5-0.4-0.8-0.9-0.9
				c-0.8-0.1-1.7-0.2-2.5-0.3c-0.5,0-0.9,0.4-0.9,0.9C202.9,104,203.3,104.3,203.8,104.3L203.8,104.3z"/>
		</g>
	</g>
</g>
</svg>
