<?xml version="1.0" encoding="utf-8"?>
<!-- Generator: Adobe Illustrator 21.0.0, SVG Export Plug-In . SVG Version: 6.00 Build 0)  -->
<svg version="1.1" id="Layer_1" xmlns="http://www.w3.org/2000/svg" xmlns:xlink="http://www.w3.org/1999/xlink" x="0px" y="0px"
	 viewBox="0 0 100 110" style="enable-background:new 0 0 100 110;" xml:space="preserve">
<style type="text/css">
	.st0{fill:#F3F6F9;}
</style>
<g>
	<g>
		<path class="st0" d="M4.3,18.4c2.4,11.9,4.1,23.9,5.2,36c1,11.2,0.6,22.4,1.3,33.6c0.5,8.4,4.2,15.7,13.4,16.8
			c10.9,1.3,22.7-0.5,33.4-2.3c10.2-1.7,21.7-3.7,30.7-9c8.8-5.2,8.9-14.2,8.6-23.4c-0.3-11-1.7-22.1-4.2-32.8
			C91.5,32,90,26.7,88.3,21.5c-1.4-4.1-2.8-8.6-6-11.7c-7.5-7.1-21-3.1-29.8-1.1C40.7,11.3,28.8,15.2,18.7,22
			c-1.8,1.2-0.7,4.5,1.6,3.7c8.4-2.9,16.6-6.2,25.2-8.5c8-2.2,17-4.6,25.3-4.1c5.8,0.3,7.6,3.8,9.3,8.8c1.5,4.3,2.8,8.7,4,13.1
			c2.3,8.8,3.8,17.8,4.5,26.9c0.5,6.9,3.1,20.8-5,24.1c-3.7,1.5-8,2.4-11.9,3.5c-4.9,1.4-9.8,2.6-14.7,3.6c-9.2,1.8-18.6,2.8-28,3
			c-4.2,0.1-7.8-0.1-9.1-4.6c-1.1-3.9-0.7-8.2-0.9-12.2c-0.6-21.1-3.6-42-8.9-62.4C9.1,13,3.5,14.6,4.3,18.4L4.3,18.4z"/>
	</g>
</g>
<g>
	<g>
		<path class="st0" d="M13.5,31.2C24.7,39.8,35.8,48.5,47,57.1c1.6,1.2,3.7,0.1,4.7-1.2c4.6-6.4,9.4-12.6,14.4-18.8
			c4.4-5.4,10.1-10.6,13.5-16.6c1.3-2.2-1.4-5.4-3.7-3.7C69.8,21.2,65,28.2,60.3,34c-5,6-9.8,12.2-14.4,18.5
			c1.8-0.2,3.6-0.5,5.4-0.7c-11.3-8.9-23.7-16.3-36.8-22.1C13.3,29.3,12.6,30.5,13.5,31.2L13.5,31.2z"/>
	</g>
</g>
</svg>
