<svg xmlns="http://www.w3.org/2000/svg" xmlns:xlink="http://www.w3.org/1999/xlink" x="0px" y="0px"
	 viewBox="0 0 230 780" style="enable-background:new 0 0 230 780;" width="220px">
<style type="text/css">
	.st0{opacity:0.69;fill:#D6414F;}
	.st1{opacity:0.52;fill:#D6414F;}
	.st2{fill:#BA6F5D;}
	.st3{fill:#E19B78;}
	.st4{fill:#B77355;}
	.st5{fill:#E5A78F;}
	.st6{fill:#DB9475;}
	.st7{clip-path:url(#SVGID_2_);fill:#B77358;}
	.st8{clip-path:url(#SVGID_4_);fill:#B77358;}
	.st9{fill:#D88F6F;}
	.st10{clip-path:url(#SVGID_6_);fill:#B77358;}
	.st11{fill:#A36248;}
</style>
<g>
	<path class="st0" d="M107.1,14.4v81.6c4.4-17.1,8.8-35.5,10.7-48.3C120,33.1,113.5,21.7,107.1,14.4z"/>
	<path class="st1" d="M130.9,301.2c-10.9-9.3-18.6-22.1-23.9-35v87.5c2.7,5.3,4.4,8.4,4.4,8.4S163.3,328.7,130.9,301.2z"/>
	<path class="st1" d="M208.5,243.7c0,0-4.9,59.5-10.4,96.6s36.2,116.7,24.2,150.7H198l-33.8-197.3L208.5,243.7z"/>
	<polygon class="st2" points="82.7,184.7 108.4,162.1 107.7,313.1 81.8,281.2 	"/>
	<path class="st3" d="M53.3,765.7c0,0-21-131.5-11-176.2c7.9-35.2-40.9-197.3-36.4-294.1c1.2-26.1,5.4-36.4,17.4-60.3
		c0,0,9-75.5,14-88.6s45-124,57-140.8c0,0,36,8.4,22,46.6l-14,45.7c0,0-8,57.8-15,63.4c0,0,8.4,42.4,2,74.6c0,0,3.2,67.4,31.6,91.8
		c0,0,7.2-34.5,13.3-58.6c5.8-22.8,8.8-46.5,19.6-67.9c4.8-9.5,8.5-17.5,18.9-23c15.6-8.3,38.6,4.5,38.6,26.8
		c0.1,52.1-10.8,65.1-18,115.9c-5,35.7,0.3,68.1,3,86c3.7,24.3,14.9,49.1,6,101.4c-8.7,50.8-29,57.8-33.3,109
		c-1.9,23,4.4,46.8,6.4,69.7c1.6,18.1,7,53,9,71C184.2,758.3,107.3,788.7,53.3,765.7z"/>
	<g>
		<g>
			<path class="st4" d="M26.5,195.3c-3.1,33.3-6.9,66.6-11.4,99.7c-0.2,1.6,2.2,2.3,2.4,0.7c4.6-33.4,8.4-66.8,11.5-100.4
				C29.2,193.7,26.7,193.7,26.5,195.3L26.5,195.3z"/>
		</g>
	</g>
	<g>
		<g>
			<path class="st4" d="M90.5,152.4c-1.5,4.2-5,7.3-9.2,8.5c-1.5,0.4-0.9,2.9,0.7,2.4c5.1-1.5,9.1-5.2,11-10.2
				C93.5,151.6,91.1,150.9,90.5,152.4L90.5,152.4z"/>
		</g>
	</g>
	<g>
		<g>
			<path class="st4" d="M104.4,86.7c-1.4,3.3-3.3,6.4-5.6,9.2c-1,1.2,0.7,3,1.8,1.8c2.5-2.9,4.5-6.1,6-9.7
				C107.2,86.5,105,85.2,104.4,86.7L104.4,86.7z"/>
		</g>
	</g>
	<g>
		<g>
			<path class="st4" d="M107.7,306.7c-6.1-3.5-12.8-4.8-19.7-3.8c-1.6,0.2-0.9,2.6,0.7,2.4c6.3-0.9,12.3,0.3,17.8,3.5
				C107.8,309.7,109.1,307.6,107.7,306.7L107.7,306.7z"/>
		</g>
	</g>
	<g>
		<g>
			<path class="st4" d="M204.2,430.3c-3.4,19.8-10.8,39.9-21.1,57c-0.8,1.4,1.3,2.6,2.2,1.3c10.4-17.4,18-37.7,21.4-57.6
				C206.9,429.4,204.5,428.7,204.2,430.3L204.2,430.3z"/>
		</g>
	</g>
	<path class="st5" d="M94.3,5.7c0,0,1.5,4.4,0.4,10.7s-13.9,17-13.9,17C83.4,25.1,94.3,5.7,94.3,5.7z"/>
	<g>
		<g>
			<path class="st4" d="M86.3,30.7c-1.8,2-3.8,3.6-6.2,4.9c-1.4,0.8-0.1,2.9,1.3,2.2c2.5-1.4,4.7-3.2,6.7-5.3
				C89.2,31.3,87.4,29.6,86.3,30.7L86.3,30.7z"/>
		</g>
	</g>
	<path class="st6" d="M173.2,178c-10.4,5.5-14.1,13.4-18.9,23c-6.1,12.1-9.7,25-12.8,38c8.7,9.8,30.7,28,65.7,16.2
		c2.7-13.7,4.6-28.6,4.6-50.3C211.7,182.5,188.8,169.7,173.2,178z"/>
	<g>
		<g>
			<path class="st4" d="M135.1,259.4c-5.4,21.5-10.8,42.9-16.2,64.4c-2.7,10.6-5.3,21.1-8,31.7c-2.5,9.8-4.7,25.1-17.3,26.4
				c-1.6,0.2-1.6,2.7,0,2.5c8.2-0.8,13.3-7.2,15.9-14.5c4.2-11.5,6.3-24,9.3-35.8c6.2-24.7,12.4-49.3,18.6-74
				C137.9,258.5,135.5,257.9,135.1,259.4L135.1,259.4z"/>
		</g>
	</g>
	<g>
		<defs>
			<path id="SVGID_1_" d="M92.2,256.5c0,0-16.4,97.5-3.4,125s32.5-61.7,32.5-61.7S102.7,325.8,92.2,256.5z"/>
		</defs>
		<clipPath id="SVGID_2_">
			<use xlink:href="#SVGID_1_"  style="overflow:visible;"/>
		</clipPath>
		<circle class="st7" cx="90.4" cy="255.1" r="0.8"/>
		<circle class="st7" cx="96.7" cy="255.1" r="1"/>
		<circle class="st7" cx="102.7" cy="255.1" r="0.8"/>
		<circle class="st7" cx="99.5" cy="260.5" r="1"/>
		<circle class="st7" cx="93.5" cy="260.5" r="0.8"/>
		<circle class="st7" cx="111.5" cy="260.5" r="1"/>
		<circle class="st7" cx="105.5" cy="260.5" r="0.8"/>
		<circle class="st7" cx="90.4" cy="266.2" r="0.8"/>
		<circle class="st7" cx="90.4" cy="278.2" r="0.8"/>
		<circle class="st7" cx="84.4" cy="290.2" r="1"/>
		<circle class="st7" cx="90.4" cy="290.2" r="0.8"/>
		<circle class="st7" cx="87.2" cy="295.6" r="1"/>
		<circle class="st7" cx="84.4" cy="301.1" r="1"/>
		<circle class="st7" cx="90.4" cy="301.1" r="0.8"/>
		<circle class="st7" cx="87.2" cy="306.5" r="1"/>
		<circle class="st7" cx="84.4" cy="313.1" r="1"/>
		<circle class="st7" cx="90.4" cy="313.1" r="0.8"/>
		<circle class="st7" cx="87.2" cy="318.5" r="1"/>
		<circle class="st7" cx="84.4" cy="325.1" r="1"/>
		<circle class="st7" cx="90.4" cy="325.1" r="0.8"/>
		<circle class="st7" cx="87.2" cy="330.5" r="1"/>
		<circle class="st7" cx="84.4" cy="335.5" r="1"/>
		<circle class="st7" cx="90.4" cy="335.5" r="0.8"/>
		<circle class="st7" cx="87.2" cy="340.9" r="1"/>
		<circle class="st7" cx="84.4" cy="347.5" r="1"/>
		<circle class="st7" cx="90.4" cy="347.5" r="0.8"/>
		<circle class="st7" cx="87.2" cy="352.9" r="1"/>
		<circle class="st7" cx="84.4" cy="359.5" r="1"/>
		<circle class="st7" cx="90.4" cy="359.5" r="0.8"/>
		<circle class="st7" cx="87.2" cy="364.9" r="1"/>
		<circle class="st7" cx="84.4" cy="370.4" r="1"/>
		<circle class="st7" cx="90.4" cy="370.4" r="0.8"/>
		<circle class="st7" cx="87.2" cy="375.8" r="1"/>
		<circle class="st7" cx="84.4" cy="382.4" r="1"/>
		<circle class="st7" cx="90.4" cy="382.4" r="0.8"/>
		<circle class="st7" cx="96.7" cy="266.2" r="1"/>
		<circle class="st7" cx="102.7" cy="266.2" r="0.8"/>
		<circle class="st7" cx="99.5" cy="271.6" r="1"/>
		<circle class="st7" cx="93.5" cy="271.6" r="0.8"/>
		<circle class="st7" cx="108.7" cy="266.2" r="1"/>
		<circle class="st7" cx="111.5" cy="271.6" r="1"/>
		<circle class="st7" cx="105.5" cy="271.6" r="0.8"/>
		<circle class="st7" cx="108.7" cy="278.2" r="1"/>
		<circle class="st7" cx="114.7" cy="278.2" r="0.8"/>
		<circle class="st7" cx="111.5" cy="283.6" r="1"/>
		<circle class="st7" cx="105.5" cy="283.6" r="0.8"/>
		<circle class="st7" cx="96.7" cy="278.2" r="1"/>
		<circle class="st7" cx="102.7" cy="278.2" r="0.8"/>
		<circle class="st7" cx="99.5" cy="283.6" r="1"/>
		<circle class="st7" cx="93.5" cy="283.6" r="0.8"/>
		<circle class="st7" cx="96.7" cy="290.2" r="1"/>
		<circle class="st7" cx="102.7" cy="290.2" r="0.8"/>
		<circle class="st7" cx="99.5" cy="295.6" r="1"/>
		<circle class="st7" cx="93.5" cy="295.6" r="0.8"/>
		<circle class="st7" cx="108.7" cy="290.2" r="1"/>
		<circle class="st7" cx="114.7" cy="290.2" r="0.8"/>
		<circle class="st7" cx="111.5" cy="295.6" r="1"/>
		<circle class="st7" cx="105.5" cy="295.6" r="0.8"/>
		<circle class="st7" cx="120.7" cy="290.2" r="1"/>
		<circle class="st7" cx="123.5" cy="295.6" r="1"/>
		<circle class="st7" cx="117.5" cy="295.6" r="0.8"/>
		<circle class="st7" cx="117.5" cy="283.6" r="0.8"/>
		<circle class="st7" cx="117.5" cy="271.6" r="0.8"/>
		<circle class="st7" cx="96.7" cy="301.1" r="1"/>
		<circle class="st7" cx="102.7" cy="301.1" r="0.8"/>
		<circle class="st7" cx="99.5" cy="306.5" r="1"/>
		<circle class="st7" cx="93.5" cy="306.5" r="0.8"/>
		<circle class="st7" cx="108.7" cy="301.1" r="1"/>
		<circle class="st7" cx="114.7" cy="301.1" r="0.8"/>
		<circle class="st7" cx="111.5" cy="306.5" r="1"/>
		<circle class="st7" cx="105.5" cy="306.5" r="0.8"/>
		<circle class="st7" cx="108.7" cy="313.1" r="1"/>
		<circle class="st7" cx="114.7" cy="313.1" r="0.8"/>
		<circle class="st7" cx="111.5" cy="318.5" r="1"/>
		<circle class="st7" cx="105.5" cy="318.5" r="0.8"/>
		<circle class="st7" cx="96.7" cy="313.1" r="1"/>
		<circle class="st7" cx="102.7" cy="313.1" r="0.8"/>
		<circle class="st7" cx="99.5" cy="318.5" r="1"/>
		<circle class="st7" cx="93.5" cy="318.5" r="0.8"/>
		<circle class="st7" cx="96.7" cy="325.1" r="1"/>
		<circle class="st7" cx="102.7" cy="325.1" r="0.8"/>
		<circle class="st7" cx="99.5" cy="330.5" r="1"/>
		<circle class="st7" cx="93.5" cy="330.5" r="0.8"/>
		<circle class="st7" cx="108.7" cy="325.1" r="1"/>
		<circle class="st7" cx="114.7" cy="325.1" r="0.8"/>
		<circle class="st7" cx="111.5" cy="330.5" r="1"/>
		<circle class="st7" cx="105.5" cy="330.5" r="0.8"/>
		<circle class="st7" cx="120.7" cy="325.1" r="1"/>
		<circle class="st7" cx="123.5" cy="330.5" r="1"/>
		<circle class="st7" cx="117.5" cy="330.5" r="0.8"/>
		<circle class="st7" cx="120.7" cy="313.1" r="1"/>
		<circle class="st7" cx="123.5" cy="318.5" r="1"/>
		<circle class="st7" cx="117.5" cy="318.5" r="0.8"/>
		<circle class="st7" cx="120.7" cy="301.1" r="1"/>
		<circle class="st7" cx="123.5" cy="306.5" r="1"/>
		<circle class="st7" cx="117.5" cy="306.5" r="0.8"/>
		<circle class="st7" cx="96.7" cy="335.5" r="1"/>
		<circle class="st7" cx="102.7" cy="335.5" r="0.8"/>
		<circle class="st7" cx="99.5" cy="340.9" r="1"/>
		<circle class="st7" cx="93.5" cy="340.9" r="0.8"/>
		<circle class="st7" cx="108.7" cy="335.5" r="1"/>
		<circle class="st7" cx="114.7" cy="335.5" r="0.8"/>
		<circle class="st7" cx="111.5" cy="340.9" r="1"/>
		<circle class="st7" cx="105.5" cy="340.9" r="0.8"/>
		<circle class="st7" cx="108.7" cy="347.5" r="1"/>
		<circle class="st7" cx="114.7" cy="347.5" r="0.8"/>
		<circle class="st7" cx="111.5" cy="352.9" r="1"/>
		<circle class="st7" cx="105.5" cy="352.9" r="0.8"/>
		<circle class="st7" cx="96.7" cy="347.5" r="1"/>
		<circle class="st7" cx="102.7" cy="347.5" r="0.8"/>
		<circle class="st7" cx="99.5" cy="352.9" r="1"/>
		<circle class="st7" cx="93.5" cy="352.9" r="0.8"/>
		<circle class="st7" cx="96.7" cy="359.5" r="1"/>
		<circle class="st7" cx="102.7" cy="359.5" r="0.8"/>
		<circle class="st7" cx="99.5" cy="364.9" r="1"/>
		<circle class="st7" cx="93.5" cy="364.9" r="0.8"/>
		<circle class="st7" cx="108.7" cy="359.5" r="1"/>
		<circle class="st7" cx="114.7" cy="359.5" r="0.8"/>
		<circle class="st7" cx="111.5" cy="364.9" r="1"/>
		<circle class="st7" cx="105.5" cy="364.9" r="0.8"/>
		<circle class="st7" cx="117.5" cy="364.9" r="0.8"/>
		<circle class="st7" cx="120.7" cy="347.5" r="1"/>
		<circle class="st7" cx="117.5" cy="352.9" r="0.8"/>
		<circle class="st7" cx="120.7" cy="335.5" r="1"/>
		<circle class="st7" cx="123.5" cy="340.9" r="1"/>
		<circle class="st7" cx="117.5" cy="340.9" r="0.8"/>
		<circle class="st7" cx="96.7" cy="370.4" r="1"/>
		<circle class="st7" cx="102.7" cy="370.4" r="0.8"/>
		<circle class="st7" cx="99.5" cy="375.8" r="1"/>
		<circle class="st7" cx="93.5" cy="375.8" r="0.8"/>
		<circle class="st7" cx="108.7" cy="370.4" r="1"/>
		<circle class="st7" cx="105.5" cy="375.8" r="0.8"/>
		<circle class="st7" cx="96.7" cy="382.4" r="1"/>
		<circle class="st7" cx="102.7" cy="382.4" r="0.8"/>
	</g>
	<g>
		<defs>
			<path id="SVGID_3_" d="M35.8,133.1c0,0-15.6,29.4-3.3,37.7s31-18.6,31-18.6S66.8,131.2,35.8,133.1z"/>
		</defs>
		<clipPath id="SVGID_4_">
			<use xlink:href="#SVGID_3_"  style="overflow:visible;"/>
		</clipPath>
		<circle class="st8" cx="34.4" cy="132" r="0.8"/>
		<circle class="st8" cx="40.7" cy="132" r="1"/>
		<circle class="st8" cx="46.7" cy="132" r="0.8"/>
		<circle class="st8" cx="43.5" cy="137.4" r="1"/>
		<circle class="st8" cx="37.5" cy="137.4" r="0.8"/>
		<circle class="st8" cx="55.5" cy="137.4" r="1"/>
		<circle class="st8" cx="49.5" cy="137.4" r="0.8"/>
		<circle class="st8" cx="34.4" cy="143.1" r="0.8"/>
		<circle class="st8" cx="34.4" cy="155.1" r="0.8"/>
		<circle class="st8" cx="28.4" cy="167.1" r="1"/>
		<circle class="st8" cx="34.4" cy="167.1" r="0.8"/>
		<circle class="st8" cx="31.2" cy="172.5" r="1"/>
		<circle class="st8" cx="28.4" cy="178" r="1"/>
		<circle class="st8" cx="34.4" cy="178" r="0.8"/>
		<circle class="st8" cx="31.2" cy="183.4" r="1"/>
		<circle class="st8" cx="28.4" cy="190" r="1"/>
		<circle class="st8" cx="34.4" cy="190" r="0.8"/>
		<circle class="st8" cx="31.2" cy="195.4" r="1"/>
		<circle class="st8" cx="28.4" cy="202" r="1"/>
		<circle class="st8" cx="34.4" cy="202" r="0.8"/>
		<circle class="st8" cx="31.2" cy="207.4" r="1"/>
		<circle class="st8" cx="28.4" cy="212.4" r="1"/>
		<circle class="st8" cx="34.4" cy="212.4" r="0.8"/>
		<circle class="st8" cx="31.2" cy="217.8" r="1"/>
		<circle class="st8" cx="28.4" cy="224.4" r="1"/>
		<circle class="st8" cx="34.4" cy="224.4" r="0.8"/>
		<circle class="st8" cx="31.2" cy="229.8" r="1"/>
		<circle class="st8" cx="28.4" cy="236.4" r="1"/>
		<circle class="st8" cx="34.4" cy="236.4" r="0.8"/>
		<circle class="st8" cx="31.2" cy="241.8" r="1"/>
		<circle class="st8" cx="28.4" cy="247.3" r="1"/>
		<circle class="st8" cx="34.4" cy="247.3" r="0.8"/>
		<circle class="st8" cx="31.2" cy="252.7" r="1"/>
		<circle class="st8" cx="28.4" cy="259.3" r="1"/>
		<circle class="st8" cx="34.4" cy="259.3" r="0.8"/>
		<circle class="st8" cx="40.7" cy="143.1" r="1"/>
		<circle class="st8" cx="46.7" cy="143.1" r="0.8"/>
		<circle class="st8" cx="43.5" cy="148.5" r="1"/>
		<circle class="st8" cx="37.5" cy="148.5" r="0.8"/>
		<circle class="st8" cx="52.7" cy="143.1" r="1"/>
		<circle class="st8" cx="55.5" cy="148.5" r="1"/>
		<circle class="st8" cx="49.5" cy="148.5" r="0.8"/>
		<circle class="st8" cx="52.7" cy="155.1" r="1"/>
		<circle class="st8" cx="58.7" cy="155.1" r="0.8"/>
		<circle class="st8" cx="55.5" cy="160.5" r="1"/>
		<circle class="st8" cx="49.5" cy="160.5" r="0.8"/>
		<circle class="st8" cx="40.7" cy="155.1" r="1"/>
		<circle class="st8" cx="46.7" cy="155.1" r="0.8"/>
		<circle class="st8" cx="43.5" cy="160.5" r="1"/>
		<circle class="st8" cx="37.5" cy="160.5" r="0.8"/>
		<circle class="st8" cx="40.7" cy="167.1" r="1"/>
		<circle class="st8" cx="46.7" cy="167.1" r="0.8"/>
		<circle class="st8" cx="43.5" cy="172.5" r="1"/>
		<circle class="st8" cx="37.5" cy="172.5" r="0.8"/>
		<circle class="st8" cx="52.7" cy="167.1" r="1"/>
		<circle class="st8" cx="58.7" cy="167.1" r="0.8"/>
		<circle class="st8" cx="55.5" cy="172.5" r="1"/>
		<circle class="st8" cx="49.5" cy="172.5" r="0.8"/>
		<circle class="st8" cx="64.7" cy="167.1" r="1"/>
		<circle class="st8" cx="67.5" cy="172.5" r="1"/>
		<circle class="st8" cx="61.5" cy="172.5" r="0.8"/>
		<circle class="st8" cx="61.5" cy="160.5" r="0.8"/>
		<circle class="st8" cx="61.5" cy="148.5" r="0.8"/>
		<circle class="st8" cx="40.7" cy="178" r="1"/>
		<circle class="st8" cx="46.7" cy="178" r="0.8"/>
		<circle class="st8" cx="43.5" cy="183.4" r="1"/>
		<circle class="st8" cx="37.5" cy="183.4" r="0.8"/>
		<circle class="st8" cx="52.7" cy="178" r="1"/>
		<circle class="st8" cx="58.7" cy="178" r="0.8"/>
		<circle class="st8" cx="55.5" cy="183.4" r="1"/>
		<circle class="st8" cx="49.5" cy="183.4" r="0.8"/>
		<circle class="st8" cx="52.7" cy="190" r="1"/>
		<circle class="st8" cx="58.7" cy="190" r="0.8"/>
		<circle class="st8" cx="55.5" cy="195.4" r="1"/>
		<circle class="st8" cx="49.5" cy="195.4" r="0.8"/>
		<circle class="st8" cx="40.7" cy="190" r="1"/>
		<circle class="st8" cx="46.7" cy="190" r="0.8"/>
		<circle class="st8" cx="43.5" cy="195.4" r="1"/>
		<circle class="st8" cx="37.5" cy="195.4" r="0.8"/>
		<circle class="st8" cx="40.7" cy="202" r="1"/>
		<circle class="st8" cx="46.7" cy="202" r="0.8"/>
		<circle class="st8" cx="43.5" cy="207.4" r="1"/>
		<circle class="st8" cx="37.5" cy="207.4" r="0.8"/>
		<circle class="st8" cx="52.7" cy="202" r="1"/>
		<circle class="st8" cx="58.7" cy="202" r="0.8"/>
		<circle class="st8" cx="55.5" cy="207.4" r="1"/>
		<circle class="st8" cx="49.5" cy="207.4" r="0.8"/>
		<circle class="st8" cx="64.7" cy="202" r="1"/>
		<circle class="st8" cx="67.5" cy="207.4" r="1"/>
		<circle class="st8" cx="61.5" cy="207.4" r="0.8"/>
		<circle class="st8" cx="64.7" cy="190" r="1"/>
		<circle class="st8" cx="67.5" cy="195.4" r="1"/>
		<circle class="st8" cx="61.5" cy="195.4" r="0.8"/>
		<circle class="st8" cx="64.7" cy="178" r="1"/>
		<circle class="st8" cx="67.5" cy="183.4" r="1"/>
		<circle class="st8" cx="61.5" cy="183.4" r="0.8"/>
		<circle class="st8" cx="40.7" cy="212.4" r="1"/>
		<circle class="st8" cx="46.7" cy="212.4" r="0.8"/>
		<circle class="st8" cx="43.5" cy="217.8" r="1"/>
		<circle class="st8" cx="37.5" cy="217.8" r="0.8"/>
		<circle class="st8" cx="52.7" cy="212.4" r="1"/>
		<circle class="st8" cx="58.7" cy="212.4" r="0.8"/>
		<circle class="st8" cx="55.5" cy="217.8" r="1"/>
		<circle class="st8" cx="49.5" cy="217.8" r="0.8"/>
		<circle class="st8" cx="52.7" cy="224.4" r="1"/>
		<circle class="st8" cx="58.7" cy="224.4" r="0.8"/>
		<circle class="st8" cx="55.5" cy="229.8" r="1"/>
		<circle class="st8" cx="49.5" cy="229.8" r="0.8"/>
		<circle class="st8" cx="40.7" cy="224.4" r="1"/>
		<circle class="st8" cx="46.7" cy="224.4" r="0.8"/>
		<circle class="st8" cx="43.5" cy="229.8" r="1"/>
		<circle class="st8" cx="37.5" cy="229.8" r="0.8"/>
		<circle class="st8" cx="40.7" cy="236.4" r="1"/>
		<circle class="st8" cx="46.7" cy="236.4" r="0.8"/>
		<circle class="st8" cx="43.5" cy="241.8" r="1"/>
		<circle class="st8" cx="37.5" cy="241.8" r="0.8"/>
		<circle class="st8" cx="52.7" cy="236.4" r="1"/>
		<circle class="st8" cx="58.7" cy="236.4" r="0.8"/>
		<circle class="st8" cx="55.5" cy="241.8" r="1"/>
		<circle class="st8" cx="49.5" cy="241.8" r="0.8"/>
		<circle class="st8" cx="61.5" cy="241.8" r="0.8"/>
		<circle class="st8" cx="64.7" cy="224.4" r="1"/>
		<circle class="st8" cx="61.5" cy="229.8" r="0.8"/>
		<circle class="st8" cx="64.7" cy="212.4" r="1"/>
		<circle class="st8" cx="67.5" cy="217.8" r="1"/>
		<circle class="st8" cx="61.5" cy="217.8" r="0.8"/>
		<circle class="st8" cx="40.7" cy="247.3" r="1"/>
		<circle class="st8" cx="46.7" cy="247.3" r="0.8"/>
		<circle class="st8" cx="43.5" cy="252.7" r="1"/>
		<circle class="st8" cx="37.5" cy="252.7" r="0.8"/>
		<circle class="st8" cx="52.7" cy="247.3" r="1"/>
		<circle class="st8" cx="49.5" cy="252.7" r="0.8"/>
		<circle class="st8" cx="40.7" cy="259.3" r="1"/>
		<circle class="st8" cx="46.7" cy="259.3" r="0.8"/>
	</g>
	<path class="st5" d="M159.2,209.3c0,0,4.9-17.8,12.9-24.2c8-6.4,23,0,23,0s11,6.6,10.4,20.1c-0.6,13.5-3.5,20.1-3.5,20.1
		s-8.5-0.2-13.8-0.9C182.8,223.9,171.7,222.9,159.2,209.3z"/>
	<g>
		<g>
			<path class="st4" d="M163.3,219c8.4,7.5,19.1,11.1,30.3,10.2c1.6-0.1,1.6-2.6,0-2.5c-10.5,0.9-20.6-2.4-28.5-9.5
				C163.9,216.2,162.1,217.9,163.3,219L163.3,219z"/>
		</g>
	</g>
	<path class="st9" d="M147.1,245.4C147.1,245.4,147.1,245.4,147.1,245.4c0.3-0.2,0.5-0.3,0.8-0.3c7.9-1.2,15.6-2.2,23.5-0.6
		c7.7,1.5,15,4.8,21.1,9.7c2.3,1.9,5.1,4.3,5.5,7.4c0.4,2.7-1.3,5.4-3.6,7.1c-2.2,1.6-5,2.4-7.7,3c-10.2,2.4-23.3,4.8-32.5-1.6
		c-7.6-5.3-10.4-15.4-7.5-24.1C146.9,245.8,146.9,245.6,147.1,245.4z"/>
	<g>
		<defs>
			<path id="SVGID_5_" d="M141.6,260.3c0,16.2,40.6,31.5,52.1,6.6C205.1,241.9,141.6,244.1,141.6,260.3z"/>
		</defs>
		<clipPath id="SVGID_6_">
			<use xlink:href="#SVGID_5_"  style="overflow:visible;"/>
		</clipPath>
		<circle class="st10" cx="140.5" cy="271.8" r="0.6"/>
		<circle class="st10" cx="140.5" cy="267.2" r="0.8"/>
		<circle class="st10" cx="140.5" cy="262.8" r="0.6"/>
		<circle class="st10" cx="144.5" cy="265.2" r="0.8"/>
		<circle class="st10" cx="144.5" cy="269.6" r="0.6"/>
		<circle class="st10" cx="144.5" cy="256.3" r="0.8"/>
		<circle class="st10" cx="144.5" cy="260.8" r="0.6"/>
		<circle class="st10" cx="148.7" cy="271.8" r="0.6"/>
		<circle class="st10" cx="157.5" cy="271.8" r="0.6"/>
		<circle class="st10" cx="166.3" cy="276.2" r="0.8"/>
		<circle class="st10" cx="166.3" cy="271.8" r="0.6"/>
		<circle class="st10" cx="170.3" cy="274.2" r="0.8"/>
		<circle class="st10" cx="174.3" cy="276.2" r="0.8"/>
		<circle class="st10" cx="174.3" cy="271.8" r="0.6"/>
		<circle class="st10" cx="178.3" cy="274.2" r="0.8"/>
		<circle class="st10" cx="183.1" cy="276.2" r="0.8"/>
		<circle class="st10" cx="183.1" cy="271.8" r="0.6"/>
		<circle class="st10" cx="187.1" cy="274.2" r="0.8"/>
		<circle class="st10" cx="191.9" cy="276.2" r="0.8"/>
		<circle class="st10" cx="191.9" cy="271.8" r="0.6"/>
		<circle class="st10" cx="195.9" cy="274.2" r="0.8"/>
		<circle class="st10" cx="199.6" cy="276.2" r="0.8"/>
		<circle class="st10" cx="199.6" cy="271.8" r="0.6"/>
		<circle class="st10" cx="203.6" cy="274.2" r="0.8"/>
		<circle class="st10" cx="208.5" cy="276.2" r="0.8"/>
		<circle class="st10" cx="208.5" cy="271.8" r="0.6"/>
		<circle class="st10" cx="212.4" cy="274.2" r="0.8"/>
		<circle class="st10" cx="217.3" cy="276.2" r="0.8"/>
		<circle class="st10" cx="217.3" cy="271.8" r="0.6"/>
		<circle class="st10" cx="221.2" cy="274.2" r="0.8"/>
		<circle class="st10" cx="225.3" cy="276.2" r="0.8"/>
		<circle class="st10" cx="225.3" cy="271.8" r="0.6"/>
		<circle class="st10" cx="229.2" cy="274.2" r="0.8"/>
		<circle class="st10" cx="234.1" cy="276.2" r="0.8"/>
		<circle class="st10" cx="234.1" cy="271.8" r="0.6"/>
		<circle class="st10" cx="148.7" cy="267.2" r="0.8"/>
		<circle class="st10" cx="148.7" cy="262.8" r="0.6"/>
		<circle class="st10" cx="152.6" cy="265.2" r="0.8"/>
		<circle class="st10" cx="152.6" cy="269.6" r="0.6"/>
		<circle class="st10" cx="148.7" cy="258.4" r="0.8"/>
		<circle class="st10" cx="152.6" cy="256.3" r="0.8"/>
		<circle class="st10" cx="152.6" cy="260.8" r="0.6"/>
		<circle class="st10" cx="157.5" cy="258.4" r="0.8"/>
		<circle class="st10" cx="157.5" cy="253.9" r="0.6"/>
		<circle class="st10" cx="161.4" cy="256.3" r="0.8"/>
		<circle class="st10" cx="161.4" cy="260.8" r="0.6"/>
		<circle class="st10" cx="157.5" cy="267.2" r="0.8"/>
		<circle class="st10" cx="157.5" cy="262.8" r="0.6"/>
		<circle class="st10" cx="161.4" cy="265.2" r="0.8"/>
		<circle class="st10" cx="161.4" cy="269.6" r="0.6"/>
		<circle class="st10" cx="166.3" cy="267.2" r="0.8"/>
		<circle class="st10" cx="166.3" cy="262.8" r="0.6"/>
		<circle class="st10" cx="170.3" cy="265.2" r="0.8"/>
		<circle class="st10" cx="170.3" cy="269.6" r="0.6"/>
		<circle class="st10" cx="166.3" cy="258.4" r="0.8"/>
		<circle class="st10" cx="166.3" cy="253.9" r="0.6"/>
		<circle class="st10" cx="170.3" cy="256.3" r="0.8"/>
		<circle class="st10" cx="170.3" cy="260.8" r="0.6"/>
		<circle class="st10" cx="166.3" cy="249.5" r="0.8"/>
		<circle class="st10" cx="170.3" cy="247.5" r="0.8"/>
		<circle class="st10" cx="170.3" cy="251.9" r="0.6"/>
		<circle class="st10" cx="161.4" cy="251.9" r="0.6"/>
		<circle class="st10" cx="152.6" cy="251.9" r="0.6"/>
		<circle class="st10" cx="174.3" cy="267.2" r="0.8"/>
		<circle class="st10" cx="174.3" cy="262.8" r="0.6"/>
		<circle class="st10" cx="178.3" cy="265.2" r="0.8"/>
		<circle class="st10" cx="178.3" cy="269.6" r="0.6"/>
		<circle class="st10" cx="174.3" cy="258.4" r="0.8"/>
		<circle class="st10" cx="174.3" cy="253.9" r="0.6"/>
		<circle class="st10" cx="178.3" cy="256.3" r="0.8"/>
		<circle class="st10" cx="178.3" cy="260.8" r="0.6"/>
		<circle class="st10" cx="183.1" cy="258.4" r="0.8"/>
		<circle class="st10" cx="183.1" cy="253.9" r="0.6"/>
		<circle class="st10" cx="187.1" cy="256.3" r="0.8"/>
		<circle class="st10" cx="187.1" cy="260.8" r="0.6"/>
		<circle class="st10" cx="183.1" cy="267.2" r="0.8"/>
		<circle class="st10" cx="183.1" cy="262.8" r="0.6"/>
		<circle class="st10" cx="187.1" cy="265.2" r="0.8"/>
		<circle class="st10" cx="187.1" cy="269.6" r="0.6"/>
		<circle class="st10" cx="191.9" cy="267.2" r="0.8"/>
		<circle class="st10" cx="191.9" cy="262.8" r="0.6"/>
		<circle class="st10" cx="195.9" cy="265.2" r="0.8"/>
		<circle class="st10" cx="195.9" cy="269.6" r="0.6"/>
		<circle class="st10" cx="191.9" cy="258.4" r="0.8"/>
		<circle class="st10" cx="191.9" cy="253.9" r="0.6"/>
		<circle class="st10" cx="195.9" cy="256.3" r="0.8"/>
		<circle class="st10" cx="195.9" cy="260.8" r="0.6"/>
		<circle class="st10" cx="191.9" cy="249.5" r="0.8"/>
		<circle class="st10" cx="195.9" cy="247.5" r="0.8"/>
		<circle class="st10" cx="195.9" cy="251.9" r="0.6"/>
		<circle class="st10" cx="183.1" cy="249.5" r="0.8"/>
		<circle class="st10" cx="187.1" cy="247.5" r="0.8"/>
		<circle class="st10" cx="187.1" cy="251.9" r="0.6"/>
		<circle class="st10" cx="174.3" cy="249.5" r="0.8"/>
		<circle class="st10" cx="178.3" cy="247.5" r="0.8"/>
		<circle class="st10" cx="178.3" cy="251.9" r="0.6"/>
		<circle class="st10" cx="199.6" cy="267.2" r="0.8"/>
		<circle class="st10" cx="199.6" cy="262.8" r="0.6"/>
		<circle class="st10" cx="203.6" cy="265.2" r="0.8"/>
		<circle class="st10" cx="203.6" cy="269.6" r="0.6"/>
		<circle class="st10" cx="199.6" cy="258.4" r="0.8"/>
		<circle class="st10" cx="199.6" cy="253.9" r="0.6"/>
		<circle class="st10" cx="203.6" cy="256.3" r="0.8"/>
		<circle class="st10" cx="203.6" cy="260.8" r="0.6"/>
		<circle class="st10" cx="208.5" cy="258.4" r="0.8"/>
		<circle class="st10" cx="208.5" cy="253.9" r="0.6"/>
		<circle class="st10" cx="212.4" cy="256.3" r="0.8"/>
		<circle class="st10" cx="212.4" cy="260.8" r="0.6"/>
		<circle class="st10" cx="208.5" cy="267.2" r="0.8"/>
		<circle class="st10" cx="208.5" cy="262.8" r="0.6"/>
		<circle class="st10" cx="212.4" cy="265.2" r="0.8"/>
		<circle class="st10" cx="212.4" cy="269.6" r="0.6"/>
		<circle class="st10" cx="217.3" cy="267.2" r="0.8"/>
		<circle class="st10" cx="217.3" cy="262.8" r="0.6"/>
		<circle class="st10" cx="221.2" cy="265.2" r="0.8"/>
		<circle class="st10" cx="221.2" cy="269.6" r="0.6"/>
		<circle class="st10" cx="217.3" cy="258.4" r="0.8"/>
		<circle class="st10" cx="217.3" cy="253.9" r="0.6"/>
		<circle class="st10" cx="221.2" cy="256.3" r="0.8"/>
		<circle class="st10" cx="221.2" cy="260.8" r="0.6"/>
		<circle class="st10" cx="221.2" cy="251.9" r="0.6"/>
		<circle class="st10" cx="208.5" cy="249.5" r="0.8"/>
		<circle class="st10" cx="212.4" cy="251.9" r="0.6"/>
		<circle class="st10" cx="199.6" cy="249.5" r="0.8"/>
		<circle class="st10" cx="203.6" cy="247.5" r="0.8"/>
		<circle class="st10" cx="203.6" cy="251.9" r="0.6"/>
		<circle class="st10" cx="225.3" cy="267.2" r="0.8"/>
		<circle class="st10" cx="225.3" cy="262.8" r="0.6"/>
		<circle class="st10" cx="229.2" cy="265.2" r="0.8"/>
		<circle class="st10" cx="229.2" cy="269.6" r="0.6"/>
		<circle class="st10" cx="225.3" cy="258.4" r="0.8"/>
		<circle class="st10" cx="229.2" cy="260.8" r="0.6"/>
		<circle class="st10" cx="234.1" cy="267.2" r="0.8"/>
		<circle class="st10" cx="234.1" cy="262.8" r="0.6"/>
	</g>
	<g>
		<g>
			<path class="st4" d="M191.4,267.2c-4.8,7-13.5,10.2-21.7,7.9c-1.6-0.4-2.2,2-0.7,2.4c9.3,2.6,19.1-1.1,24.5-9
				C194.5,267.2,192.3,265.9,191.4,267.2L191.4,267.2z"/>
		</g>
	</g>
	<g>
		<g>
			<path class="st11" d="M105.3,221.4c-4,5-8,10-12.1,14.9c-1,1.2,0.8,3,1.8,1.8c4-5,8-10,12.1-14.9
				C108.1,221.9,106.3,220.1,105.3,221.4L105.3,221.4z"/>
		</g>
	</g>
</g>
</svg>
