<svg xmlns="http://www.w3.org/2000/svg" xmlns:xlink="http://www.w3.org/1999/xlink" x="0px" y="0px"
	 viewBox="0 0 210 335" width="220px">
<style type="text/css">
	.st0{fill:#08213E;}
	.st1{opacity:0.52;}
	.st2{fill:#D6414F;}
	.st3{fill:#E19B78;}
	.st4{fill:#BA6F5D;}
	.st5{fill:#E5A78F;}
	.st6{fill:#B77355;}
	.st7{fill:#C17A6C;}
	.st8{fill:#D88F6F;}
	.st9{clip-path:url(#SVGID_2_);fill:#B77358;}
	.st10{clip-path:url(#SVGID_4_);fill:#B77358;}
	.st11{clip-path:url(#SVGID_6_);fill:#B77358;}
</style>
<g>
	<path class="st0" d="M79.5,46.4c0,0-14.1,65.9-9.6,85.9l10.5,22.6l6.4-99.6L79.5,46.4z"/>
	<path class="st0" d="M34,184H19.5c0,0-0.8-77.2-14.7-99l17.3-4.9L34,184z"/>
	<g>
		<g class="st1">
			<path class="st2" d="M66.2,122.1c1.1,5.3,3.8,10.2,6.5,14.9c9.7,17.1,19.4,34.2,29.2,51.4"/>
		</g>
		<path class="st3" d="M82.5,80.1c0,0-13.7,49.9-7,62.3l11.4,18.2L82.5,80.1z"/>
		<path class="st4" d="M8.2,184l19,23.5c0,0,7.5-1.3,9.4-7.1C38.5,194.6,34,184,34,184H8.2z"/>
		<path class="st3" d="M79.6,7c0-4.2,13.4-6.1,15.7-5.4c9.7,3.2,15.1,15.3,20.3,23c11.7,18.6,24.1,38.7,40.3,53.8
			c4.8,4.5,5.6,15.8,6.8,21.7c2.8,13.9,4.8,28,6.8,42.1c4,27.4,8.4,54.8,15.3,81.7c4.9,19.2,23.1,65,23.1,65
			c-8.4,23.7-67.3,44.3-67.4,44.3c-1.9,1.2-17.4-7.8-19.9-9c-17-8.3-33.9-18.5-48.2-30.8c-17.2-14.9-29-33.4-34.2-55.6
			c-5.8-24.5-5.5-50.1-11.9-74.4c-4.6-17.3-6.9-32.4-12.8-49.3C8.2,99.2,1.6,79.5,3.2,62.7c1-10.4,6.4-19.2,15.3-20.9
			c10.8-2.1,19.4,5.9,24.1,14.9c12.4,23.6,19.1,52.9,29.3,79.6c1.3,3.5,7.5,9.4,7.5,13.2C79.4,149.5,79.6,7.9,79.6,7z"/>
		<path class="st5" d="M37,61.9c0,0-3.1-11.4-8.3-15.5s-14.7,0-14.7,0S7,50.6,7.4,59.3s2.2,12.9,2.2,12.9s6.3,1.8,9.8,1.4
			S31.7,72.3,37,61.9z"/>
		<g>
			<g>
				<path class="st6" d="M33.8,69.5c-4.6,4.9-11.6,5-17.9,5c-1.6,0-1.6,2.5,0,2.5c7,0,14.5-0.4,19.6-5.8
					C36.7,70.1,34.9,68.3,33.8,69.5L33.8,69.5z"/>
			</g>
		</g>
		<g>
			<g>
				<path class="st6" d="M44.3,101.6c-3.4,3.1-7.9,4.5-12.4,3.9c-1.6-0.2-2.3,2.2-0.7,2.4c5.5,0.8,10.7-0.8,14.9-4.5
					C47.2,102.3,45.4,100.5,44.3,101.6L44.3,101.6z"/>
			</g>
		</g>
		<path class="st7" d="M11.8,188.4h10.4c0,0,4.7,5,5.1,19.1L11.8,188.4z"/>
		<path class="st8" d="M80.3,42.7c0,0,15.4,25.3,14.4,41.5s-7.7,48.5-4.5,63.4c3.2,14.9,16.6,52.3,16.6,52.3s-29.7-55.6-32.5-60.9
			S80.3,45.9,80.3,42.7z"/>
		<g>
			<g>
				<path class="st6" d="M88.7,81.4c-3,8.7-7.6,16.3-9.2,25.5c-1.5,8.8-1.2,17.8-0.9,26.8c0.1,1.6,2.6,1.6,2.5,0
					c-0.3-9.3-0.7-18.7,1.2-27.9c1.7-8.4,6.1-15.7,8.9-23.7C91.7,80.5,89.2,79.9,88.7,81.4L88.7,81.4z"/>
			</g>
		</g>
		<g>
			<g>
				<path class="st6" d="M93.1,125.2c-4.1,4.2-11.8,5.3-12.2,12.4c-0.1,1.6,2.4,1.6,2.5,0c0.3-5.6,8.1-7.2,11.5-10.6
					C96,125.8,94.3,124,93.1,125.2L93.1,125.2z"/>
			</g>
		</g>
		<g>
			<g>
				<path class="st6" d="M80.4,41.5c4-4.8,7.4-9.9,10.1-15.5c0.7-1.4-1.5-2.7-2.2-1.3c-2.6,5.4-5.8,10.4-9.7,15
					C77.6,41,79.4,42.7,80.4,41.5L80.4,41.5z"/>
			</g>
		</g>
		<g>
			<g>
				<path class="st6" d="M126.3,45.2c13.7,18.6,27.7,38,31.8,61.3c0.3,1.6,2.7,0.9,2.4-0.7c-4.2-23.5-18.2-43.1-32.1-61.9
					C127.5,42.7,125.3,43.9,126.3,45.2L126.3,45.2z"/>
			</g>
		</g>
		<g>
			<defs>
				<path id="SVGID_1_" d="M80.4,77c0,0,36.5,56.5,22.6,106.1c-5.3,18.8-30.2-44.4-30.2-44.4S73.6,121.5,80.4,77z"/>
			</defs>
			<clipPath id="SVGID_2_">
				<use xlink:href="#SVGID_1_"  style="overflow:visible;"/>
			</clipPath>
			<circle class="st9" cx="100.6" cy="95.6" r="0.5"/>
			<circle class="st9" cx="96.6" cy="95.6" r="0.7"/>
			<circle class="st9" cx="92.7" cy="95.6" r="0.5"/>
			<circle class="st9" cx="94.8" cy="99" r="0.7"/>
			<circle class="st9" cx="98.7" cy="99" r="0.5"/>
			<circle class="st9" cx="87.1" cy="99" r="0.7"/>
			<circle class="st9" cx="91" cy="99" r="0.5"/>
			<circle class="st9" cx="100.6" cy="102.7" r="0.5"/>
			<circle class="st9" cx="100.6" cy="110.4" r="0.5"/>
			<circle class="st9" cx="104.5" cy="118.1" r="0.7"/>
			<circle class="st9" cx="100.6" cy="118.1" r="0.5"/>
			<circle class="st9" cx="102.7" cy="121.5" r="0.7"/>
			<circle class="st9" cx="104.5" cy="125" r="0.7"/>
			<circle class="st9" cx="100.6" cy="125" r="0.5"/>
			<circle class="st9" cx="102.7" cy="128.5" r="0.7"/>
			<circle class="st9" cx="104.5" cy="132.7" r="0.7"/>
			<circle class="st9" cx="100.6" cy="132.7" r="0.5"/>
			<circle class="st9" cx="102.7" cy="136.2" r="0.7"/>
			<circle class="st9" cx="104.5" cy="140.4" r="0.7"/>
			<circle class="st9" cx="100.6" cy="140.4" r="0.5"/>
			<circle class="st9" cx="102.7" cy="143.9" r="0.7"/>
			<circle class="st9" cx="104.5" cy="147.2" r="0.7"/>
			<circle class="st9" cx="100.6" cy="147.2" r="0.5"/>
			<circle class="st9" cx="102.7" cy="150.6" r="0.7"/>
			<circle class="st9" cx="104.5" cy="154.9" r="0.7"/>
			<circle class="st9" cx="100.6" cy="154.9" r="0.5"/>
			<circle class="st9" cx="102.7" cy="158.3" r="0.7"/>
			<circle class="st9" cx="104.5" cy="162.6" r="0.7"/>
			<circle class="st9" cx="100.6" cy="162.6" r="0.5"/>
			<circle class="st9" cx="102.7" cy="166" r="0.7"/>
			<circle class="st9" cx="104.5" cy="169.5" r="0.7"/>
			<circle class="st9" cx="100.6" cy="169.5" r="0.5"/>
			<circle class="st9" cx="102.7" cy="173" r="0.7"/>
			<circle class="st9" cx="104.5" cy="177.2" r="0.7"/>
			<circle class="st9" cx="100.6" cy="177.2" r="0.5"/>
			<circle class="st9" cx="96.6" cy="102.7" r="0.7"/>
			<circle class="st9" cx="92.7" cy="102.7" r="0.5"/>
			<circle class="st9" cx="94.8" cy="106.1" r="0.7"/>
			<circle class="st9" cx="98.7" cy="106.1" r="0.5"/>
			<circle class="st9" cx="88.9" cy="102.7" r="0.7"/>
			<circle class="st9" cx="87.1" cy="106.1" r="0.7"/>
			<circle class="st9" cx="91" cy="106.1" r="0.5"/>
			<circle class="st9" cx="88.9" cy="110.4" r="0.7"/>
			<circle class="st9" cx="85" cy="110.4" r="0.5"/>
			<circle class="st9" cx="87.1" cy="113.8" r="0.7"/>
			<circle class="st9" cx="91" cy="113.8" r="0.5"/>
			<circle class="st9" cx="96.6" cy="110.4" r="0.7"/>
			<circle class="st9" cx="92.7" cy="110.4" r="0.5"/>
			<circle class="st9" cx="94.8" cy="113.8" r="0.7"/>
			<circle class="st9" cx="98.7" cy="113.8" r="0.5"/>
			<circle class="st9" cx="96.6" cy="118.1" r="0.7"/>
			<circle class="st9" cx="92.7" cy="118.1" r="0.5"/>
			<circle class="st9" cx="94.8" cy="121.5" r="0.7"/>
			<circle class="st9" cx="98.7" cy="121.5" r="0.5"/>
			<circle class="st9" cx="88.9" cy="118.1" r="0.7"/>
			<circle class="st9" cx="85" cy="118.1" r="0.5"/>
			<circle class="st9" cx="87.1" cy="121.5" r="0.7"/>
			<circle class="st9" cx="91" cy="121.5" r="0.5"/>
			<circle class="st9" cx="81.2" cy="118.1" r="0.7"/>
			<circle class="st9" cx="79.4" cy="121.5" r="0.7"/>
			<circle class="st9" cx="83.3" cy="121.5" r="0.5"/>
			<circle class="st9" cx="83.3" cy="113.8" r="0.5"/>
			<circle class="st9" cx="83.3" cy="106.1" r="0.5"/>
			<circle class="st9" cx="96.6" cy="125" r="0.7"/>
			<circle class="st9" cx="92.7" cy="125" r="0.5"/>
			<circle class="st9" cx="94.8" cy="128.5" r="0.7"/>
			<circle class="st9" cx="98.7" cy="128.5" r="0.5"/>
			<circle class="st9" cx="88.9" cy="125" r="0.7"/>
			<circle class="st9" cx="85" cy="125" r="0.5"/>
			<circle class="st9" cx="87.1" cy="128.5" r="0.7"/>
			<circle class="st9" cx="91" cy="128.5" r="0.5"/>
			<circle class="st9" cx="88.9" cy="132.7" r="0.7"/>
			<circle class="st9" cx="85" cy="132.7" r="0.5"/>
			<circle class="st9" cx="87.1" cy="136.2" r="0.7"/>
			<circle class="st9" cx="91" cy="136.2" r="0.5"/>
			<circle class="st9" cx="96.6" cy="132.7" r="0.7"/>
			<circle class="st9" cx="92.7" cy="132.7" r="0.5"/>
			<circle class="st9" cx="94.8" cy="136.2" r="0.7"/>
			<circle class="st9" cx="98.7" cy="136.2" r="0.5"/>
			<circle class="st9" cx="96.6" cy="140.4" r="0.7"/>
			<circle class="st9" cx="92.7" cy="140.4" r="0.5"/>
			<circle class="st9" cx="94.8" cy="143.9" r="0.7"/>
			<circle class="st9" cx="98.7" cy="143.9" r="0.5"/>
			<circle class="st9" cx="88.9" cy="140.4" r="0.7"/>
			<circle class="st9" cx="85" cy="140.4" r="0.5"/>
			<circle class="st9" cx="87.1" cy="143.9" r="0.7"/>
			<circle class="st9" cx="91" cy="143.9" r="0.5"/>
			<circle class="st9" cx="81.2" cy="140.4" r="0.7"/>
			<circle class="st9" cx="79.4" cy="143.9" r="0.7"/>
			<circle class="st9" cx="83.3" cy="143.9" r="0.5"/>
			<circle class="st9" cx="81.2" cy="132.7" r="0.7"/>
			<circle class="st9" cx="79.4" cy="136.2" r="0.7"/>
			<circle class="st9" cx="83.3" cy="136.2" r="0.5"/>
			<circle class="st9" cx="81.2" cy="125" r="0.7"/>
			<circle class="st9" cx="79.4" cy="128.5" r="0.7"/>
			<circle class="st9" cx="83.3" cy="128.5" r="0.5"/>
			<circle class="st9" cx="96.6" cy="147.2" r="0.7"/>
			<circle class="st9" cx="92.7" cy="147.2" r="0.5"/>
			<circle class="st9" cx="94.8" cy="150.6" r="0.7"/>
			<circle class="st9" cx="98.7" cy="150.6" r="0.5"/>
			<circle class="st9" cx="88.9" cy="147.2" r="0.7"/>
			<circle class="st9" cx="85" cy="147.2" r="0.5"/>
			<circle class="st9" cx="87.1" cy="150.6" r="0.7"/>
			<circle class="st9" cx="91" cy="150.6" r="0.5"/>
			<circle class="st9" cx="88.9" cy="154.9" r="0.7"/>
			<circle class="st9" cx="85" cy="154.9" r="0.5"/>
			<circle class="st9" cx="87.1" cy="158.3" r="0.7"/>
			<circle class="st9" cx="91" cy="158.3" r="0.5"/>
			<circle class="st9" cx="96.6" cy="154.9" r="0.7"/>
			<circle class="st9" cx="92.7" cy="154.9" r="0.5"/>
			<circle class="st9" cx="94.8" cy="158.3" r="0.7"/>
			<circle class="st9" cx="98.7" cy="158.3" r="0.5"/>
			<circle class="st9" cx="96.6" cy="162.6" r="0.7"/>
			<circle class="st9" cx="92.7" cy="162.6" r="0.5"/>
			<circle class="st9" cx="94.8" cy="166" r="0.7"/>
			<circle class="st9" cx="98.7" cy="166" r="0.5"/>
			<circle class="st9" cx="88.9" cy="162.6" r="0.7"/>
			<circle class="st9" cx="85" cy="162.6" r="0.5"/>
			<circle class="st9" cx="87.1" cy="166" r="0.7"/>
			<circle class="st9" cx="91" cy="166" r="0.5"/>
			<circle class="st9" cx="83.3" cy="166" r="0.5"/>
			<circle class="st9" cx="81.2" cy="154.9" r="0.7"/>
			<circle class="st9" cx="83.3" cy="158.3" r="0.5"/>
			<circle class="st9" cx="81.2" cy="147.2" r="0.7"/>
			<circle class="st9" cx="79.4" cy="150.6" r="0.7"/>
			<circle class="st9" cx="83.3" cy="150.6" r="0.5"/>
			<circle class="st9" cx="96.6" cy="169.5" r="0.7"/>
			<circle class="st9" cx="92.7" cy="169.5" r="0.5"/>
			<circle class="st9" cx="94.8" cy="173" r="0.7"/>
			<circle class="st9" cx="98.7" cy="173" r="0.5"/>
			<circle class="st9" cx="88.9" cy="169.5" r="0.7"/>
			<circle class="st9" cx="91" cy="173" r="0.5"/>
			<circle class="st9" cx="96.6" cy="177.2" r="0.7"/>
			<circle class="st9" cx="92.7" cy="177.2" r="0.5"/>
		</g>
		<g>
			<defs>
				<path id="SVGID_3_" d="M103,326.1c0,0-58-34.2-67.7-84.8c-3.7-19.2,46.9,26.1,46.9,26.1S89.1,283.3,103,326.1z"/>
			</defs>
			<clipPath id="SVGID_4_">
				<use xlink:href="#SVGID_3_"  style="overflow:visible;"/>
			</clipPath>
			
				<ellipse transform="matrix(0.8943 -0.4475 0.4475 0.8943 -134.4702 67.9499)" class="st10" cx="76.6" cy="318.6" rx="0.5" ry="0.5"/>
			
				<ellipse transform="matrix(0.8943 -0.4475 0.4475 0.8943 -133.2779 69.3772)" class="st10" cx="80.2" cy="316.8" rx="0.7" ry="0.7"/>
			
				<ellipse transform="matrix(0.8943 -0.4475 0.4475 0.8943 -132.143 70.7358)" class="st10" cx="83.7" cy="315.1" rx="0.5" ry="0.5"/>
			
				<ellipse transform="matrix(0.8943 -0.4475 0.4475 0.8943 -131.5394 68.9775)" class="st10" cx="80.2" cy="312.9" rx="0.7" ry="0.7"/>
			
				<ellipse transform="matrix(0.8943 -0.4475 0.4475 0.8943 -132.6743 67.6189)" class="st10" cx="76.8" cy="314.6" rx="0.5" ry="0.5"/>
			
				<ellipse transform="matrix(0.8943 -0.4475 0.4475 0.8943 -129.2696 71.6948)" class="st10" cx="87.1" cy="309.5" rx="0.7" ry="0.7"/>
			
				<ellipse transform="matrix(0.8943 -0.4475 0.4475 0.8943 -130.4045 70.3362)" class="st10" cx="83.7" cy="311.2" rx="0.5" ry="0.5"/>
			
				<ellipse transform="matrix(0.8943 -0.4475 0.4475 0.8943 -131.9677 65.8596)" class="st10" cx="73.4" cy="312.3" rx="0.5" ry="0.5"/>
			
				<ellipse transform="matrix(0.8943 -0.4475 0.4475 0.8943 -129.2505 63.5898)" class="st10" cx="70" cy="305.4" rx="0.5" ry="0.5"/>
			
				<ellipse transform="matrix(0.8943 -0.4475 0.4475 0.8943 -127.6681 59.9613)" class="st10" cx="63.1" cy="300.2" rx="0.7" ry="0.7"/>
			
				<ellipse transform="matrix(0.8943 -0.4475 0.4475 0.8943 -126.5332 61.32)" class="st10" cx="66.5" cy="298.5" rx="0.5" ry="0.5"/>
			
				<ellipse transform="matrix(0.8943 -0.4475 0.4475 0.8943 -125.9295 59.5617)" class="st10" cx="63.1" cy="296.3" rx="0.7" ry="0.7"/>
			<ellipse transform="matrix(0.8943 -0.4475 0.4475 0.8943 -125.2042 57.9032)" class="st10" cx="60" cy="294" rx="0.7" ry="0.7"/>
			
				<ellipse transform="matrix(0.8943 -0.4475 0.4475 0.8943 -124.0693 59.2619)" class="st10" cx="63.4" cy="292.2" rx="0.5" ry="0.5"/>
			
				<ellipse transform="matrix(0.8943 -0.4475 0.4475 0.8943 -123.4656 57.5036)" class="st10" cx="60" cy="290.1" rx="0.7" ry="0.7"/>
			
				<ellipse transform="matrix(0.8943 -0.4475 0.4475 0.8943 -122.4869 55.6334)" class="st10" cx="56.5" cy="287.1" rx="0.7" ry="0.7"/>
			
				<ellipse transform="matrix(0.8943 -0.4475 0.4475 0.8943 -121.352 56.9921)" class="st10" cx="60" cy="285.4" rx="0.5" ry="0.5"/>
			
				<ellipse transform="matrix(0.8943 -0.4475 0.4475 0.8943 -120.7484 55.2338)" class="st10" cx="56.5" cy="283.2" rx="0.7" ry="0.7"/>
			
				<ellipse transform="matrix(0.8943 -0.4475 0.4475 0.8943 -119.7696 53.3636)" class="st10" cx="53.1" cy="280.2" rx="0.7" ry="0.7"/>
			
				<ellipse transform="matrix(0.8943 -0.4475 0.4475 0.8943 -118.6347 54.7223)" class="st10" cx="56.5" cy="278.5" rx="0.5" ry="0.5"/>
			
				<ellipse transform="matrix(0.8943 -0.4475 0.4475 0.8943 -118.0311 52.964)" class="st10" cx="53.1" cy="276.3" rx="0.7" ry="0.7"/>
			
				<ellipse transform="matrix(0.8943 -0.4475 0.4475 0.8943 -117.3997 51.384)" class="st10" cx="50.1" cy="274.2" rx="0.7" ry="0.7"/>
			
				<ellipse transform="matrix(0.8943 -0.4475 0.4475 0.8943 -116.2648 52.7426)" class="st10" cx="53.5" cy="272.5" rx="0.5" ry="0.5"/>
			
				<ellipse transform="matrix(0.8943 -0.4475 0.4475 0.8943 -115.6612 50.9843)" class="st10" cx="50.1" cy="270.3" rx="0.7" ry="0.7"/>
			
				<ellipse transform="matrix(0.8943 -0.4475 0.4475 0.8943 -114.6824 49.1142)" class="st10" cx="46.6" cy="267.3" rx="0.7" ry="0.7"/>
			
				<ellipse transform="matrix(0.8943 -0.4475 0.4475 0.8943 -113.5475 50.4728)" class="st10" cx="50.1" cy="265.6" rx="0.5" ry="0.5"/>
			
				<ellipse transform="matrix(0.8943 -0.4475 0.4475 0.8943 -112.9439 48.7145)" class="st10" cx="46.6" cy="263.4" rx="0.7" ry="0.7"/>
			
				<ellipse transform="matrix(0.8943 -0.4475 0.4475 0.8943 -111.9651 46.8444)" class="st10" cx="43.2" cy="260.4" rx="0.7" ry="0.7"/>
			
				<ellipse transform="matrix(0.8943 -0.4475 0.4475 0.8943 -110.8302 48.203)" class="st10" cx="46.6" cy="258.7" rx="0.5" ry="0.5"/>
			
				<ellipse transform="matrix(0.8943 -0.4475 0.4475 0.8943 -110.2266 46.4447)" class="st10" cx="43.2" cy="256.5" rx="0.7" ry="0.7"/>
			
				<ellipse transform="matrix(0.8943 -0.4475 0.4475 0.8943 -109.5013 44.7863)" class="st10" cx="40" cy="254.2" rx="0.7" ry="0.7"/>
			
				<ellipse transform="matrix(0.8943 -0.4475 0.4475 0.8943 -108.3664 46.1449)" class="st10" cx="43.5" cy="252.4" rx="0.5" ry="0.5"/>
			
				<ellipse transform="matrix(0.8943 -0.4475 0.4475 0.8943 -107.7627 44.3866)" class="st10" cx="40.1" cy="250.3" rx="0.7" ry="0.7"/>
			
				<ellipse transform="matrix(0.8943 -0.4475 0.4475 0.8943 -106.784 42.5164)" class="st10" cx="36.6" cy="247.3" rx="0.7" ry="0.7"/>
			
				<ellipse transform="matrix(0.8943 -0.4475 0.4475 0.8943 -105.6491 43.8751)" class="st10" cx="40" cy="245.6" rx="0.5" ry="0.5"/>
			
				<ellipse transform="matrix(0.8943 -0.4475 0.4475 0.8943 -130.7755 67.2869)" class="st10" cx="77" cy="310.4" rx="0.7" ry="0.7"/>
			
				<ellipse transform="matrix(0.8943 -0.4475 0.4475 0.8943 -129.6406 68.6455)" class="st10" cx="80.5" cy="308.7" rx="0.5" ry="0.5"/>
			
				<ellipse transform="matrix(0.8943 -0.4475 0.4475 0.8943 -129.037 66.8872)" class="st10" cx="77.1" cy="306.6" rx="0.7" ry="0.7"/>
			
				<ellipse transform="matrix(0.8943 -0.4475 0.4475 0.8943 -130.1718 65.5286)" class="st10" cx="73.6" cy="308.3" rx="0.5" ry="0.5"/>
			
				<ellipse transform="matrix(0.8943 -0.4475 0.4475 0.8943 -128.5057 70.0041)" class="st10" cx="83.9" cy="307" rx="0.7" ry="0.7"/>
			
				<ellipse transform="matrix(0.8943 -0.4475 0.4475 0.8943 -126.7671 69.6045)" class="st10" cx="83.9" cy="303.1" rx="0.7" ry="0.7"/>
			
				<ellipse transform="matrix(0.8943 -0.4475 0.4475 0.8943 -127.902 68.2458)" class="st10" cx="80.5" cy="304.8" rx="0.5" ry="0.5"/>
			
				<ellipse transform="matrix(0.8943 -0.4475 0.4475 0.8943 -125.7884 67.7343)" class="st10" cx="80.5" cy="300.1" rx="0.7" ry="0.7"/>
			
				<ellipse transform="matrix(0.8943 -0.4475 0.4475 0.8943 -124.6535 69.093)" class="st10" cx="83.9" cy="298.4" rx="0.5" ry="0.5"/>
			
				<ellipse transform="matrix(0.8943 -0.4475 0.4475 0.8943 -124.0499 67.3347)" class="st10" cx="80.5" cy="296.2" rx="0.7" ry="0.7"/>
			
				<ellipse transform="matrix(0.8943 -0.4475 0.4475 0.8943 -125.1848 65.976)" class="st10" cx="77.1" cy="298" rx="0.5" ry="0.5"/>
			
				<ellipse transform="matrix(0.8943 -0.4475 0.4475 0.8943 -128.0582 65.0171)" class="st10" cx="73.6" cy="303.6" rx="0.7" ry="0.7"/>
			
				<ellipse transform="matrix(0.8943 -0.4475 0.4475 0.8943 -126.9233 66.3757)" class="st10" cx="77" cy="301.8" rx="0.5" ry="0.5"/>
			
				<ellipse transform="matrix(0.8943 -0.4475 0.4475 0.8943 -126.3197 64.6174)" class="st10" cx="73.6" cy="299.7" rx="0.7" ry="0.7"/>
			
				<ellipse transform="matrix(0.8943 -0.4475 0.4475 0.8943 -127.4546 63.2588)" class="st10" cx="70.2" cy="301.4" rx="0.5" ry="0.5"/>
			
				<ellipse transform="matrix(0.8943 -0.4475 0.4475 0.8943 -125.3409 62.7473)" class="st10" cx="70.1" cy="296.7" rx="0.7" ry="0.7"/>
			
				<ellipse transform="matrix(0.8943 -0.4475 0.4475 0.8943 -124.206 64.1059)" class="st10" cx="73.6" cy="295" rx="0.5" ry="0.5"/>
			
				<ellipse transform="matrix(0.8943 -0.4475 0.4475 0.8943 -123.6024 62.3476)" class="st10" cx="70.2" cy="292.8" rx="0.7" ry="0.7"/>
			
				<ellipse transform="matrix(0.8943 -0.4475 0.4475 0.8943 -124.7373 60.989)" class="st10" cx="66.7" cy="294.5" rx="0.5" ry="0.5"/>
			
				<ellipse transform="matrix(0.8943 -0.4475 0.4475 0.8943 -123.0711 65.4645)" class="st10" cx="77" cy="293.2" rx="0.7" ry="0.7"/>
			
				<ellipse transform="matrix(0.8943 -0.4475 0.4475 0.8943 -121.9362 66.8232)" class="st10" cx="80.5" cy="291.5" rx="0.5" ry="0.5"/>
			
				<ellipse transform="matrix(0.8943 -0.4475 0.4475 0.8943 -121.3326 65.0649)" class="st10" cx="77.1" cy="289.4" rx="0.7" ry="0.7"/>
			
				<ellipse transform="matrix(0.8943 -0.4475 0.4475 0.8943 -122.4675 63.7062)" class="st10" cx="73.6" cy="291.1" rx="0.5" ry="0.5"/>
			
				<ellipse transform="matrix(0.8943 -0.4475 0.4475 0.8943 -120.8013 68.1818)" class="st10" cx="83.9" cy="289.8" rx="0.7" ry="0.7"/>
			
				<ellipse transform="matrix(0.8943 -0.4475 0.4475 0.8943 -119.0628 67.7822)" class="st10" cx="83.9" cy="285.9" rx="0.7" ry="0.7"/>
			
				<ellipse transform="matrix(0.8943 -0.4475 0.4475 0.8943 -120.1977 66.4235)" class="st10" cx="80.5" cy="287.6" rx="0.5" ry="0.5"/>
			
				<ellipse transform="matrix(0.8943 -0.4475 0.4475 0.8943 -122.915 68.6933)" class="st10" cx="83.9" cy="294.5" rx="0.5" ry="0.5"/>
			
				<ellipse transform="matrix(0.8943 -0.4475 0.4475 0.8943 -125.6322 70.9631)" class="st10" cx="87.4" cy="301.4" rx="0.5" ry="0.5"/>
			
				<ellipse transform="matrix(0.8943 -0.4475 0.4475 0.8943 -122.8771 60.6891)" class="st10" cx="67" cy="290.4" rx="0.7" ry="0.7"/>
			
				<ellipse transform="matrix(0.8943 -0.4475 0.4475 0.8943 -121.7422 62.0478)" class="st10" cx="70.5" cy="288.7" rx="0.5" ry="0.5"/>
			
				<ellipse transform="matrix(0.8943 -0.4475 0.4475 0.8943 -121.1385 60.2895)" class="st10" cx="67" cy="286.6" rx="0.7" ry="0.7"/>
			
				<ellipse transform="matrix(0.8943 -0.4475 0.4475 0.8943 -122.2734 58.9308)" class="st10" cx="63.6" cy="288.3" rx="0.5" ry="0.5"/>
			
				<ellipse transform="matrix(0.8943 -0.4475 0.4475 0.8943 -120.6073 63.4064)" class="st10" cx="73.9" cy="287" rx="0.7" ry="0.7"/>
			
				<ellipse transform="matrix(0.8943 -0.4475 0.4475 0.8943 -119.4724 64.7651)" class="st10" cx="77.3" cy="285.3" rx="0.5" ry="0.5"/>
			
				<ellipse transform="matrix(0.8943 -0.4475 0.4475 0.8943 -118.8687 63.0068)" class="st10" cx="73.9" cy="283.1" rx="0.7" ry="0.7"/>
			
				<ellipse transform="matrix(0.8943 -0.4475 0.4475 0.8943 -120.0036 61.6481)" class="st10" cx="70.5" cy="284.8" rx="0.5" ry="0.5"/>
			
				<ellipse transform="matrix(0.8943 -0.4475 0.4475 0.8943 -117.89 61.1366)" class="st10" cx="70.5" cy="280.1" rx="0.7" ry="0.7"/>
			
				<ellipse transform="matrix(0.8943 -0.4475 0.4475 0.8943 -116.7551 62.4953)" class="st10" cx="73.9" cy="278.4" rx="0.5" ry="0.5"/>
			
				<ellipse transform="matrix(0.8943 -0.4475 0.4475 0.8943 -116.1514 60.737)" class="st10" cx="70.5" cy="276.2" rx="0.7" ry="0.7"/>
			
				<ellipse transform="matrix(0.8943 -0.4475 0.4475 0.8943 -117.2863 59.3783)" class="st10" cx="67" cy="277.9" rx="0.5" ry="0.5"/>
			
				<ellipse transform="matrix(0.8943 -0.4475 0.4475 0.8943 -120.1598 58.4193)" class="st10" cx="63.6" cy="283.5" rx="0.7" ry="0.7"/>
			
				<ellipse transform="matrix(0.8943 -0.4475 0.4475 0.8943 -119.0249 59.778)" class="st10" cx="67" cy="281.8" rx="0.5" ry="0.5"/>
			
				<ellipse transform="matrix(0.8943 -0.4475 0.4475 0.8943 -118.4212 58.0197)" class="st10" cx="63.6" cy="279.7" rx="0.7" ry="0.7"/>
			
				<ellipse transform="matrix(0.8943 -0.4475 0.4475 0.8943 -119.5561 56.661)" class="st10" cx="60.2" cy="281.4" rx="0.5" ry="0.5"/>
			
				<ellipse transform="matrix(0.8943 -0.4475 0.4475 0.8943 -117.4425 56.1495)" class="st10" cx="60.1" cy="276.7" rx="0.7" ry="0.7"/>
			
				<ellipse transform="matrix(0.8943 -0.4475 0.4475 0.8943 -116.3076 57.5082)" class="st10" cx="63.6" cy="274.9" rx="0.5" ry="0.5"/>
			
				<ellipse transform="matrix(0.8943 -0.4475 0.4475 0.8943 -115.7039 55.7499)" class="st10" cx="60.2" cy="272.8" rx="0.7" ry="0.7"/>
			
				<ellipse transform="matrix(0.8943 -0.4475 0.4475 0.8943 -116.8388 54.3912)" class="st10" cx="56.7" cy="274.5" rx="0.5" ry="0.5"/>
			
				<ellipse transform="matrix(0.8943 -0.4475 0.4475 0.8943 -115.1727 58.8668)" class="st10" cx="67" cy="273.2" rx="0.7" ry="0.7"/>
			
				<ellipse transform="matrix(0.8943 -0.4475 0.4475 0.8943 -114.0378 60.2255)" class="st10" cx="70.5" cy="271.5" rx="0.5" ry="0.5"/>
			
				<ellipse transform="matrix(0.8943 -0.4475 0.4475 0.8943 -113.4341 58.4672)" class="st10" cx="67" cy="269.3" rx="0.7" ry="0.7"/>
			
				<ellipse transform="matrix(0.8943 -0.4475 0.4475 0.8943 -114.569 57.1085)" class="st10" cx="63.6" cy="271.1" rx="0.5" ry="0.5"/>
			
				<ellipse transform="matrix(0.8943 -0.4475 0.4475 0.8943 -112.9029 61.5841)" class="st10" cx="73.9" cy="269.8" rx="0.7" ry="0.7"/>
			
				<ellipse transform="matrix(0.8943 -0.4475 0.4475 0.8943 -111.1643 61.1844)" class="st10" cx="73.9" cy="265.9" rx="0.7" ry="0.7"/>
			
				<ellipse transform="matrix(0.8943 -0.4475 0.4475 0.8943 -112.2992 59.8258)" class="st10" cx="70.5" cy="267.6" rx="0.5" ry="0.5"/>
			
				<ellipse transform="matrix(0.8943 -0.4475 0.4475 0.8943 -115.6202 63.8539)" class="st10" cx="77.3" cy="276.7" rx="0.7" ry="0.7"/>
			
				<ellipse transform="matrix(0.8943 -0.4475 0.4475 0.8943 -113.8816 63.4542)" class="st10" cx="77.4" cy="272.8" rx="0.7" ry="0.7"/>
			
				<ellipse transform="matrix(0.8943 -0.4475 0.4475 0.8943 -115.0165 62.0956)" class="st10" cx="73.9" cy="274.5" rx="0.5" ry="0.5"/>
			
				<ellipse transform="matrix(0.8943 -0.4475 0.4475 0.8943 -118.3375 66.1237)" class="st10" cx="80.8" cy="283.5" rx="0.7" ry="0.7"/>
			
				<ellipse transform="matrix(0.8943 -0.4475 0.4475 0.8943 -116.5989 65.7241)" class="st10" cx="80.8" cy="279.7" rx="0.7" ry="0.7"/>
			
				<ellipse transform="matrix(0.8943 -0.4475 0.4475 0.8943 -117.7338 64.3654)" class="st10" cx="77.4" cy="281.4" rx="0.5" ry="0.5"/>
			
				<ellipse transform="matrix(0.8943 -0.4475 0.4475 0.8943 -115.0726 54.1699)" class="st10" cx="57.1" cy="270.7" rx="0.7" ry="0.7"/>
			
				<ellipse transform="matrix(0.8943 -0.4475 0.4475 0.8943 -113.9377 55.5285)" class="st10" cx="60.6" cy="268.9" rx="0.5" ry="0.5"/>
			
				<ellipse transform="matrix(0.8943 -0.4475 0.4475 0.8943 -113.334 53.7702)" class="st10" cx="57.1" cy="266.8" rx="0.7" ry="0.7"/>
			
				<ellipse transform="matrix(0.8943 -0.4475 0.4475 0.8943 -114.4689 52.4116)" class="st10" cx="53.7" cy="268.5" rx="0.5" ry="0.5"/>
			
				<ellipse transform="matrix(0.8943 -0.4475 0.4475 0.8943 -112.8028 56.8872)" class="st10" cx="64" cy="267.2" rx="0.7" ry="0.7"/>
			
				<ellipse transform="matrix(0.8943 -0.4475 0.4475 0.8943 -111.6679 58.2458)" class="st10" cx="67.5" cy="265.5" rx="0.5" ry="0.5"/>
			
				<ellipse transform="matrix(0.8943 -0.4475 0.4475 0.8943 -111.0642 56.4875)" class="st10" cx="64" cy="263.3" rx="0.7" ry="0.7"/>
			
				<ellipse transform="matrix(0.8943 -0.4475 0.4475 0.8943 -112.1991 55.1289)" class="st10" cx="60.6" cy="265.1" rx="0.5" ry="0.5"/>
			
				<ellipse transform="matrix(0.8943 -0.4475 0.4475 0.8943 -110.0855 54.6174)" class="st10" cx="60.6" cy="260.3" rx="0.7" ry="0.7"/>
			
				<ellipse transform="matrix(0.8943 -0.4475 0.4475 0.8943 -108.9506 55.976)" class="st10" cx="64" cy="258.6" rx="0.5" ry="0.5"/>
			
				<ellipse transform="matrix(0.8943 -0.4475 0.4475 0.8943 -108.3469 54.2177)" class="st10" cx="60.6" cy="256.4" rx="0.7" ry="0.7"/>
			
				<ellipse transform="matrix(0.8943 -0.4475 0.4475 0.8943 -109.4818 52.8591)" class="st10" cx="57.1" cy="258.2" rx="0.5" ry="0.5"/>
			
				<ellipse transform="matrix(0.8943 -0.4475 0.4475 0.8943 -112.3553 51.9001)" class="st10" cx="53.7" cy="263.8" rx="0.7" ry="0.7"/>
			
				<ellipse transform="matrix(0.8943 -0.4475 0.4475 0.8943 -111.2204 53.2587)" class="st10" cx="57.1" cy="262" rx="0.5" ry="0.5"/>
			
				<ellipse transform="matrix(0.8943 -0.4475 0.4475 0.8943 -110.6167 51.5004)" class="st10" cx="53.7" cy="259.9" rx="0.7" ry="0.7"/>
			
				<ellipse transform="matrix(0.8943 -0.4475 0.4475 0.8943 -111.7516 50.1418)" class="st10" cx="50.3" cy="261.6" rx="0.5" ry="0.5"/>
			
				<ellipse transform="matrix(0.8943 -0.4475 0.4475 0.8943 -109.638 49.6303)" class="st10" cx="50.2" cy="256.9" rx="0.7" ry="0.7"/>
			
				<ellipse transform="matrix(0.8943 -0.4475 0.4475 0.8943 -108.5031 50.9889)" class="st10" cx="53.7" cy="255.2" rx="0.5" ry="0.5"/>
			
				<ellipse transform="matrix(0.8943 -0.4475 0.4475 0.8943 -107.8995 49.2306)" class="st10" cx="50.3" cy="253" rx="0.7" ry="0.7"/>
			
				<ellipse transform="matrix(0.8943 -0.4475 0.4475 0.8943 -109.0344 47.872)" class="st10" cx="46.8" cy="254.7" rx="0.5" ry="0.5"/>
			
				<ellipse transform="matrix(0.8943 -0.4475 0.4475 0.8943 -107.3682 52.3476)" class="st10" cx="57.1" cy="253.4" rx="0.7" ry="0.7"/>
			
				<ellipse transform="matrix(0.8943 -0.4475 0.4475 0.8943 -106.2333 53.7062)" class="st10" cx="60.6" cy="251.7" rx="0.5" ry="0.5"/>
			
				<ellipse transform="matrix(0.8943 -0.4475 0.4475 0.8943 -105.6296 51.9479)" class="st10" cx="57.1" cy="249.6" rx="0.7" ry="0.7"/>
			
				<ellipse transform="matrix(0.8943 -0.4475 0.4475 0.8943 -106.7645 50.5893)" class="st10" cx="53.7" cy="251.3" rx="0.5" ry="0.5"/>
			
				<ellipse transform="matrix(0.8943 -0.4475 0.4475 0.8943 -104.4948 53.3066)" class="st10" cx="60.6" cy="247.8" rx="0.5" ry="0.5"/>
			
				<ellipse transform="matrix(0.8943 -0.4475 0.4475 0.8943 -107.8157 57.3347)" class="st10" cx="67.4" cy="256.9" rx="0.7" ry="0.7"/>
			
				<ellipse transform="matrix(0.8943 -0.4475 0.4475 0.8943 -107.212 55.5764)" class="st10" cx="64" cy="254.7" rx="0.5" ry="0.5"/>
			
				<ellipse transform="matrix(0.8943 -0.4475 0.4475 0.8943 -110.533 59.6045)" class="st10" cx="70.9" cy="263.8" rx="0.7" ry="0.7"/>
			
				<ellipse transform="matrix(0.8943 -0.4475 0.4475 0.8943 -108.7944 59.2048)" class="st10" cx="70.9" cy="259.9" rx="0.7" ry="0.7"/>
			
				<ellipse transform="matrix(0.8943 -0.4475 0.4475 0.8943 -109.9293 57.8462)" class="st10" cx="67.5" cy="261.6" rx="0.5" ry="0.5"/>
			
				<ellipse transform="matrix(0.8943 -0.4475 0.4475 0.8943 -107.1741 47.5722)" class="st10" cx="47.1" cy="250.6" rx="0.7" ry="0.7"/>
			
				<ellipse transform="matrix(0.8943 -0.4475 0.4475 0.8943 -106.0392 48.9308)" class="st10" cx="50.5" cy="248.9" rx="0.5" ry="0.5"/>
			
				<ellipse transform="matrix(0.8943 -0.4475 0.4475 0.8943 -105.4356 47.1725)" class="st10" cx="47.1" cy="246.8" rx="0.7" ry="0.7"/>
			
				<ellipse transform="matrix(0.8943 -0.4475 0.4475 0.8943 -106.5705 45.8139)" class="st10" cx="43.7" cy="248.5" rx="0.5" ry="0.5"/>
			
				<ellipse transform="matrix(0.8943 -0.4475 0.4475 0.8943 -104.9043 50.2895)" class="st10" cx="54" cy="247.2" rx="0.7" ry="0.7"/>
			
				<ellipse transform="matrix(0.8943 -0.4475 0.4475 0.8943 -104.3007 48.5312)" class="st10" cx="50.6" cy="245" rx="0.5" ry="0.5"/>
			
				<ellipse transform="matrix(0.8943 -0.4475 0.4475 0.8943 -104.4569 45.3024)" class="st10" cx="43.7" cy="243.7" rx="0.7" ry="0.7"/>
			<ellipse transform="matrix(0.8943 -0.4475 0.4475 0.8943 -103.322 46.661)" class="st10" cx="47.1" cy="242" rx="0.5" ry="0.5"/>
		</g>
	</g>
	<g>
		<g>
			<path class="st6" d="M63.6,119.9c9.5,19.6,19.9,38.7,31.2,57.2c5,8.2,9.9,16.7,15.9,24.3c4.4,5.6,10.2,10.6,17.8,10
				c1.6-0.1,1.6-2.6,0-2.5c-9.4,0.7-15.2-7.9-19.8-14.8c-5.4-8.1-10.6-16.4-15.6-24.8c-9.8-16.5-18.9-33.4-27.3-50.7
				C65.1,117.2,62.9,118.5,63.6,119.9L63.6,119.9z"/>
		</g>
	</g>
	<g>
		<defs>
			<path id="SVGID_5_" d="M16.5,99.6c3.1,10.9,33.5,13.4,36.4-5.7S13.4,88.7,16.5,99.6z"/>
		</defs>
		<clipPath id="SVGID_6_">
			<use xlink:href="#SVGID_5_"  style="overflow:visible;"/>
		</clipPath>
		<ellipse transform="matrix(0.961 -0.2767 0.2767 0.961 -29.0448 9.1933)" class="st11" cx="18.1" cy="107.5" rx="0.4" ry="0.4"/>
		<ellipse transform="matrix(0.961 -0.2767 0.2767 0.961 -28.2151 8.8223)" class="st11" cx="17.2" cy="104.4" rx="0.5" ry="0.5"/>
		<ellipse transform="matrix(0.961 -0.2767 0.2767 0.961 -27.4252 8.4691)" class="st11" cx="16.3" cy="101.4" rx="0.4" ry="0.4"/>
		<ellipse transform="matrix(0.961 -0.2767 0.2767 0.961 -27.5373 9.3708)" class="st11" cx="19.4" cy="102.3" rx="0.5" ry="0.5"/>
		<ellipse transform="matrix(0.961 -0.2767 0.2767 0.961 -28.3272 9.724)" class="st11" cx="20.3" cy="105.3" rx="0.4" ry="0.4"/>
		<ellipse transform="matrix(0.961 -0.2767 0.2767 0.961 -25.9576 8.6644)" class="st11" cx="17.7" cy="96.3" rx="0.5" ry="0.5"/>
		<ellipse transform="matrix(0.961 -0.2767 0.2767 0.961 -26.7475 9.0176)" class="st11" cx="18.6" cy="99.3" rx="0.4" ry="0.4"/>
		<ellipse transform="matrix(0.961 -0.2767 0.2767 0.961 -28.3943 10.6481)" class="st11" cx="23.5" cy="106" rx="0.4" ry="0.4"/>
		<ellipse transform="matrix(0.961 -0.2767 0.2767 0.961 -27.688 12.2278)" class="st11" cx="29.5" cy="104.2" rx="0.4" ry="0.4"/>
		<ellipse transform="matrix(0.961 -0.2767 0.2767 0.961 -27.7714 14.1607)" class="st11" cx="36.3" cy="105.5" rx="0.5" ry="0.5"/>
		<ellipse transform="matrix(0.961 -0.2767 0.2767 0.961 -26.9816 13.8075)" class="st11" cx="35.4" cy="102.5" rx="0.4" ry="0.4"/>
		<ellipse transform="matrix(0.961 -0.2767 0.2767 0.961 -27.0937 14.7092)" class="st11" cx="38.6" cy="103.4" rx="0.5" ry="0.5"/>
		<ellipse transform="matrix(0.961 -0.2767 0.2767 0.961 -27.1309 15.5931)" class="st11" cx="41.7" cy="103.9" rx="0.5" ry="0.5"/>
		<ellipse transform="matrix(0.961 -0.2767 0.2767 0.961 -26.3411 15.2399)" class="st11" cx="40.8" cy="101" rx="0.4" ry="0.4"/>
		<ellipse transform="matrix(0.961 -0.2767 0.2767 0.961 -26.4532 16.1415)" class="st11" cx="44" cy="101.8" rx="0.5" ry="0.5"/>
		<ellipse transform="matrix(0.961 -0.2767 0.2767 0.961 -26.4246 17.1728)" class="st11" cx="47.6" cy="102.2" rx="0.5" ry="0.5"/>
		<ellipse transform="matrix(0.961 -0.2767 0.2767 0.961 -25.6347 16.8196)" class="st11" cx="46.8" cy="99.3" rx="0.4" ry="0.4"/>
		<ellipse transform="matrix(0.961 -0.2767 0.2767 0.961 -25.7468 17.7212)" class="st11" cx="49.9" cy="100.1" rx="0.5" ry="0.5"/>
		<ellipse transform="matrix(0.961 -0.2767 0.2767 0.961 -25.7182 18.7525)" class="st11" cx="53.6" cy="100.5" rx="0.5" ry="0.5"/>
		<ellipse transform="matrix(0.961 -0.2767 0.2767 0.961 -24.9284 18.3993)" class="st11" cx="52.7" cy="97.5" rx="0.4" ry="0.4"/>
		<ellipse transform="matrix(0.961 -0.2767 0.2767 0.961 -25.0405 19.3009)" class="st11" cx="55.9" cy="98.4" rx="0.5" ry="0.5"/>
		<ellipse transform="matrix(0.961 -0.2767 0.2767 0.961 -25.1021 20.1302)" class="st11" cx="58.8" cy="99" rx="0.5" ry="0.5"/>
		<ellipse transform="matrix(0.961 -0.2767 0.2767 0.961 -24.3123 19.777)" class="st11" cx="57.9" cy="96" rx="0.4" ry="0.4"/>
		<ellipse transform="matrix(0.961 -0.2767 0.2767 0.961 -24.4244 20.6787)" class="st11" cx="61.1" cy="96.9" rx="0.5" ry="0.5"/>
		<ellipse transform="matrix(0.961 -0.2767 0.2767 0.961 -24.3958 21.7099)" class="st11" cx="64.7" cy="97.3" rx="0.5" ry="0.5"/>
		<ellipse transform="matrix(0.961 -0.2767 0.2767 0.961 -23.6059 21.3567)" class="st11" cx="63.9" cy="94.3" rx="0.4" ry="0.4"/>
		<ellipse transform="matrix(0.961 -0.2767 0.2767 0.961 -23.718 22.2584)" class="st11" cx="67" cy="95.2" rx="0.5" ry="0.5"/>
		<ellipse transform="matrix(0.961 -0.2767 0.2767 0.961 -23.6894 23.2896)" class="st11" cx="70.7" cy="95.6" rx="0.5" ry="0.5"/>
		<ellipse transform="matrix(0.961 -0.2767 0.2767 0.961 -22.8996 22.9364)" class="st11" cx="69.8" cy="92.6" rx="0.4" ry="0.4"/>
		<ellipse transform="matrix(0.961 -0.2767 0.2767 0.961 -23.0117 23.8381)" class="st11" cx="73" cy="93.5" rx="0.5" ry="0.5"/>
		<ellipse transform="matrix(0.961 -0.2767 0.2767 0.961 -23.0489 24.722)" class="st11" cx="76.1" cy="94" rx="0.5" ry="0.5"/>
		<ellipse transform="matrix(0.961 -0.2767 0.2767 0.961 -22.2591 24.3688)" class="st11" cx="75.2" cy="91.1" rx="0.4" ry="0.4"/>
		<ellipse transform="matrix(0.961 -0.2767 0.2767 0.961 -22.3712 25.2705)" class="st11" cx="78.4" cy="91.9" rx="0.5" ry="0.5"/>
		<ellipse transform="matrix(0.961 -0.2767 0.2767 0.961 -22.3425 26.3017)" class="st11" cx="82" cy="92.3" rx="0.5" ry="0.5"/>
		<ellipse transform="matrix(0.961 -0.2767 0.2767 0.961 -21.5527 25.9485)" class="st11" cx="81.2" cy="89.4" rx="0.4" ry="0.4"/>
		<ellipse transform="matrix(0.961 -0.2767 0.2767 0.961 -27.5646 10.2771)" class="st11" cx="22.6" cy="102.8" rx="0.5" ry="0.5"/>
		<ellipse transform="matrix(0.961 -0.2767 0.2767 0.961 -26.7747 9.9239)" class="st11" cx="21.8" cy="99.8" rx="0.4" ry="0.4"/>
		<ellipse transform="matrix(0.961 -0.2767 0.2767 0.961 -26.8868 10.8256)" class="st11" cx="24.9" cy="100.7" rx="0.5" ry="0.5"/>
		<ellipse transform="matrix(0.961 -0.2767 0.2767 0.961 -27.6767 11.1787)" class="st11" cx="25.8" cy="103.7" rx="0.4" ry="0.4"/>
		<ellipse transform="matrix(0.961 -0.2767 0.2767 0.961 -25.9849 9.5707)" class="st11" cx="20.9" cy="96.9" rx="0.5" ry="0.5"/>
		<ellipse transform="matrix(0.961 -0.2767 0.2767 0.961 -25.3071 10.1192)" class="st11" cx="23.2" cy="94.7" rx="0.5" ry="0.5"/>
		<ellipse transform="matrix(0.961 -0.2767 0.2767 0.961 -26.097 10.4724)" class="st11" cx="24.1" cy="97.7" rx="0.4" ry="0.4"/>
		<ellipse transform="matrix(0.961 -0.2767 0.2767 0.961 -25.2785 11.1504)" class="st11" cx="26.9" cy="95.2" rx="0.5" ry="0.5"/>
		<ellipse transform="matrix(0.961 -0.2767 0.2767 0.961 -24.4887 10.7972)" class="st11" cx="26" cy="92.2" rx="0.4" ry="0.4"/>
		<ellipse transform="matrix(0.961 -0.2767 0.2767 0.961 -24.6008 11.6989)" class="st11" cx="29.2" cy="93" rx="0.5" ry="0.5"/>
		<ellipse transform="matrix(0.961 -0.2767 0.2767 0.961 -25.3906 12.0521)" class="st11" cx="30" cy="96" rx="0.4" ry="0.4"/>
		<ellipse transform="matrix(0.961 -0.2767 0.2767 0.961 -26.8582 11.8568)" class="st11" cx="28.6" cy="101.1" rx="0.5" ry="0.5"/>
		<ellipse transform="matrix(0.961 -0.2767 0.2767 0.961 -26.0684 11.5036)" class="st11" cx="27.7" cy="98.1" rx="0.4" ry="0.4"/>
		<ellipse transform="matrix(0.961 -0.2767 0.2767 0.961 -26.1805 12.4053)" class="st11" cx="30.9" cy="99" rx="0.5" ry="0.5"/>
		<ellipse transform="matrix(0.961 -0.2767 0.2767 0.961 -26.9703 12.7584)" class="st11" cx="31.7" cy="102" rx="0.4" ry="0.4"/>
		<ellipse transform="matrix(0.961 -0.2767 0.2767 0.961 -26.1518 13.4365)" class="st11" cx="34.5" cy="99.4" rx="0.5" ry="0.5"/>
		<ellipse transform="matrix(0.961 -0.2767 0.2767 0.961 -25.362 13.0833)" class="st11" cx="33.7" cy="96.4" rx="0.4" ry="0.4"/>
		<ellipse transform="matrix(0.961 -0.2767 0.2767 0.961 -25.4741 13.985)" class="st11" cx="36.8" cy="97.3" rx="0.5" ry="0.5"/>
		<ellipse transform="matrix(0.961 -0.2767 0.2767 0.961 -26.2639 14.3381)" class="st11" cx="37.7" cy="100.2" rx="0.4" ry="0.4"/>
		<ellipse transform="matrix(0.961 -0.2767 0.2767 0.961 -24.5721 12.7301)" class="st11" cx="32.8" cy="93.4" rx="0.5" ry="0.5"/>
		<ellipse transform="matrix(0.961 -0.2767 0.2767 0.961 -23.7823 12.3769)" class="st11" cx="32" cy="90.5" rx="0.4" ry="0.4"/>
		<ellipse transform="matrix(0.961 -0.2767 0.2767 0.961 -23.8944 13.2786)" class="st11" cx="35.1" cy="91.3" rx="0.5" ry="0.5"/>
		<ellipse transform="matrix(0.961 -0.2767 0.2767 0.961 -24.6842 13.6318)" class="st11" cx="36" cy="94.3" rx="0.4" ry="0.4"/>
		<ellipse transform="matrix(0.961 -0.2767 0.2767 0.961 -22.9924 12.0237)" class="st11" cx="31.1" cy="87.5" rx="0.5" ry="0.5"/>
		<ellipse transform="matrix(0.961 -0.2767 0.2767 0.961 -22.3147 12.5722)" class="st11" cx="33.4" cy="85.4" rx="0.5" ry="0.5"/>
		<ellipse transform="matrix(0.961 -0.2767 0.2767 0.961 -23.1045 12.9254)" class="st11" cx="34.3" cy="88.3" rx="0.4" ry="0.4"/>
		<ellipse transform="matrix(0.961 -0.2767 0.2767 0.961 -23.8109 11.3457)" class="st11" cx="28.3" cy="90.1" rx="0.4" ry="0.4"/>
		<ellipse transform="matrix(0.961 -0.2767 0.2767 0.961 -24.5173 9.766)" class="st11" cx="22.4" cy="91.8" rx="0.4" ry="0.4"/>
		<ellipse transform="matrix(0.961 -0.2767 0.2767 0.961 -25.5113 14.8689)" class="st11" cx="39.9" cy="97.8" rx="0.5" ry="0.5"/>
		<ellipse transform="matrix(0.961 -0.2767 0.2767 0.961 -24.7215 14.5157)" class="st11" cx="39.1" cy="94.9" rx="0.4" ry="0.4"/>
		<ellipse transform="matrix(0.961 -0.2767 0.2767 0.961 -24.8336 15.4173)" class="st11" cx="42.2" cy="95.7" rx="0.5" ry="0.5"/>
		<ellipse transform="matrix(0.961 -0.2767 0.2767 0.961 -25.6234 15.7705)" class="st11" cx="43.1" cy="98.7" rx="0.4" ry="0.4"/>
		<ellipse transform="matrix(0.961 -0.2767 0.2767 0.961 -23.9317 14.1625)" class="st11" cx="38.2" cy="91.9" rx="0.5" ry="0.5"/>
		<ellipse transform="matrix(0.961 -0.2767 0.2767 0.961 -23.1418 13.8093)" class="st11" cx="37.4" cy="88.9" rx="0.4" ry="0.4"/>
		<ellipse transform="matrix(0.961 -0.2767 0.2767 0.961 -23.2539 14.711)" class="st11" cx="40.5" cy="89.8" rx="0.5" ry="0.5"/>
		<ellipse transform="matrix(0.961 -0.2767 0.2767 0.961 -24.0437 15.0641)" class="st11" cx="41.4" cy="92.7" rx="0.4" ry="0.4"/>
		<ellipse transform="matrix(0.961 -0.2767 0.2767 0.961 -23.2253 15.7422)" class="st11" cx="44.2" cy="90.2" rx="0.5" ry="0.5"/>
		<ellipse transform="matrix(0.961 -0.2767 0.2767 0.961 -22.4354 15.389)" class="st11" cx="43.3" cy="87.2" rx="0.4" ry="0.4"/>
		<ellipse transform="matrix(0.961 -0.2767 0.2767 0.961 -22.5475 16.2907)" class="st11" cx="46.5" cy="88.1" rx="0.5" ry="0.5"/>
		<ellipse transform="matrix(0.961 -0.2767 0.2767 0.961 -23.3374 16.6438)" class="st11" cx="47.3" cy="91" rx="0.4" ry="0.4"/>
		<ellipse transform="matrix(0.961 -0.2767 0.2767 0.961 -24.805 16.4486)" class="st11" cx="45.9" cy="96.1" rx="0.5" ry="0.5"/>
		<ellipse transform="matrix(0.961 -0.2767 0.2767 0.961 -24.0151 16.0954)" class="st11" cx="45" cy="93.2" rx="0.4" ry="0.4"/>
		<ellipse transform="matrix(0.961 -0.2767 0.2767 0.961 -24.1272 16.997)" class="st11" cx="48.2" cy="94" rx="0.5" ry="0.5"/>
		<ellipse transform="matrix(0.961 -0.2767 0.2767 0.961 -24.9171 17.3502)" class="st11" cx="49" cy="97" rx="0.4" ry="0.4"/>
		<ellipse transform="matrix(0.961 -0.2767 0.2767 0.961 -24.0986 18.0283)" class="st11" cx="51.8" cy="94.4" rx="0.5" ry="0.5"/>
		<ellipse transform="matrix(0.961 -0.2767 0.2767 0.961 -23.3088 17.6751)" class="st11" cx="51" cy="91.4" rx="0.4" ry="0.4"/>
		<ellipse transform="matrix(0.961 -0.2767 0.2767 0.961 -23.4209 18.5767)" class="st11" cx="54.1" cy="92.3" rx="0.5" ry="0.5"/>
		<ellipse transform="matrix(0.961 -0.2767 0.2767 0.961 -24.2107 18.9299)" class="st11" cx="55" cy="95.3" rx="0.4" ry="0.4"/>
		<ellipse transform="matrix(0.961 -0.2767 0.2767 0.961 -22.5189 17.3219)" class="st11" cx="50.1" cy="88.5" rx="0.5" ry="0.5"/>
		<ellipse transform="matrix(0.961 -0.2767 0.2767 0.961 -21.7291 16.9687)" class="st11" cx="49.3" cy="85.5" rx="0.4" ry="0.4"/>
		<ellipse transform="matrix(0.961 -0.2767 0.2767 0.961 -21.8412 17.8704)" class="st11" cx="52.4" cy="86.3" rx="0.5" ry="0.5"/>
		<ellipse transform="matrix(0.961 -0.2767 0.2767 0.961 -22.631 18.2235)" class="st11" cx="53.3" cy="89.3" rx="0.4" ry="0.4"/>
		<ellipse transform="matrix(0.961 -0.2767 0.2767 0.961 -20.9392 16.6155)" class="st11" cx="48.4" cy="82.5" rx="0.5" ry="0.5"/>
		<ellipse transform="matrix(0.961 -0.2767 0.2767 0.961 -20.2615 17.164)" class="st11" cx="50.7" cy="80.4" rx="0.5" ry="0.5"/>
		<ellipse transform="matrix(0.961 -0.2767 0.2767 0.961 -21.0513 17.5172)" class="st11" cx="51.6" cy="83.4" rx="0.4" ry="0.4"/>
		<ellipse transform="matrix(0.961 -0.2767 0.2767 0.961 -21.6456 15.0358)" class="st11" cx="42.5" cy="84.2" rx="0.5" ry="0.5"/>
		<ellipse transform="matrix(0.961 -0.2767 0.2767 0.961 -20.9678 15.5843)" class="st11" cx="44.7" cy="82.1" rx="0.5" ry="0.5"/>
		<ellipse transform="matrix(0.961 -0.2767 0.2767 0.961 -21.7577 15.9375)" class="st11" cx="45.6" cy="85.1" rx="0.4" ry="0.4"/>
		<ellipse transform="matrix(0.961 -0.2767 0.2767 0.961 -22.352 13.4561)" class="st11" cx="36.5" cy="85.9" rx="0.5" ry="0.5"/>
		<ellipse transform="matrix(0.961 -0.2767 0.2767 0.961 -21.6742 14.0046)" class="st11" cx="38.8" cy="83.8" rx="0.5" ry="0.5"/>
		<ellipse transform="matrix(0.961 -0.2767 0.2767 0.961 -22.464 14.3578)" class="st11" cx="39.7" cy="86.8" rx="0.4" ry="0.4"/>
		<ellipse transform="matrix(0.961 -0.2767 0.2767 0.961 -23.4825 19.406)" class="st11" cx="57" cy="92.9" rx="0.5" ry="0.5"/>
		<ellipse transform="matrix(0.961 -0.2767 0.2767 0.961 -22.6927 19.0528)" class="st11" cx="56.2" cy="89.9" rx="0.4" ry="0.4"/>
		<ellipse transform="matrix(0.961 -0.2767 0.2767 0.961 -22.8048 19.9545)" class="st11" cx="59.3" cy="90.8" rx="0.5" ry="0.5"/>
		<ellipse transform="matrix(0.961 -0.2767 0.2767 0.961 -23.5946 20.3077)" class="st11" cx="60.2" cy="93.8" rx="0.4" ry="0.4"/>
		<ellipse transform="matrix(0.961 -0.2767 0.2767 0.961 -21.9028 18.6996)" class="st11" cx="55.3" cy="87" rx="0.5" ry="0.5"/>
		<ellipse transform="matrix(0.961 -0.2767 0.2767 0.961 -21.113 18.3465)" class="st11" cx="54.5" cy="84" rx="0.4" ry="0.4"/>
		<ellipse transform="matrix(0.961 -0.2767 0.2767 0.961 -21.2251 19.2481)" class="st11" cx="57.6" cy="84.8" rx="0.5" ry="0.5"/>
		<ellipse transform="matrix(0.961 -0.2767 0.2767 0.961 -22.0149 19.6013)" class="st11" cx="58.5" cy="87.8" rx="0.4" ry="0.4"/>
		<ellipse transform="matrix(0.961 -0.2767 0.2767 0.961 -21.1965 20.2793)" class="st11" cx="61.3" cy="85.3" rx="0.5" ry="0.5"/>
		<ellipse transform="matrix(0.961 -0.2767 0.2767 0.961 -20.4066 19.9262)" class="st11" cx="60.4" cy="82.3" rx="0.4" ry="0.4"/>
		<ellipse transform="matrix(0.961 -0.2767 0.2767 0.961 -20.5187 20.8278)" class="st11" cx="63.6" cy="83.1" rx="0.5" ry="0.5"/>
		<ellipse transform="matrix(0.961 -0.2767 0.2767 0.961 -21.3086 21.181)" class="st11" cx="64.4" cy="86.1" rx="0.4" ry="0.4"/>
		<ellipse transform="matrix(0.961 -0.2767 0.2767 0.961 -22.7762 20.9857)" class="st11" cx="63" cy="91.2" rx="0.5" ry="0.5"/>
		<ellipse transform="matrix(0.961 -0.2767 0.2767 0.961 -21.9863 20.6325)" class="st11" cx="62.1" cy="88.2" rx="0.4" ry="0.4"/>
		<ellipse transform="matrix(0.961 -0.2767 0.2767 0.961 -22.0984 21.5342)" class="st11" cx="65.3" cy="89.1" rx="0.5" ry="0.5"/>
		<ellipse transform="matrix(0.961 -0.2767 0.2767 0.961 -22.8883 21.8874)" class="st11" cx="66.1" cy="92.1" rx="0.4" ry="0.4"/>
		<ellipse transform="matrix(0.961 -0.2767 0.2767 0.961 -22.0698 22.5654)" class="st11" cx="68.9" cy="89.5" rx="0.5" ry="0.5"/>
		<ellipse transform="matrix(0.961 -0.2767 0.2767 0.961 -21.28 22.2122)" class="st11" cx="68.1" cy="86.5" rx="0.4" ry="0.4"/>
		<ellipse transform="matrix(0.961 -0.2767 0.2767 0.961 -21.3921 23.1139)" class="st11" cx="71.2" cy="87.4" rx="0.5" ry="0.5"/>
		<ellipse transform="matrix(0.961 -0.2767 0.2767 0.961 -22.1819 23.4671)" class="st11" cx="72.1" cy="90.3" rx="0.4" ry="0.4"/>
		<ellipse transform="matrix(0.961 -0.2767 0.2767 0.961 -20.4901 21.859)" class="st11" cx="67.2" cy="83.5" rx="0.5" ry="0.5"/>
		<ellipse transform="matrix(0.961 -0.2767 0.2767 0.961 -19.7003 21.5059)" class="st11" cx="66.4" cy="80.6" rx="0.4" ry="0.4"/>
		<ellipse transform="matrix(0.961 -0.2767 0.2767 0.961 -19.8124 22.4075)" class="st11" cx="69.5" cy="81.4" rx="0.5" ry="0.5"/>
		<ellipse transform="matrix(0.961 -0.2767 0.2767 0.961 -20.6022 22.7607)" class="st11" cx="70.4" cy="84.4" rx="0.4" ry="0.4"/>
		<ellipse transform="matrix(0.961 -0.2767 0.2767 0.961 -19.0225 22.0543)" class="st11" cx="68.6" cy="78.4" rx="0.4" ry="0.4"/>
		<ellipse transform="matrix(0.961 -0.2767 0.2767 0.961 -19.6168 19.573)" class="st11" cx="59.6" cy="79.3" rx="0.5" ry="0.5"/>
		<ellipse transform="matrix(0.961 -0.2767 0.2767 0.961 -19.7289 20.4746)" class="st11" cx="62.7" cy="80.2" rx="0.4" ry="0.4"/>
		<ellipse transform="matrix(0.961 -0.2767 0.2767 0.961 -20.3232 17.9933)" class="st11" cx="53.6" cy="81" rx="0.5" ry="0.5"/>
		<ellipse transform="matrix(0.961 -0.2767 0.2767 0.961 -19.6454 18.5417)" class="st11" cx="55.9" cy="78.9" rx="0.5" ry="0.5"/>
		<ellipse transform="matrix(0.961 -0.2767 0.2767 0.961 -20.4352 18.8949)" class="st11" cx="56.7" cy="81.9" rx="0.4" ry="0.4"/>
		<ellipse transform="matrix(0.961 -0.2767 0.2767 0.961 -21.4293 23.9978)" class="st11" cx="74.3" cy="87.9" rx="0.5" ry="0.5"/>
		<ellipse transform="matrix(0.961 -0.2767 0.2767 0.961 -20.6395 23.6446)" class="st11" cx="73.5" cy="85" rx="0.4" ry="0.4"/>
		<ellipse transform="matrix(0.961 -0.2767 0.2767 0.961 -20.7516 24.5462)" class="st11" cx="76.6" cy="85.8" rx="0.5" ry="0.5"/>
		<ellipse transform="matrix(0.961 -0.2767 0.2767 0.961 -21.5414 24.8994)" class="st11" cx="77.5" cy="88.8" rx="0.4" ry="0.4"/>
		<ellipse transform="matrix(0.961 -0.2767 0.2767 0.961 -19.8496 23.2914)" class="st11" cx="72.6" cy="82" rx="0.5" ry="0.5"/>
		<ellipse transform="matrix(0.961 -0.2767 0.2767 0.961 -19.9617 24.1931)" class="st11" cx="75.8" cy="82.8" rx="0.4" ry="0.4"/>
		<ellipse transform="matrix(0.961 -0.2767 0.2767 0.961 -20.7229 25.5775)" class="st11" cx="80.3" cy="86.2" rx="0.5" ry="0.5"/>
		<ellipse transform="matrix(0.961 -0.2767 0.2767 0.961 -19.9331 25.2243)" class="st11" cx="79.4" cy="83.3" rx="0.4" ry="0.4"/>
	</g>
</g>
</svg>
