<svg xmlns="http://www.w3.org/2000/svg" xmlns:xlink="http://www.w3.org/1999/xlink" x="0px" y="0px"
	 viewBox="0 0 310 480" style="enable-background:new 0 0 310 480;" width="301px">
<style type="text/css">
	.st0{fill:#D5DDE0;}
	.st1{opacity:0.52;}
	.st2{fill:#D6414F;}
	.st3{fill:#E19B78;}
	.st4{fill:#BA6F5D;}
	.st5{fill:#E5A78F;}
	.st6{fill:#B77355;}
	.st7{fill:#C17A6C;}
	.st8{fill:#D88F6F;}
	.st9{clip-path:url(#SVGID_2_);fill:#B77358;}
	.st10{clip-path:url(#SVGID_4_);fill:#B77358;}
	.st11{clip-path:url(#SVGID_6_);fill:#B77358;}
</style>
<g>
	<path class="st0" d="M118.1,68.9c0,0-20.2,93.9-13.6,122.4l15,32.2l9.1-141.9L118.1,68.9z"/>
	<path class="st0" d="M53.3,264.9H32.6c0,0-1.2-110-20.9-141.1l24.7-6.9L53.3,264.9z"/>
	<g>
		<g class="st1">
			<path class="st2" d="M99.1,176.8c1.5,7.6,5.4,14.5,9.2,21.2c13.8,24.4,27.7,48.8,41.5,73.2"/>
		</g>
		<path class="st3" d="M122.3,116.9c0,0-19.5,71-9.9,88.8l16.2,26L122.3,116.9z"/>
		<path class="st4" d="M16.5,264.9l27.1,33.5c0,0,10.7-1.8,13.4-10.1s-3.7-23.4-3.7-23.4H16.5z"/>
		<path class="st3" d="M118.2,12.9c0-5.9,19-8.7,22.4-7.6c13.8,4.5,21.5,21.7,28.9,32.8c16.6,26.6,34.3,55.2,57.4,76.6
			c6.9,6.4,8,22.4,9.7,31c4,19.8,6.8,39.9,9.7,59.9c5.7,39.1,12,78.1,21.8,116.4c7,27.4,32.8,92.6,32.8,92.6
			c-12,33.8-95.9,63-96,63.1c-2.6,1.7-24.8-11.1-28.4-12.8c-24.3-11.8-48.2-26.3-68.7-43.9c-24.6-21.2-41.3-47.6-48.8-79.2
			c-8.2-34.9-7.8-71.3-16.9-106c-6.5-24.6-9.9-46.2-18.3-70.2c-7.4-21.3-16.7-49.3-14.5-73.1c1.4-14.8,9.1-27.4,21.8-29.8
			c15.4-2.9,27.6,8.4,34.3,21.2c17.6,33.6,27.2,75.3,41.8,113.4c1.9,5,10.7,13.4,10.7,18.8C117.9,215.8,118.2,14.1,118.2,12.9z"/>
		<path class="st5" d="M57.5,91.1c0,0-4.4-16.3-11.8-22.1s-21,0-21,0s-10.1,6-9.5,18.4c0.6,12.4,3.2,18.4,3.2,18.4s9,2.6,13.9,2
			S50,105.8,57.5,91.1z"/>
		<g>
			<g>
				<path class="st6" d="M53.4,102.2c-6.7,7.1-16.7,7.3-25.8,7.3c-1.6,0-1.6,2.5,0,2.5c9.8,0,20.5-0.5,27.6-8
					C56.2,102.8,54.5,101.1,53.4,102.2L53.4,102.2z"/>
			</g>
		</g>
		<g>
			<g>
				<path class="st6" d="M68.2,147.9c-5,4.5-11.5,6.6-18.2,5.6c-1.6-0.2-2.3,2.2-0.7,2.4c7.6,1.1,14.9-1.1,20.7-6.3
					C71.2,148.6,69.4,146.8,68.2,147.9L68.2,147.9z"/>
			</g>
		</g>
		<path class="st7" d="M21.6,271.2h14.8c0,0,6.8,7.1,7.2,27.2L21.6,271.2z"/>
		<path class="st8" d="M119.1,63.6c0,0,21.9,36,20.6,59.1s-10.9,69.1-6.4,90.3s23.6,74.5,23.6,74.5s-42.3-79.2-46.2-86.7
			C106.8,193.2,119.2,68.2,119.1,63.6z"/>
		<g>
			<g>
				<path class="st6" d="M131.7,118.9c-4.1,12.4-10.9,23.3-13.1,36.4c-2.1,12.5-1.7,25.3-1.3,37.9c0.1,1.6,2.6,1.6,2.5,0
					c-0.4-13-0.9-26.2,1.5-39c2.3-12.3,8.9-22.8,12.8-34.6C134.6,118.1,132.2,117.4,131.7,118.9L131.7,118.9z"/>
			</g>
		</g>
		<g>
			<g>
				<path class="st6" d="M137.9,181.6c-5.7,5.9-16.7,7.5-17.2,17.3c-0.1,1.6,2.4,1.6,2.5,0c0.5-8.3,11.5-10.4,16.5-15.5
					C140.7,182.2,139,180.4,137.9,181.6L137.9,181.6z"/>
			</g>
		</g>
		<g>
			<g>
				<path class="st6" d="M119,61.6c5.7-6.7,10.4-14.1,14.3-22c0.7-1.4-1.5-2.7-2.2-1.3c-3.7,7.7-8.3,14.9-13.9,21.5
					C116.2,61.1,118,62.8,119,61.6L119,61.6z"/>
			</g>
		</g>
		<g>
			<g>
				<path class="st6" d="M185.2,67c19.5,26.5,39.6,54.3,45.4,87.4c0.3,1.6,2.7,0.9,2.4-0.7c-5.8-33.4-26-61.4-45.6-88
					C186.4,64.4,184.2,65.7,185.2,67L185.2,67z"/>
			</g>
		</g>
		<g>
			<defs>
				<path id="SVGID_1_" d="M119.3,112.6c0,0,52,80.5,32.2,151.1c-7.5,26.8-43-63.2-43-63.2S109.7,176,119.3,112.6z"/>
			</defs>
			<clipPath id="SVGID_2_">
				<use xlink:href="#SVGID_1_"  style="overflow:visible;"/>
			</clipPath>
			<circle class="st9" cx="148.1" cy="139" r="0.7"/>
			<circle class="st9" cx="142.4" cy="139" r="1"/>
			<circle class="st9" cx="136.9" cy="139" r="0.7"/>
			<circle class="st9" cx="139.8" cy="143.9" r="1"/>
			<circle class="st9" cx="145.3" cy="143.9" r="0.7"/>
			<circle class="st9" cx="128.9" cy="143.9" r="1"/>
			<circle class="st9" cx="134.4" cy="143.9" r="0.7"/>
			<circle class="st9" cx="148.1" cy="149.1" r="0.7"/>
			<circle class="st9" cx="148.1" cy="160.1" r="0.7"/>
			<circle class="st9" cx="153.6" cy="171" r="1"/>
			<circle class="st9" cx="148.1" cy="171" r="0.7"/>
			<circle class="st9" cx="151.1" cy="176" r="1"/>
			<circle class="st9" cx="153.6" cy="181" r="1"/>
			<circle class="st9" cx="148.1" cy="181" r="0.7"/>
			<circle class="st9" cx="151.1" cy="185.9" r="1"/>
			<circle class="st9" cx="153.6" cy="191.9" r="1"/>
			<circle class="st9" cx="148.1" cy="191.9" r="0.7"/>
			<circle class="st9" cx="151.1" cy="196.9" r="1"/>
			<circle class="st9" cx="153.6" cy="202.9" r="1"/>
			<circle class="st9" cx="148.1" cy="202.9" r="0.7"/>
			<circle class="st9" cx="151.1" cy="207.8" r="1"/>
			<circle class="st9" cx="153.6" cy="212.5" r="1"/>
			<circle class="st9" cx="148.1" cy="212.5" r="0.7"/>
			<circle class="st9" cx="151.1" cy="217.4" r="1"/>
			<circle class="st9" cx="153.6" cy="223.5" r="1"/>
			<circle class="st9" cx="148.1" cy="223.5" r="0.7"/>
			<circle class="st9" cx="151.1" cy="228.4" r="1"/>
			<circle class="st9" cx="153.6" cy="234.4" r="1"/>
			<circle class="st9" cx="148.1" cy="234.4" r="0.7"/>
			<circle class="st9" cx="151.1" cy="239.3" r="1"/>
			<circle class="st9" cx="153.6" cy="244.4" r="1"/>
			<circle class="st9" cx="148.1" cy="244.4" r="0.7"/>
			<circle class="st9" cx="151.1" cy="249.3" r="1"/>
			<circle class="st9" cx="153.6" cy="255.3" r="1"/>
			<circle class="st9" cx="148.1" cy="255.3" r="0.7"/>
			<circle class="st9" cx="142.4" cy="149.1" r="1"/>
			<circle class="st9" cx="136.9" cy="149.1" r="0.7"/>
			<circle class="st9" cx="139.8" cy="154" r="1"/>
			<circle class="st9" cx="145.3" cy="154" r="0.7"/>
			<circle class="st9" cx="131.4" cy="149.1" r="1"/>
			<circle class="st9" cx="128.9" cy="154" r="1"/>
			<circle class="st9" cx="134.4" cy="154" r="0.7"/>
			<circle class="st9" cx="131.4" cy="160.1" r="1"/>
			<circle class="st9" cx="125.9" cy="160.1" r="0.7"/>
			<circle class="st9" cx="128.9" cy="165" r="1"/>
			<circle class="st9" cx="134.4" cy="165" r="0.7"/>
			<circle class="st9" cx="142.4" cy="160.1" r="1"/>
			<circle class="st9" cx="136.9" cy="160.1" r="0.7"/>
			<circle class="st9" cx="139.8" cy="165" r="1"/>
			<circle class="st9" cx="145.3" cy="165" r="0.7"/>
			<circle class="st9" cx="142.4" cy="171" r="1"/>
			<circle class="st9" cx="136.9" cy="171" r="0.7"/>
			<circle class="st9" cx="139.8" cy="176" r="1"/>
			<circle class="st9" cx="145.3" cy="176" r="0.7"/>
			<circle class="st9" cx="131.4" cy="171" r="1"/>
			<circle class="st9" cx="125.9" cy="171" r="0.7"/>
			<circle class="st9" cx="128.9" cy="176" r="1"/>
			<circle class="st9" cx="134.4" cy="176" r="0.7"/>
			<circle class="st9" cx="120.4" cy="171" r="1"/>
			<circle class="st9" cx="117.9" cy="176" r="1"/>
			<circle class="st9" cx="123.4" cy="176" r="0.7"/>
			<circle class="st9" cx="123.4" cy="165" r="0.7"/>
			<circle class="st9" cx="123.4" cy="154" r="0.7"/>
			<circle class="st9" cx="142.4" cy="181" r="1"/>
			<circle class="st9" cx="136.9" cy="181" r="0.7"/>
			<circle class="st9" cx="139.8" cy="185.9" r="1"/>
			<circle class="st9" cx="145.3" cy="185.9" r="0.7"/>
			<circle class="st9" cx="131.4" cy="181" r="1"/>
			<circle class="st9" cx="125.9" cy="181" r="0.7"/>
			<circle class="st9" cx="128.9" cy="185.9" r="1"/>
			<circle class="st9" cx="134.4" cy="185.9" r="0.7"/>
			<circle class="st9" cx="131.4" cy="191.9" r="1"/>
			<circle class="st9" cx="125.9" cy="191.9" r="0.7"/>
			<circle class="st9" cx="128.9" cy="196.9" r="1"/>
			<circle class="st9" cx="134.4" cy="196.9" r="0.7"/>
			<circle class="st9" cx="142.4" cy="191.9" r="1"/>
			<circle class="st9" cx="136.9" cy="191.9" r="0.7"/>
			<circle class="st9" cx="139.8" cy="196.9" r="1"/>
			<circle class="st9" cx="145.3" cy="196.9" r="0.7"/>
			<circle class="st9" cx="142.4" cy="202.9" r="1"/>
			<circle class="st9" cx="136.9" cy="202.9" r="0.7"/>
			<circle class="st9" cx="139.8" cy="207.8" r="1"/>
			<circle class="st9" cx="145.3" cy="207.8" r="0.7"/>
			<circle class="st9" cx="131.4" cy="202.9" r="1"/>
			<circle class="st9" cx="125.9" cy="202.9" r="0.7"/>
			<circle class="st9" cx="128.9" cy="207.8" r="1"/>
			<circle class="st9" cx="134.4" cy="207.8" r="0.7"/>
			<circle class="st9" cx="120.4" cy="202.9" r="1"/>
			<circle class="st9" cx="117.9" cy="207.8" r="1"/>
			<circle class="st9" cx="123.4" cy="207.8" r="0.7"/>
			<circle class="st9" cx="120.4" cy="191.9" r="1"/>
			<circle class="st9" cx="117.9" cy="196.9" r="1"/>
			<circle class="st9" cx="123.4" cy="196.9" r="0.7"/>
			<circle class="st9" cx="120.4" cy="181" r="1"/>
			<circle class="st9" cx="117.9" cy="185.9" r="1"/>
			<circle class="st9" cx="123.4" cy="185.9" r="0.7"/>
			<circle class="st9" cx="142.4" cy="212.5" r="1"/>
			<circle class="st9" cx="136.9" cy="212.5" r="0.7"/>
			<circle class="st9" cx="139.8" cy="217.4" r="1"/>
			<circle class="st9" cx="145.3" cy="217.4" r="0.7"/>
			<circle class="st9" cx="131.4" cy="212.5" r="1"/>
			<circle class="st9" cx="125.9" cy="212.5" r="0.7"/>
			<circle class="st9" cx="128.9" cy="217.4" r="1"/>
			<circle class="st9" cx="134.4" cy="217.4" r="0.7"/>
			<circle class="st9" cx="131.4" cy="223.5" r="1"/>
			<circle class="st9" cx="125.9" cy="223.5" r="0.7"/>
			<circle class="st9" cx="128.9" cy="228.4" r="1"/>
			<circle class="st9" cx="134.4" cy="228.4" r="0.7"/>
			<circle class="st9" cx="142.4" cy="223.5" r="1"/>
			<circle class="st9" cx="136.9" cy="223.5" r="0.7"/>
			<circle class="st9" cx="139.8" cy="228.4" r="1"/>
			<circle class="st9" cx="145.3" cy="228.4" r="0.7"/>
			<circle class="st9" cx="142.4" cy="234.4" r="1"/>
			<circle class="st9" cx="136.9" cy="234.4" r="0.7"/>
			<circle class="st9" cx="139.8" cy="239.3" r="1"/>
			<circle class="st9" cx="145.3" cy="239.3" r="0.7"/>
			<circle class="st9" cx="131.4" cy="234.4" r="1"/>
			<circle class="st9" cx="125.9" cy="234.4" r="0.7"/>
			<circle class="st9" cx="128.9" cy="239.3" r="1"/>
			<circle class="st9" cx="134.4" cy="239.3" r="0.7"/>
			<circle class="st9" cx="123.4" cy="239.3" r="0.7"/>
			<circle class="st9" cx="120.4" cy="223.5" r="1"/>
			<circle class="st9" cx="123.4" cy="228.4" r="0.7"/>
			<circle class="st9" cx="120.4" cy="212.5" r="1"/>
			<circle class="st9" cx="117.9" cy="217.4" r="1"/>
			<circle class="st9" cx="123.4" cy="217.4" r="0.7"/>
			<circle class="st9" cx="142.4" cy="244.4" r="1"/>
			<circle class="st9" cx="136.9" cy="244.4" r="0.7"/>
			<circle class="st9" cx="139.8" cy="249.3" r="1"/>
			<circle class="st9" cx="145.3" cy="249.3" r="0.7"/>
			<circle class="st9" cx="131.4" cy="244.4" r="1"/>
			<circle class="st9" cx="134.4" cy="249.3" r="0.7"/>
			<circle class="st9" cx="142.4" cy="255.3" r="1"/>
			<circle class="st9" cx="136.9" cy="255.3" r="0.7"/>
		</g>
		<g>
			<defs>
				<path id="SVGID_3_" d="M151.5,467.4c0,0-82.6-48.8-96.4-120.7c-5.2-27.3,66.8,37.2,66.8,37.2S131.8,406.4,151.5,467.4z"/>
			</defs>
			<clipPath id="SVGID_4_">
				<use xlink:href="#SVGID_3_"  style="overflow:visible;"/>
			</clipPath>
			
				<ellipse transform="matrix(0.8943 -0.4475 0.4475 0.8943 -192.3159 99.2414)" class="st10" cx="113.9" cy="456.7" rx="0.7" ry="0.7"/>
			
				<ellipse transform="matrix(0.8943 -0.4475 0.4475 0.8943 -190.6177 101.2745)" class="st10" cx="119.1" cy="454.1" rx="1" ry="1"/>
			
				<ellipse transform="matrix(0.8943 -0.4475 0.4475 0.8943 -189.0011 103.2098)" class="st10" cx="124" cy="451.7" rx="0.7" ry="0.7"/>
			
				<ellipse transform="matrix(0.8943 -0.4475 0.4475 0.8943 -188.1412 100.7052)" class="st10" cx="119.1" cy="448.6" rx="1" ry="1"/>
			
				<ellipse transform="matrix(0.8943 -0.4475 0.4475 0.8943 -189.7578 98.7699)" class="st10" cx="114.2" cy="451" rx="0.7" ry="0.7"/>
			
				<ellipse transform="matrix(0.8943 -0.4475 0.4475 0.8943 -184.908 104.5758)" class="st10" cx="128.9" cy="443.7" rx="1" ry="1"/>
			
				<ellipse transform="matrix(0.8943 -0.4475 0.4475 0.8943 -186.5246 102.6405)" class="st10" cx="124" cy="446.1" rx="0.7" ry="0.7"/>
			
				<ellipse transform="matrix(0.8943 -0.4475 0.4475 0.8943 -188.7514 96.2639)" class="st10" cx="109.4" cy="447.7" rx="0.7" ry="0.7"/>
			
				<ellipse transform="matrix(0.8943 -0.4475 0.4475 0.8943 -184.8808 93.0307)" class="st10" cx="104.5" cy="437.8" rx="0.7" ry="0.7"/>
			<ellipse transform="matrix(0.8943 -0.4475 0.4475 0.8943 -182.6268 87.8622)" class="st10" cx="94.7" cy="430.5" rx="1" ry="1"/>
			
				<ellipse transform="matrix(0.8943 -0.4475 0.4475 0.8943 -181.0102 89.7975)" class="st10" cx="99.6" cy="428" rx="0.7" ry="0.7"/>
			<ellipse transform="matrix(0.8943 -0.4475 0.4475 0.8943 -180.1503 87.2929)" class="st10" cx="94.7" cy="425" rx="1" ry="1"/>
			<ellipse transform="matrix(0.8943 -0.4475 0.4475 0.8943 -179.1171 84.9305)" class="st10" cx="90.2" cy="421.6" rx="1" ry="1"/>
			
				<ellipse transform="matrix(0.8943 -0.4475 0.4475 0.8943 -177.5005 86.8658)" class="st10" cx="95.1" cy="419.1" rx="0.7" ry="0.7"/>
			<ellipse transform="matrix(0.8943 -0.4475 0.4475 0.8943 -176.6406 84.3612)" class="st10" cx="90.2" cy="416.1" rx="1" ry="1"/>
			<ellipse transform="matrix(0.8943 -0.4475 0.4475 0.8943 -175.2465 81.6973)" class="st10" cx="85.3" cy="411.8" rx="1" ry="1"/>
			
				<ellipse transform="matrix(0.8943 -0.4475 0.4475 0.8943 -173.6299 83.6326)" class="st10" cx="90.2" cy="409.3" rx="0.7" ry="0.7"/>
			<ellipse transform="matrix(0.8943 -0.4475 0.4475 0.8943 -172.77 81.128)" class="st10" cx="85.3" cy="406.3" rx="1" ry="1"/>
			<ellipse transform="matrix(0.8943 -0.4475 0.4475 0.8943 -171.3759 78.4641)" class="st10" cx="80.4" cy="402" rx="1" ry="1"/>
			
				<ellipse transform="matrix(0.8943 -0.4475 0.4475 0.8943 -169.7593 80.3994)" class="st10" cx="85.3" cy="399.5" rx="0.7" ry="0.7"/>
			<ellipse transform="matrix(0.8943 -0.4475 0.4475 0.8943 -168.8994 77.8948)" class="st10" cx="80.4" cy="396.4" rx="1" ry="1"/>
			<ellipse transform="matrix(0.8943 -0.4475 0.4475 0.8943 -168.0001 75.6442)" class="st10" cx="76.1" cy="393.4" rx="1" ry="1"/>
			<ellipse transform="matrix(0.8943 -0.4475 0.4475 0.8943 -166.3835 77.5795)" class="st10" cx="81" cy="391" rx="0.7" ry="0.7"/>
			<ellipse transform="matrix(0.8943 -0.4475 0.4475 0.8943 -165.5236 75.0749)" class="st10" cx="76.1" cy="387.9" rx="1" ry="1"/>
			<ellipse transform="matrix(0.8943 -0.4475 0.4475 0.8943 -164.1295 72.411)" class="st10" cx="71.2" cy="383.6" rx="1" ry="1"/>
			
				<ellipse transform="matrix(0.8943 -0.4475 0.4475 0.8943 -162.5129 74.3463)" class="st10" cx="76.1" cy="381.2" rx="0.7" ry="0.7"/>
			<ellipse transform="matrix(0.8943 -0.4475 0.4475 0.8943 -161.653 71.8417)" class="st10" cx="71.2" cy="378.1" rx="1" ry="1"/>
			<ellipse transform="matrix(0.8943 -0.4475 0.4475 0.8943 -160.2589 69.1778)" class="st10" cx="66.3" cy="373.8" rx="1" ry="1"/>
			
				<ellipse transform="matrix(0.8943 -0.4475 0.4475 0.8943 -158.6423 71.1131)" class="st10" cx="71.2" cy="371.3" rx="0.7" ry="0.7"/>
			<ellipse transform="matrix(0.8943 -0.4475 0.4475 0.8943 -157.7824 68.6085)" class="st10" cx="66.3" cy="368.3" rx="1" ry="1"/>
			<ellipse transform="matrix(0.8943 -0.4475 0.4475 0.8943 -156.7492 66.2461)" class="st10" cx="61.8" cy="364.9" rx="1" ry="1"/>
			
				<ellipse transform="matrix(0.8943 -0.4475 0.4475 0.8943 -155.1326 68.1814)" class="st10" cx="66.8" cy="362.5" rx="0.7" ry="0.7"/>
			<ellipse transform="matrix(0.8943 -0.4475 0.4475 0.8943 -154.2727 65.6769)" class="st10" cx="61.9" cy="359.4" rx="1" ry="1"/>
			<ellipse transform="matrix(0.8943 -0.4475 0.4475 0.8943 -152.8786 63.0129)" class="st10" cx="56.9" cy="355.1" rx="1" ry="1"/>
			
				<ellipse transform="matrix(0.8943 -0.4475 0.4475 0.8943 -151.262 64.9482)" class="st10" cx="61.8" cy="352.6" rx="0.7" ry="0.7"/>
			<ellipse transform="matrix(0.8943 -0.4475 0.4475 0.8943 -187.0531 98.297)" class="st10" cx="114.5" cy="445.1" rx="1" ry="1"/>
			
				<ellipse transform="matrix(0.8943 -0.4475 0.4475 0.8943 -185.4365 100.2323)" class="st10" cx="119.4" cy="442.6" rx="0.7" ry="0.7"/>
			
				<ellipse transform="matrix(0.8943 -0.4475 0.4475 0.8943 -184.5766 97.7277)" class="st10" cx="114.6" cy="439.5" rx="1" ry="1"/>
			
				<ellipse transform="matrix(0.8943 -0.4475 0.4475 0.8943 -186.1932 95.7924)" class="st10" cx="109.7" cy="442" rx="0.7" ry="0.7"/>
			
				<ellipse transform="matrix(0.8943 -0.4475 0.4475 0.8943 -183.8199 102.1676)" class="st10" cx="124.3" cy="440.2" rx="1" ry="1"/>
			
				<ellipse transform="matrix(0.8943 -0.4475 0.4475 0.8943 -181.3434 101.5983)" class="st10" cx="124.4" cy="434.6" rx="1" ry="1"/>
			
				<ellipse transform="matrix(0.8943 -0.4475 0.4475 0.8943 -182.96 99.663)" class="st10" cx="119.5" cy="437.1" rx="0.7" ry="0.7"/>
			
				<ellipse transform="matrix(0.8943 -0.4475 0.4475 0.8943 -179.9493 98.9344)" class="st10" cx="119.4" cy="430.4" rx="1" ry="1"/>
			
				<ellipse transform="matrix(0.8943 -0.4475 0.4475 0.8943 -178.3327 100.8697)" class="st10" cx="124.3" cy="427.9" rx="0.7" ry="0.7"/>
			
				<ellipse transform="matrix(0.8943 -0.4475 0.4475 0.8943 -177.4728 98.3651)" class="st10" cx="119.5" cy="424.8" rx="1" ry="1"/>
			
				<ellipse transform="matrix(0.8943 -0.4475 0.4475 0.8943 -179.0894 96.4298)" class="st10" cx="114.6" cy="427.3" rx="0.7" ry="0.7"/>
			
				<ellipse transform="matrix(0.8943 -0.4475 0.4475 0.8943 -183.1825 95.0637)" class="st10" cx="109.6" cy="435.3" rx="1" ry="1"/>
			
				<ellipse transform="matrix(0.8943 -0.4475 0.4475 0.8943 -181.5659 96.9991)" class="st10" cx="114.5" cy="432.8" rx="0.7" ry="0.7"/>
			<ellipse transform="matrix(0.8943 -0.4475 0.4475 0.8943 -180.706 94.4945)" class="st10" cx="109.7" cy="429.7" rx="1" ry="1"/>
			
				<ellipse transform="matrix(0.8943 -0.4475 0.4475 0.8943 -182.3226 92.5592)" class="st10" cx="104.8" cy="432.2" rx="0.7" ry="0.7"/>
			
				<ellipse transform="matrix(0.8943 -0.4475 0.4475 0.8943 -179.3119 91.8305)" class="st10" cx="104.7" cy="425.5" rx="1" ry="1"/>
			
				<ellipse transform="matrix(0.8943 -0.4475 0.4475 0.8943 -177.6953 93.7659)" class="st10" cx="109.6" cy="423" rx="0.7" ry="0.7"/>
			
				<ellipse transform="matrix(0.8943 -0.4475 0.4475 0.8943 -176.8354 91.2613)" class="st10" cx="104.8" cy="419.9" rx="1" ry="1"/>
			
				<ellipse transform="matrix(0.8943 -0.4475 0.4475 0.8943 -178.452 89.326)" class="st10" cx="99.8" cy="422.4" rx="0.7" ry="0.7"/>
			
				<ellipse transform="matrix(0.8943 -0.4475 0.4475 0.8943 -176.0787 95.7012)" class="st10" cx="114.5" cy="420.5" rx="1" ry="1"/>
			
				<ellipse transform="matrix(0.8943 -0.4475 0.4475 0.8943 -174.4621 97.6365)" class="st10" cx="119.4" cy="418.1" rx="0.7" ry="0.7"/>
			<ellipse transform="matrix(0.8943 -0.4475 0.4475 0.8943 -173.6022 95.1319)" class="st10" cx="114.6" cy="415" rx="1" ry="1"/>
			
				<ellipse transform="matrix(0.8943 -0.4475 0.4475 0.8943 -175.2188 93.1966)" class="st10" cx="109.7" cy="417.5" rx="0.7" ry="0.7"/>
			
				<ellipse transform="matrix(0.8943 -0.4475 0.4475 0.8943 -172.8455 99.5718)" class="st10" cx="124.3" cy="415.6" rx="1" ry="1"/>
			<ellipse transform="matrix(0.8943 -0.4475 0.4475 0.8943 -170.369 99.0025)" class="st10" cx="124.4" cy="410.1" rx="1" ry="1"/>
			
				<ellipse transform="matrix(0.8943 -0.4475 0.4475 0.8943 -171.9856 97.0672)" class="st10" cx="119.5" cy="412.6" rx="0.7" ry="0.7"/>
			
				<ellipse transform="matrix(0.8943 -0.4475 0.4475 0.8943 -175.8562 100.3004)" class="st10" cx="124.4" cy="422.4" rx="0.7" ry="0.7"/>
			
				<ellipse transform="matrix(0.8943 -0.4475 0.4475 0.8943 -179.7268 103.5336)" class="st10" cx="129.3" cy="432.2" rx="0.7" ry="0.7"/>
			
				<ellipse transform="matrix(0.8943 -0.4475 0.4475 0.8943 -175.8023 88.8989)" class="st10" cx="100.3" cy="416.6" rx="1" ry="1"/>
			
				<ellipse transform="matrix(0.8943 -0.4475 0.4475 0.8943 -174.1857 90.8342)" class="st10" cx="105.2" cy="414.1" rx="0.7" ry="0.7"/>
			<ellipse transform="matrix(0.8943 -0.4475 0.4475 0.8943 -173.3258 88.3296)" class="st10" cx="100.3" cy="411" rx="1" ry="1"/>
			
				<ellipse transform="matrix(0.8943 -0.4475 0.4475 0.8943 -174.9424 86.3943)" class="st10" cx="95.4" cy="413.5" rx="0.7" ry="0.7"/>
			
				<ellipse transform="matrix(0.8943 -0.4475 0.4475 0.8943 -172.5691 92.7695)" class="st10" cx="110.1" cy="411.7" rx="1" ry="1"/>
			
				<ellipse transform="matrix(0.8943 -0.4475 0.4475 0.8943 -170.9525 94.7048)" class="st10" cx="115" cy="409.2" rx="0.7" ry="0.7"/>
			
				<ellipse transform="matrix(0.8943 -0.4475 0.4475 0.8943 -170.0926 92.2002)" class="st10" cx="110.1" cy="406.1" rx="1" ry="1"/>
			
				<ellipse transform="matrix(0.8943 -0.4475 0.4475 0.8943 -171.7092 90.2649)" class="st10" cx="105.2" cy="408.6" rx="0.7" ry="0.7"/>
			
				<ellipse transform="matrix(0.8943 -0.4475 0.4475 0.8943 -168.6984 89.5363)" class="st10" cx="105.2" cy="401.8" rx="1" ry="1"/>
			
				<ellipse transform="matrix(0.8943 -0.4475 0.4475 0.8943 -167.0818 91.4716)" class="st10" cx="110.1" cy="399.4" rx="0.7" ry="0.7"/>
			<ellipse transform="matrix(0.8943 -0.4475 0.4475 0.8943 -166.222 88.967)" class="st10" cx="105.2" cy="396.3" rx="1" ry="1"/>
			
				<ellipse transform="matrix(0.8943 -0.4475 0.4475 0.8943 -167.8385 87.0317)" class="st10" cx="100.3" cy="398.8" rx="0.7" ry="0.7"/>
			<ellipse transform="matrix(0.8943 -0.4475 0.4475 0.8943 -171.9316 85.6657)" class="st10" cx="95.4" cy="406.8" rx="1" ry="1"/>
			
				<ellipse transform="matrix(0.8943 -0.4475 0.4475 0.8943 -170.315 87.601)" class="st10" cx="100.3" cy="404.3" rx="0.7" ry="0.7"/>
			<ellipse transform="matrix(0.8943 -0.4475 0.4475 0.8943 -169.4552 85.0964)" class="st10" cx="95.4" cy="401.2" rx="1" ry="1"/>
			
				<ellipse transform="matrix(0.8943 -0.4475 0.4475 0.8943 -171.0718 83.1611)" class="st10" cx="90.5" cy="403.7" rx="0.7" ry="0.7"/>
			<ellipse transform="matrix(0.8943 -0.4475 0.4475 0.8943 -168.061 82.4325)" class="st10" cx="90.5" cy="396.9" rx="1" ry="1"/>
			
				<ellipse transform="matrix(0.8943 -0.4475 0.4475 0.8943 -166.4444 84.3678)" class="st10" cx="95.4" cy="394.5" rx="0.7" ry="0.7"/>
			<ellipse transform="matrix(0.8943 -0.4475 0.4475 0.8943 -165.5845 81.8632)" class="st10" cx="90.5" cy="391.4" rx="1" ry="1"/>
			
				<ellipse transform="matrix(0.8943 -0.4475 0.4475 0.8943 -167.2011 79.9279)" class="st10" cx="85.6" cy="393.9" rx="0.7" ry="0.7"/>
			<ellipse transform="matrix(0.8943 -0.4475 0.4475 0.8943 -164.8278 86.3031)" class="st10" cx="100.3" cy="392" rx="1" ry="1"/>
			
				<ellipse transform="matrix(0.8943 -0.4475 0.4475 0.8943 -163.2112 88.2384)" class="st10" cx="105.2" cy="389.6" rx="0.7" ry="0.7"/>
			
				<ellipse transform="matrix(0.8943 -0.4475 0.4475 0.8943 -162.3513 85.7338)" class="st10" cx="100.3" cy="386.5" rx="1" ry="1"/>
			
				<ellipse transform="matrix(0.8943 -0.4475 0.4475 0.8943 -163.9679 83.7985)" class="st10" cx="95.4" cy="389" rx="0.7" ry="0.7"/>
			
				<ellipse transform="matrix(0.8943 -0.4475 0.4475 0.8943 -161.5946 90.1737)" class="st10" cx="110.1" cy="387.1" rx="1" ry="1"/>
			
				<ellipse transform="matrix(0.8943 -0.4475 0.4475 0.8943 -159.1181 89.6044)" class="st10" cx="110.1" cy="381.6" rx="1" ry="1"/>
			
				<ellipse transform="matrix(0.8943 -0.4475 0.4475 0.8943 -160.7347 87.6691)" class="st10" cx="105.2" cy="384.1" rx="0.7" ry="0.7"/>
			<ellipse transform="matrix(0.8943 -0.4475 0.4475 0.8943 -165.4652 93.4069)" class="st10" cx="115" cy="396.9" rx="1" ry="1"/>
			<ellipse transform="matrix(0.8943 -0.4475 0.4475 0.8943 -162.9888 92.8376)" class="st10" cx="115" cy="391.4" rx="1" ry="1"/>
			
				<ellipse transform="matrix(0.8943 -0.4475 0.4475 0.8943 -164.6053 90.9023)" class="st10" cx="110.1" cy="393.9" rx="0.7" ry="0.7"/>
			
				<ellipse transform="matrix(0.8943 -0.4475 0.4475 0.8943 -169.3358 96.6401)" class="st10" cx="119.9" cy="406.7" rx="1" ry="1"/>
			
				<ellipse transform="matrix(0.8943 -0.4475 0.4475 0.8943 -166.8594 96.0708)" class="st10" cx="119.9" cy="401.2" rx="1" ry="1"/>
			
				<ellipse transform="matrix(0.8943 -0.4475 0.4475 0.8943 -168.476 94.1355)" class="st10" cx="115" cy="403.7" rx="0.7" ry="0.7"/>
			<ellipse transform="matrix(0.8943 -0.4475 0.4475 0.8943 -164.6852 79.6126)" class="st10" cx="86.2" cy="388.4" rx="1" ry="1"/>
			
				<ellipse transform="matrix(0.8943 -0.4475 0.4475 0.8943 -163.0686 81.5479)" class="st10" cx="91.1" cy="385.9" rx="0.7" ry="0.7"/>
			<ellipse transform="matrix(0.8943 -0.4475 0.4475 0.8943 -162.2087 79.0433)" class="st10" cx="86.2" cy="382.9" rx="1" ry="1"/>
			
				<ellipse transform="matrix(0.8943 -0.4475 0.4475 0.8943 -163.8253 77.108)" class="st10" cx="81.3" cy="385.3" rx="0.7" ry="0.7"/>
			<ellipse transform="matrix(0.8943 -0.4475 0.4475 0.8943 -161.452 83.4832)" class="st10" cx="96" cy="383.5" rx="1" ry="1"/>
			
				<ellipse transform="matrix(0.8943 -0.4475 0.4475 0.8943 -159.8354 85.4185)" class="st10" cx="100.9" cy="381" rx="0.7" ry="0.7"/>
			<ellipse transform="matrix(0.8943 -0.4475 0.4475 0.8943 -158.9755 82.9139)" class="st10" cx="96" cy="378" rx="1" ry="1"/>
			
				<ellipse transform="matrix(0.8943 -0.4475 0.4475 0.8943 -160.5921 80.9786)" class="st10" cx="91.1" cy="380.4" rx="0.7" ry="0.7"/>
			<ellipse transform="matrix(0.8943 -0.4475 0.4475 0.8943 -157.5814 80.25)" class="st10" cx="91.1" cy="373.7" rx="1" ry="1"/>
			
				<ellipse transform="matrix(0.8943 -0.4475 0.4475 0.8943 -155.9648 82.1853)" class="st10" cx="96" cy="371.2" rx="0.7" ry="0.7"/>
			<ellipse transform="matrix(0.8943 -0.4475 0.4475 0.8943 -155.1049 79.6807)" class="st10" cx="91.1" cy="368.1" rx="1" ry="1"/>
			
				<ellipse transform="matrix(0.8943 -0.4475 0.4475 0.8943 -156.7215 77.7454)" class="st10" cx="86.2" cy="370.6" rx="0.7" ry="0.7"/>
			<ellipse transform="matrix(0.8943 -0.4475 0.4475 0.8943 -160.8146 76.3794)" class="st10" cx="81.3" cy="378.6" rx="1" ry="1"/>
			
				<ellipse transform="matrix(0.8943 -0.4475 0.4475 0.8943 -159.198 78.3147)" class="st10" cx="86.2" cy="376.1" rx="0.7" ry="0.7"/>
			<ellipse transform="matrix(0.8943 -0.4475 0.4475 0.8943 -158.3381 75.8101)" class="st10" cx="81.3" cy="373.1" rx="1" ry="1"/>
			
				<ellipse transform="matrix(0.8943 -0.4475 0.4475 0.8943 -159.9547 73.8748)" class="st10" cx="76.4" cy="375.5" rx="0.7" ry="0.7"/>
			<ellipse transform="matrix(0.8943 -0.4475 0.4475 0.8943 -156.944 73.1462)" class="st10" cx="76.4" cy="368.8" rx="1" ry="1"/>
			
				<ellipse transform="matrix(0.8943 -0.4475 0.4475 0.8943 -155.3274 75.0815)" class="st10" cx="81.3" cy="366.3" rx="0.7" ry="0.7"/>
			<ellipse transform="matrix(0.8943 -0.4475 0.4475 0.8943 -154.4675 72.5769)" class="st10" cx="76.4" cy="363.2" rx="1" ry="1"/>
			
				<ellipse transform="matrix(0.8943 -0.4475 0.4475 0.8943 -156.0841 70.6416)" class="st10" cx="71.5" cy="365.7" rx="0.7" ry="0.7"/>
			<ellipse transform="matrix(0.8943 -0.4475 0.4475 0.8943 -153.7108 77.0168)" class="st10" cx="86.2" cy="363.9" rx="1" ry="1"/>
			
				<ellipse transform="matrix(0.8943 -0.4475 0.4475 0.8943 -152.0942 78.9521)" class="st10" cx="91.1" cy="361.4" rx="0.7" ry="0.7"/>
			<ellipse transform="matrix(0.8943 -0.4475 0.4475 0.8943 -151.2343 76.4475)" class="st10" cx="86.2" cy="358.3" rx="1" ry="1"/>
			
				<ellipse transform="matrix(0.8943 -0.4475 0.4475 0.8943 -152.8509 74.5122)" class="st10" cx="81.3" cy="360.8" rx="0.7" ry="0.7"/>
			
				<ellipse transform="matrix(0.8943 -0.4475 0.4475 0.8943 -149.6177 78.3828)" class="st10" cx="91.1" cy="355.9" rx="0.7" ry="0.7"/>
			
				<ellipse transform="matrix(0.8943 -0.4475 0.4475 0.8943 -154.3482 84.1206)" class="st10" cx="100.9" cy="368.8" rx="1" ry="1"/>
			
				<ellipse transform="matrix(0.8943 -0.4475 0.4475 0.8943 -153.4883 81.616)" class="st10" cx="96" cy="365.7" rx="0.7" ry="0.7"/>
			
				<ellipse transform="matrix(0.8943 -0.4475 0.4475 0.8943 -158.2188 87.3538)" class="st10" cx="105.8" cy="378.6" rx="1" ry="1"/>
			<ellipse transform="matrix(0.8943 -0.4475 0.4475 0.8943 -155.7423 86.7845)" class="st10" cx="105.8" cy="373" rx="1" ry="1"/>
			
				<ellipse transform="matrix(0.8943 -0.4475 0.4475 0.8943 -157.3589 84.8492)" class="st10" cx="100.9" cy="375.5" rx="0.7" ry="0.7"/>
			<ellipse transform="matrix(0.8943 -0.4475 0.4475 0.8943 -153.4344 70.2145)" class="st10" cx="71.9" cy="359.9" rx="1" ry="1"/>
			
				<ellipse transform="matrix(0.8943 -0.4475 0.4475 0.8943 -151.8177 72.1498)" class="st10" cx="76.8" cy="357.4" rx="0.7" ry="0.7"/>
			<ellipse transform="matrix(0.8943 -0.4475 0.4475 0.8943 -150.9579 69.6452)" class="st10" cx="71.9" cy="354.3" rx="1" ry="1"/>
			
				<ellipse transform="matrix(0.8943 -0.4475 0.4475 0.8943 -152.5745 67.7099)" class="st10" cx="67" cy="356.8" rx="0.7" ry="0.7"/>
			<ellipse transform="matrix(0.8943 -0.4475 0.4475 0.8943 -150.2012 74.0851)" class="st10" cx="81.7" cy="355" rx="1" ry="1"/>
			
				<ellipse transform="matrix(0.8943 -0.4475 0.4475 0.8943 -149.3413 71.5805)" class="st10" cx="76.8" cy="351.9" rx="0.7" ry="0.7"/>
			<ellipse transform="matrix(0.8943 -0.4475 0.4475 0.8943 -149.5637 66.9813)" class="st10" cx="67" cy="350.1" rx="1" ry="1"/>
			
				<ellipse transform="matrix(0.8943 -0.4475 0.4475 0.8943 -147.9471 68.9166)" class="st10" cx="71.9" cy="347.6" rx="0.7" ry="0.7"/>
		</g>
	</g>
	<g>
		<g>
			<path class="st6" d="M95.9,173.4c13.2,27.2,27.6,53.8,43.3,79.6c7.5,12.2,14.8,25,23.6,36.3c6.1,7.9,14.3,15.2,25,14.2
				c1.6-0.2,1.6-2.7,0-2.5c-13.1,1.3-21.8-11-28.2-20.6c-7.6-11.5-15-23.3-22.1-35.1c-14.2-23.8-27.3-48.2-39.4-73.1
				C97.3,170.7,95.2,171.9,95.9,173.4L95.9,173.4z"/>
		</g>
	</g>
	<g>
		<defs>
			<path id="SVGID_5_" d="M28.3,144.7c4.5,15.5,47.8,19,51.9-8.1S23.9,129.1,28.3,144.7z"/>
		</defs>
		<clipPath id="SVGID_6_">
			<use xlink:href="#SVGID_5_"  style="overflow:visible;"/>
		</clipPath>
		<ellipse transform="matrix(0.961 -0.2767 0.2767 0.961 -41.9758 14.5354)" class="st11" cx="30.5" cy="156" rx="0.6" ry="0.6"/>
		<ellipse transform="matrix(0.961 -0.2767 0.2767 0.961 -40.7938 14.0069)" class="st11" cx="29.2" cy="151.6" rx="0.8" ry="0.8"/>
		<ellipse transform="matrix(0.961 -0.2767 0.2767 0.961 -39.6688 13.5038)" class="st11" cx="28" cy="147.3" rx="0.6" ry="0.6"/>
		<ellipse transform="matrix(0.961 -0.2767 0.2767 0.961 -39.8284 14.7882)" class="st11" cx="32.5" cy="148.5" rx="0.8" ry="0.8"/>
		<ellipse transform="matrix(0.961 -0.2767 0.2767 0.961 -40.9535 15.2912)" class="st11" cx="33.7" cy="152.8" rx="0.6" ry="0.6"/>
		<ellipse transform="matrix(0.961 -0.2767 0.2767 0.961 -37.5782 13.782)" class="st11" cx="30.1" cy="140.1" rx="0.8" ry="0.8"/>
		<ellipse transform="matrix(0.961 -0.2767 0.2767 0.961 -38.7033 14.2851)" class="st11" cx="31.3" cy="144.3" rx="0.6" ry="0.6"/>
		<ellipse transform="matrix(0.961 -0.2767 0.2767 0.961 -41.0492 16.6077)" class="st11" cx="38.3" cy="153.8" rx="0.6" ry="0.6"/>
		<ellipse transform="matrix(0.961 -0.2767 0.2767 0.961 -40.043 18.8578)" class="st11" cx="46.8" cy="151.3" rx="0.6" ry="0.6"/>
		<ellipse transform="matrix(0.961 -0.2767 0.2767 0.961 -40.1619 21.6111)" class="st11" cx="56.5" cy="153.1" rx="0.8" ry="0.8"/>
		<ellipse transform="matrix(0.961 -0.2767 0.2767 0.961 -39.0368 21.108)" class="st11" cx="55.3" cy="148.9" rx="0.6" ry="0.6"/>
		<ellipse transform="matrix(0.961 -0.2767 0.2767 0.961 -39.1965 22.3924)" class="st11" cx="59.8" cy="150.1" rx="0.8" ry="0.8"/>
		<ellipse transform="matrix(0.961 -0.2767 0.2767 0.961 -39.2495 23.6515)" class="st11" cx="64.2" cy="150.9" rx="0.8" ry="0.8"/>
		<ellipse transform="matrix(0.961 -0.2767 0.2767 0.961 -38.1245 23.1484)" class="st11" cx="63" cy="146.7" rx="0.6" ry="0.6"/>
		<ellipse transform="matrix(0.961 -0.2767 0.2767 0.961 -38.2841 24.4327)" class="st11" cx="67.4" cy="147.9" rx="0.8" ry="0.8"/>
		<ellipse transform="matrix(0.961 -0.2767 0.2767 0.961 -38.2434 25.9016)" class="st11" cx="72.7" cy="148.5" rx="0.8" ry="0.8"/>
		<ellipse transform="matrix(0.961 -0.2767 0.2767 0.961 -37.1183 25.3986)" class="st11" cx="71.5" cy="144.2" rx="0.6" ry="0.6"/>
		<ellipse transform="matrix(0.961 -0.2767 0.2767 0.961 -37.2779 26.6829)" class="st11" cx="75.9" cy="145.5" rx="0.8" ry="0.8"/>
		<ellipse transform="matrix(0.961 -0.2767 0.2767 0.961 -37.2372 28.1518)" class="st11" cx="81.1" cy="146" rx="0.8" ry="0.8"/>
		<ellipse transform="matrix(0.961 -0.2767 0.2767 0.961 -36.1121 27.6487)" class="st11" cx="79.9" cy="141.8" rx="0.6" ry="0.6"/>
		<ellipse transform="matrix(0.961 -0.2767 0.2767 0.961 -36.2718 28.9331)" class="st11" cx="84.4" cy="143" rx="0.8" ry="0.8"/>
		<ellipse transform="matrix(0.961 -0.2767 0.2767 0.961 -36.3596 30.1144)" class="st11" cx="88.5" cy="143.9" rx="0.8" ry="0.8"/>
		<ellipse transform="matrix(0.961 -0.2767 0.2767 0.961 -35.2345 29.6113)" class="st11" cx="87.3" cy="139.7" rx="0.6" ry="0.6"/>
		<ellipse transform="matrix(0.961 -0.2767 0.2767 0.961 -35.3942 30.8956)" class="st11" cx="91.8" cy="140.9" rx="0.8" ry="0.8"/>
		<ellipse transform="matrix(0.961 -0.2767 0.2767 0.961 -35.3535 32.3646)" class="st11" cx="97" cy="141.5" rx="0.8" ry="0.8"/>
		<ellipse transform="matrix(0.961 -0.2767 0.2767 0.961 -34.2284 31.8615)" class="st11" cx="95.8" cy="137.2" rx="0.6" ry="0.6"/>
		<ellipse transform="matrix(0.961 -0.2767 0.2767 0.961 -34.388 33.1458)" class="st11" cx="100.3" cy="138.4" rx="0.8" ry="0.8"/>
		<ellipse transform="matrix(0.961 -0.2767 0.2767 0.961 -34.3473 34.6147)" class="st11" cx="105.5" cy="139" rx="0.8" ry="0.8"/>
		
			<ellipse transform="matrix(0.961 -0.2767 0.2767 0.961 -33.2222 34.1116)" class="st11" cx="104.3" cy="134.8" rx="0.6" ry="0.6"/>
		<ellipse transform="matrix(0.961 -0.2767 0.2767 0.961 -33.3819 35.396)" class="st11" cx="108.7" cy="136" rx="0.8" ry="0.8"/>
		
			<ellipse transform="matrix(0.961 -0.2767 0.2767 0.961 -33.4349 36.6551)" class="st11" cx="113.2" cy="136.8" rx="0.8" ry="0.8"/>
		<ellipse transform="matrix(0.961 -0.2767 0.2767 0.961 -32.3098 36.152)" class="st11" cx="112" cy="132.6" rx="0.6" ry="0.6"/>
		
			<ellipse transform="matrix(0.961 -0.2767 0.2767 0.961 -32.4695 37.4363)" class="st11" cx="116.4" cy="133.8" rx="0.8" ry="0.8"/>
		
			<ellipse transform="matrix(0.961 -0.2767 0.2767 0.961 -32.4288 38.9053)" class="st11" cx="121.7" cy="134.4" rx="0.8" ry="0.8"/>
		
			<ellipse transform="matrix(0.961 -0.2767 0.2767 0.961 -31.3037 38.4022)" class="st11" cx="120.4" cy="130.1" rx="0.6" ry="0.6"/>
		<ellipse transform="matrix(0.961 -0.2767 0.2767 0.961 -39.8672 16.0792)" class="st11" cx="37" cy="149.3" rx="0.8" ry="0.8"/>
		<ellipse transform="matrix(0.961 -0.2767 0.2767 0.961 -38.7421 15.5761)" class="st11" cx="35.8" cy="145.1" rx="0.6" ry="0.6"/>
		<ellipse transform="matrix(0.961 -0.2767 0.2767 0.961 -38.9018 16.8604)" class="st11" cx="40.3" cy="146.3" rx="0.8" ry="0.8"/>
		<ellipse transform="matrix(0.961 -0.2767 0.2767 0.961 -40.0269 17.3635)" class="st11" cx="41.5" cy="150.5" rx="0.6" ry="0.6"/>
		<ellipse transform="matrix(0.961 -0.2767 0.2767 0.961 -37.617 15.073)" class="st11" cx="34.6" cy="140.8" rx="0.8" ry="0.8"/>
		<ellipse transform="matrix(0.961 -0.2767 0.2767 0.961 -36.6516 15.8542)" class="st11" cx="37.9" cy="137.8" rx="0.8" ry="0.8"/>
		<ellipse transform="matrix(0.961 -0.2767 0.2767 0.961 -37.7767 16.3573)" class="st11" cx="39.1" cy="142.1" rx="0.6" ry="0.6"/>
		<ellipse transform="matrix(0.961 -0.2767 0.2767 0.961 -36.6109 17.3232)" class="st11" cx="43.1" cy="138.4" rx="0.8" ry="0.8"/>
		<ellipse transform="matrix(0.961 -0.2767 0.2767 0.961 -35.4858 16.8201)" class="st11" cx="41.9" cy="134.2" rx="0.6" ry="0.6"/>
		<ellipse transform="matrix(0.961 -0.2767 0.2767 0.961 -35.6454 18.1044)" class="st11" cx="46.3" cy="135.4" rx="0.8" ry="0.8"/>
		<ellipse transform="matrix(0.961 -0.2767 0.2767 0.961 -36.7705 18.6075)" class="st11" cx="47.6" cy="139.6" rx="0.6" ry="0.6"/>
		<ellipse transform="matrix(0.961 -0.2767 0.2767 0.961 -38.861 18.3293)" class="st11" cx="45.5" cy="146.9" rx="0.8" ry="0.8"/>
		<ellipse transform="matrix(0.961 -0.2767 0.2767 0.961 -37.736 17.8263)" class="st11" cx="44.3" cy="142.6" rx="0.6" ry="0.6"/>
		<ellipse transform="matrix(0.961 -0.2767 0.2767 0.961 -37.8956 19.1106)" class="st11" cx="48.8" cy="143.9" rx="0.8" ry="0.8"/>
		<ellipse transform="matrix(0.961 -0.2767 0.2767 0.961 -39.0207 19.6137)" class="st11" cx="50" cy="148.1" rx="0.6" ry="0.6"/>
		<ellipse transform="matrix(0.961 -0.2767 0.2767 0.961 -37.8549 20.5795)" class="st11" cx="54" cy="144.4" rx="0.8" ry="0.8"/>
		<ellipse transform="matrix(0.961 -0.2767 0.2767 0.961 -36.7298 20.0764)" class="st11" cx="52.8" cy="140.2" rx="0.6" ry="0.6"/>
		<ellipse transform="matrix(0.961 -0.2767 0.2767 0.961 -36.8895 21.3608)" class="st11" cx="57.3" cy="141.4" rx="0.8" ry="0.8"/>
		<ellipse transform="matrix(0.961 -0.2767 0.2767 0.961 -38.0145 21.8639)" class="st11" cx="58.5" cy="145.7" rx="0.6" ry="0.6"/>
		<ellipse transform="matrix(0.961 -0.2767 0.2767 0.961 -35.6047 19.5734)" class="st11" cx="51.6" cy="136" rx="0.8" ry="0.8"/>
		<ellipse transform="matrix(0.961 -0.2767 0.2767 0.961 -34.4796 19.0703)" class="st11" cx="50.3" cy="131.7" rx="0.6" ry="0.6"/>
		<ellipse transform="matrix(0.961 -0.2767 0.2767 0.961 -34.6393 20.3546)" class="st11" cx="54.8" cy="132.9" rx="0.8" ry="0.8"/>
		<ellipse transform="matrix(0.961 -0.2767 0.2767 0.961 -35.7644 20.8577)" class="st11" cx="56" cy="137.2" rx="0.6" ry="0.6"/>
		<ellipse transform="matrix(0.961 -0.2767 0.2767 0.961 -33.3545 18.5672)" class="st11" cx="49.1" cy="127.5" rx="0.8" ry="0.8"/>
		<ellipse transform="matrix(0.961 -0.2767 0.2767 0.961 -32.3891 19.3484)" class="st11" cx="52.4" cy="124.5" rx="0.8" ry="0.8"/>
		<ellipse transform="matrix(0.961 -0.2767 0.2767 0.961 -33.5142 19.8515)" class="st11" cx="53.6" cy="128.7" rx="0.6" ry="0.6"/>
		<ellipse transform="matrix(0.961 -0.2767 0.2767 0.961 -34.5203 17.6013)" class="st11" cx="45.1" cy="131.1" rx="0.6" ry="0.6"/>
		<ellipse transform="matrix(0.961 -0.2767 0.2767 0.961 -35.5265 15.3511)" class="st11" cx="36.6" cy="133.6" rx="0.6" ry="0.6"/>
		<ellipse transform="matrix(0.961 -0.2767 0.2767 0.961 -36.9425 22.6199)" class="st11" cx="61.7" cy="142.2" rx="0.8" ry="0.8"/>
		<ellipse transform="matrix(0.961 -0.2767 0.2767 0.961 -35.8174 22.1168)" class="st11" cx="60.5" cy="138" rx="0.6" ry="0.6"/>
		<ellipse transform="matrix(0.961 -0.2767 0.2767 0.961 -35.9771 23.4011)" class="st11" cx="64.9" cy="139.2" rx="0.8" ry="0.8"/>
		<ellipse transform="matrix(0.961 -0.2767 0.2767 0.961 -37.1022 23.9042)" class="st11" cx="66.2" cy="143.4" rx="0.6" ry="0.6"/>
		<ellipse transform="matrix(0.961 -0.2767 0.2767 0.961 -34.6923 21.6137)" class="st11" cx="59.3" cy="133.8" rx="0.8" ry="0.8"/>
		<ellipse transform="matrix(0.961 -0.2767 0.2767 0.961 -33.5672 21.1106)" class="st11" cx="58" cy="129.5" rx="0.6" ry="0.6"/>
		<ellipse transform="matrix(0.961 -0.2767 0.2767 0.961 -33.7269 22.3949)" class="st11" cx="62.5" cy="130.7" rx="0.8" ry="0.8"/>
		<ellipse transform="matrix(0.961 -0.2767 0.2767 0.961 -34.852 22.898)" class="st11" cx="63.7" cy="135" rx="0.6" ry="0.6"/>
		<ellipse transform="matrix(0.961 -0.2767 0.2767 0.961 -33.6862 23.8639)" class="st11" cx="67.7" cy="131.3" rx="0.8" ry="0.8"/>
		<ellipse transform="matrix(0.961 -0.2767 0.2767 0.961 -32.5611 23.3608)" class="st11" cx="66.5" cy="127.1" rx="0.6" ry="0.6"/>
		<ellipse transform="matrix(0.961 -0.2767 0.2767 0.961 -32.7207 24.6451)" class="st11" cx="71" cy="128.3" rx="0.8" ry="0.8"/>
		<ellipse transform="matrix(0.961 -0.2767 0.2767 0.961 -33.8458 25.1482)" class="st11" cx="72.2" cy="132.5" rx="0.6" ry="0.6"/>
		<ellipse transform="matrix(0.961 -0.2767 0.2767 0.961 -35.9363 24.8701)" class="st11" cx="70.2" cy="139.8" rx="0.8" ry="0.8"/>
		<ellipse transform="matrix(0.961 -0.2767 0.2767 0.961 -34.8113 24.367)" class="st11" cx="68.9" cy="135.6" rx="0.6" ry="0.6"/>
		<ellipse transform="matrix(0.961 -0.2767 0.2767 0.961 -34.9709 25.6513)" class="st11" cx="73.4" cy="136.8" rx="0.8" ry="0.8"/>
		<ellipse transform="matrix(0.961 -0.2767 0.2767 0.961 -36.096 26.1544)" class="st11" cx="74.6" cy="141" rx="0.6" ry="0.6"/>
		<ellipse transform="matrix(0.961 -0.2767 0.2767 0.961 -34.9302 27.1202)" class="st11" cx="78.6" cy="137.3" rx="0.8" ry="0.8"/>
		<ellipse transform="matrix(0.961 -0.2767 0.2767 0.961 -33.8051 26.6172)" class="st11" cx="77.4" cy="133.1" rx="0.6" ry="0.6"/>
		<ellipse transform="matrix(0.961 -0.2767 0.2767 0.961 -33.9647 27.9015)" class="st11" cx="81.9" cy="134.3" rx="0.8" ry="0.8"/>
		<ellipse transform="matrix(0.961 -0.2767 0.2767 0.961 -35.0898 28.4046)" class="st11" cx="83.1" cy="138.6" rx="0.6" ry="0.6"/>
		<ellipse transform="matrix(0.961 -0.2767 0.2767 0.961 -32.68 26.1141)" class="st11" cx="76.2" cy="128.9" rx="0.8" ry="0.8"/>
		<ellipse transform="matrix(0.961 -0.2767 0.2767 0.961 -31.5549 25.611)" class="st11" cx="75" cy="124.6" rx="0.6" ry="0.6"/>
		<ellipse transform="matrix(0.961 -0.2767 0.2767 0.961 -31.7146 26.8953)" class="st11" cx="79.5" cy="125.8" rx="0.8" ry="0.8"/>
		<ellipse transform="matrix(0.961 -0.2767 0.2767 0.961 -32.8397 27.3984)" class="st11" cx="80.7" cy="130.1" rx="0.6" ry="0.6"/>
		<ellipse transform="matrix(0.961 -0.2767 0.2767 0.961 -30.4298 25.1079)" class="st11" cx="73.8" cy="120.4" rx="0.8" ry="0.8"/>
		<ellipse transform="matrix(0.961 -0.2767 0.2767 0.961 -29.4644 25.8891)" class="st11" cx="77" cy="117.4" rx="0.8" ry="0.8"/>
		<ellipse transform="matrix(0.961 -0.2767 0.2767 0.961 -30.5895 26.3922)" class="st11" cx="78.2" cy="121.6" rx="0.6" ry="0.6"/>
		<ellipse transform="matrix(0.961 -0.2767 0.2767 0.961 -31.436 22.8577)" class="st11" cx="65.3" cy="122.8" rx="0.8" ry="0.8"/>
		<ellipse transform="matrix(0.961 -0.2767 0.2767 0.961 -30.4705 23.639)" class="st11" cx="68.5" cy="119.8" rx="0.8" ry="0.8"/>
		<ellipse transform="matrix(0.961 -0.2767 0.2767 0.961 -31.5956 24.142)" class="st11" cx="69.8" cy="124" rx="0.6" ry="0.6"/>
		<ellipse transform="matrix(0.961 -0.2767 0.2767 0.961 -32.4422 20.6075)" class="st11" cx="56.8" cy="125.3" rx="0.8" ry="0.8"/>
		<ellipse transform="matrix(0.961 -0.2767 0.2767 0.961 -31.4767 21.3888)" class="st11" cx="60.1" cy="122.2" rx="0.8" ry="0.8"/>
		<ellipse transform="matrix(0.961 -0.2767 0.2767 0.961 -32.6018 21.8919)" class="st11" cx="61.3" cy="126.5" rx="0.6" ry="0.6"/>
		<ellipse transform="matrix(0.961 -0.2767 0.2767 0.961 -34.0526 29.0828)" class="st11" cx="86" cy="135.2" rx="0.8" ry="0.8"/>
		<ellipse transform="matrix(0.961 -0.2767 0.2767 0.961 -32.9275 28.5797)" class="st11" cx="84.8" cy="131" rx="0.6" ry="0.6"/>
		<ellipse transform="matrix(0.961 -0.2767 0.2767 0.961 -33.0872 29.864)" class="st11" cx="89.3" cy="132.2" rx="0.8" ry="0.8"/>
		<ellipse transform="matrix(0.961 -0.2767 0.2767 0.961 -34.2123 30.3671)" class="st11" cx="90.5" cy="136.4" rx="0.6" ry="0.6"/>
		<ellipse transform="matrix(0.961 -0.2767 0.2767 0.961 -31.8024 28.0766)" class="st11" cx="83.6" cy="126.7" rx="0.8" ry="0.8"/>
		<ellipse transform="matrix(0.961 -0.2767 0.2767 0.961 -30.6773 27.5735)" class="st11" cx="82.4" cy="122.5" rx="0.6" ry="0.6"/>
		<ellipse transform="matrix(0.961 -0.2767 0.2767 0.961 -30.837 28.8579)" class="st11" cx="86.9" cy="123.7" rx="0.8" ry="0.8"/>
		<ellipse transform="matrix(0.961 -0.2767 0.2767 0.961 -31.9621 29.3609)" class="st11" cx="88.1" cy="128" rx="0.6" ry="0.6"/>
		<ellipse transform="matrix(0.961 -0.2767 0.2767 0.961 -30.7962 30.3268)" class="st11" cx="92.1" cy="124.3" rx="0.8" ry="0.8"/>
		<ellipse transform="matrix(0.961 -0.2767 0.2767 0.961 -29.6712 29.8237)" class="st11" cx="90.9" cy="120.1" rx="0.6" ry="0.6"/>
		<ellipse transform="matrix(0.961 -0.2767 0.2767 0.961 -29.8308 31.108)" class="st11" cx="95.3" cy="121.3" rx="0.8" ry="0.8"/>
		<ellipse transform="matrix(0.961 -0.2767 0.2767 0.961 -30.9559 31.6111)" class="st11" cx="96.5" cy="125.5" rx="0.6" ry="0.6"/>
		<ellipse transform="matrix(0.961 -0.2767 0.2767 0.961 -33.0464 31.333)" class="st11" cx="94.5" cy="132.8" rx="0.8" ry="0.8"/>
		<ellipse transform="matrix(0.961 -0.2767 0.2767 0.961 -31.9213 30.8299)" class="st11" cx="93.3" cy="128.5" rx="0.6" ry="0.6"/>
		<ellipse transform="matrix(0.961 -0.2767 0.2767 0.961 -32.081 32.1142)" class="st11" cx="97.8" cy="129.7" rx="0.8" ry="0.8"/>
		<ellipse transform="matrix(0.961 -0.2767 0.2767 0.961 -33.2061 32.6173)" class="st11" cx="99" cy="134" rx="0.6" ry="0.6"/>
		<ellipse transform="matrix(0.961 -0.2767 0.2767 0.961 -32.0403 33.5831)" class="st11" cx="103" cy="130.3" rx="0.8" ry="0.8"/>
		
			<ellipse transform="matrix(0.961 -0.2767 0.2767 0.961 -30.9152 33.0801)" class="st11" cx="101.8" cy="126.1" rx="0.6" ry="0.6"/>
		
			<ellipse transform="matrix(0.961 -0.2767 0.2767 0.961 -31.0748 34.3644)" class="st11" cx="106.2" cy="127.3" rx="0.8" ry="0.8"/>
		
			<ellipse transform="matrix(0.961 -0.2767 0.2767 0.961 -32.1999 34.8675)" class="st11" cx="107.5" cy="131.5" rx="0.6" ry="0.6"/>
		<ellipse transform="matrix(0.961 -0.2767 0.2767 0.961 -29.7901 32.577)" class="st11" cx="100.6" cy="121.9" rx="0.8" ry="0.8"/>
		<ellipse transform="matrix(0.961 -0.2767 0.2767 0.961 -28.665 32.0739)" class="st11" cx="99.3" cy="117.6" rx="0.6" ry="0.6"/>
		
			<ellipse transform="matrix(0.961 -0.2767 0.2767 0.961 -28.8246 33.3582)" class="st11" cx="103.8" cy="118.8" rx="0.8" ry="0.8"/>
		<ellipse transform="matrix(0.961 -0.2767 0.2767 0.961 -29.9497 33.8613)" class="st11" cx="105" cy="123.1" rx="0.6" ry="0.6"/>
		
			<ellipse transform="matrix(0.961 -0.2767 0.2767 0.961 -27.6996 32.8551)" class="st11" cx="102.6" cy="114.6" rx="0.6" ry="0.6"/>
		<ellipse transform="matrix(0.961 -0.2767 0.2767 0.961 -28.5461 29.3206)" class="st11" cx="89.6" cy="115.8" rx="0.8" ry="0.8"/>
		<ellipse transform="matrix(0.961 -0.2767 0.2767 0.961 -28.7057 30.6049)" class="st11" cx="94.1" cy="117" rx="0.6" ry="0.6"/>
		<ellipse transform="matrix(0.961 -0.2767 0.2767 0.961 -29.5522 27.0704)" class="st11" cx="81.2" cy="118.3" rx="0.8" ry="0.8"/>
		<ellipse transform="matrix(0.961 -0.2767 0.2767 0.961 -28.5868 27.8517)" class="st11" cx="84.4" cy="115.2" rx="0.8" ry="0.8"/>
		<ellipse transform="matrix(0.961 -0.2767 0.2767 0.961 -29.7119 28.3548)" class="st11" cx="85.6" cy="119.5" rx="0.6" ry="0.6"/>
		
			<ellipse transform="matrix(0.961 -0.2767 0.2767 0.961 -31.1279 35.6235)" class="st11" cx="110.7" cy="128.1" rx="0.8" ry="0.8"/>
		
			<ellipse transform="matrix(0.961 -0.2767 0.2767 0.961 -30.0028 35.1204)" class="st11" cx="109.5" cy="123.9" rx="0.6" ry="0.6"/>
		
			<ellipse transform="matrix(0.961 -0.2767 0.2767 0.961 -30.1625 36.4047)" class="st11" cx="113.9" cy="125.1" rx="0.8" ry="0.8"/>
		
			<ellipse transform="matrix(0.961 -0.2767 0.2767 0.961 -31.2876 36.9078)" class="st11" cx="115.2" cy="129.3" rx="0.6" ry="0.6"/>
		
			<ellipse transform="matrix(0.961 -0.2767 0.2767 0.961 -28.8777 34.6173)" class="st11" cx="108.2" cy="119.6" rx="0.8" ry="0.8"/>
		
			<ellipse transform="matrix(0.961 -0.2767 0.2767 0.961 -29.0374 35.9017)" class="st11" cx="112.7" cy="120.9" rx="0.6" ry="0.6"/>
		
			<ellipse transform="matrix(0.961 -0.2767 0.2767 0.961 -30.1217 37.8737)" class="st11" cx="119.2" cy="125.7" rx="0.8" ry="0.8"/>
		
			<ellipse transform="matrix(0.961 -0.2767 0.2767 0.961 -28.9966 37.3706)" class="st11" cx="117.9" cy="121.4" rx="0.6" ry="0.6"/>
	</g>
</g>
</svg>
