<svg width="30" version="1.1" id="Layer_1" xmlns="http://www.w3.org/2000/svg" xmlns:xlink="http://www.w3.org/1999/xlink" x="0px" y="0px"
	 viewBox="0 0 110 140" style="enable-background:new 0 0 110 140;" xml:space="preserve">
<style type="text/css">
	.st0{fill:#E19B78;}
	.st1{fill:none;stroke:#B77355;stroke-width:2;stroke-linecap:round;stroke-linejoin:round;stroke-miterlimit:10;}
	.st2{fill:#E5A78F;}
	.st3{fill:none;stroke:#B77355;stroke-linecap:round;stroke-linejoin:round;stroke-miterlimit:10;}
</style>
<path class="st0" d="M43,128.3c-2.6-2.4-4.8-5.3-7.1-8.5c-2.5-3.6-5-7.1-7.5-10.7c-5.5-7.8-11-15.6-16.7-23.2
	c-2.9-3.8-6.2-7.3-8.6-11.5c-1-1.8-2.4-4.3-1.8-6.4c1.8-5.9,12.4-1.3,15.5,0.9c2.9,2.1,5.3,5,7.2,8c1.7,2.6,3.3,5.9,6.6,6.7
	c3.5,0.8,6.6,0.4,7-3.8c0.8-8-0.3-16.1-0.5-24.1c-0.3-8.6-0.8-17.3-1.8-25.9c-0.8-6.6-2.1-18,0.8-24.2c1.2-2.5,3.3-4,6.1-3.8
	c5.1,0.4,6.7,5.7,7.4,10c1.4,7.9,1.4,18.8,2.5,26.7c0.9,7.2,1.8,14.4,2.7,21.6c0.5-5.4-0.9-16.8,4.8-19.9c1.2-0.7,2.6-0.9,4-0.9
	c9.1,0,8.6,12.5,9.7,18.8c0.4-2,0.2-4.2,0.1-6.2c-0.5-7.2,5.7-12.3,12.2-9.1c4.6,2.3,5.1,10.9,4.5,15.2c0.7-4.8,1.5-13.1,2.4-17.9
	c0.7-3.8,1.5-10.6,2.5-14.4c0.8-3,1.1-7.3,3.7-9.4c2.5-2,6.1-1.8,8.2,0.7c2.6,3.1,1,8.3,0.7,12c-1.7,19.6-4.1,43.1-1.6,62.8
	c0.8,9.1-0.8,38.9-17.8,44c-5.3,1.6-10.9,2.7-16.3,2.2c-6.3-0.6-12.9-1.6-19-3.7C49,133,45.8,130.9,43,128.3z"/>
<path class="st1" d="M57.9,59.9c0,0-0.2,17,8.3,17c0,0,9.5,1.8,9.3-18.8c0,0,0.7,16.3,5.7,16.8c0,0,10.6,3.7,11.1-16.9
	c0,0,1.3-12-4.5-15.2"/>
<path class="st2" d="M61.4,62.8c0,0,4.6-2.1,10.3,0c0,0,0.9,10.5-5.2,10.5C60.5,73.3,61.4,62.8,61.4,62.8z"/>
<path class="st2" d="M79.1,63.5c0,0,3.8-1.8,8.6,0c0,0,0.7,8.8-4.3,8.8C78.3,72.3,79.1,63.5,79.1,63.5z"/>
<path class="st3" d="M62.7,62.3c0,0,3.2-1.4,6.2,0"/>
<path class="st3" d="M50.8,19.7c0,0-0.8,1.7-9.8,1.4"/>
<path class="st3" d="M38.4,42.8c0,0,10.8-0.5,12.4-1.4l-9.8,3"/>
<line class="st3" x1="99.4" y1="27.1" x2="105.4" y2="29.1"/>
<path class="st3" d="M102.4,71.6c-4.7-4.5-10-6.5-10-6.5l8.6,2.4"/>
<path class="st3" d="M19.6,72.2c0,0-6.2,3.2-7.5,6.8C12.1,79.1,17.7,77.8,19.6,72.2z"/>
<path class="st3" d="M32.1,85.1c0,0,0.3,2-2.3,6"/>
<path class="st1" d="M50.7,81.1c0,0,22.3,16.7,25.7,44.3"/>
</svg>
