<svg xmlns="http://www.w3.org/2000/svg" x="0px" y="0px" viewBox="0 0 25 30" enable-background="new 0 0 25 30" fill="#f65d55" width="25px">
	<path d="M8.4,16.7c0.5,0.2,1.2,0.1,1.4-0.5c0.2-0.5,0.1-1.2-0.5-1.4c-2.1-1.1-3.4-3.2-3.4-5.6C5.9,5.7,8.7,3,12.2,3
		s6.2,2.8,6.2,6.2c0,2-1.2,3.8-3.6,5.6c-0.7,0.5-2.7,2-3,4.7c-0.1,0.6,0.3,1.1,0.9,1.2h0.1c0.5,0,1-0.4,1.1-0.9
		c0.2-1.7,1.6-2.7,2.2-3.2c2.9-2.2,4.3-4.6,4.3-7.3c0.1-4.6-3.7-8.3-8.2-8.3c-4.6,0-8.4,3.7-8.4,8.4C3.8,12.4,5.6,15.2,8.4,16.7z
		 M15.6,9.3c0-1.8-1.5-3.3-3.3-3.3S8.9,7.4,8.9,9.3c0,1.8,1.5,3.3,3.3,3.3C14.1,12.6,15.6,11.1,15.6,9.3z M10.7,9.3
		c0-0.8,0.7-1.5,1.5-1.5c0.8,0,1.5,0.7,1.5,1.5c0,0.8-0.7,1.5-1.5,1.5C11.3,10.8,10.7,10.1,10.7,9.3z M17.5,19.5
		c-0.6-0.2-1.2,0.1-1.3,0.7c-0.1,0.2-0.2,0.4-0.3,0.7c-0.7,1.1-1.9,1.7-3.2,1.7c-1.3,0-2.7-0.7-3.3-1.7c-0.1-0.2-0.3-0.4-0.3-0.7
		c-0.2-0.6-0.7-0.8-1.3-0.7c-0.6,0.2-0.8,0.7-0.7,1.3c0.1,0.3,0.2,0.7,0.5,1.1c1.1,1.7,3,2.7,5.1,2.7c2.1,0,4-1.1,5.1-2.7
		c0.2-0.3,0.4-0.7,0.5-1.1C18.5,20.2,18.1,19.7,17.5,19.5z M22.3,13.8c-0.6,0-1.1,0.5-1.1,1.1v4.4c0,4.3-3.8,7.8-8.6,7.8
		c-4.8,0-8.6-3.5-8.6-7.8v-0.5c0-0.6-0.5-1.1-1.1-1.1s-1.1,0.5-1.1,1.1v0.5c0,5.5,4.8,9.9,10.7,9.9c5.9,0,10.7-4.5,10.7-9.9v-4.4
		C23.4,14.2,22.9,13.8,22.3,13.8z"/>
</svg>
