<svg xmlns="http://www.w3.org/2000/svg" xmlns:xlink="http://www.w3.org/1999/xlink" x="0px" y="0px"
	 viewBox="0 0 345 65" width="350">
<style type="text/css">
	.st0{fill:#EDF2F4;}
	.st1{clip-path:url(#SVGID_2_);fill:#96ADB7;}
</style>
<g>
	<path class="st0" d="M320.4,21.4c0,0,16.5,4,17.4,15s-116.8,31-137.5,25s-60.3-27-123-31S1.7,10.8,1.7,10.8S-1-4.6,81.8,6.4
		S254.2,7.4,320.4,21.4z"/>
	<g>
		<defs>
			<path id="SVGID_1_" d="M284.7,10.4c0,0,54.6,4,58.4,15s-64.3,22-78.2,21c-13.9-1-60.7-9.9-66.3-18S259.4,7.4,284.7,10.4z"/>
		</defs>
		<clipPath id="SVGID_2_">
			<use xlink:href="#SVGID_1_"  style="overflow:visible;"/>
		</clipPath>
		<circle class="st1" cx="345.1" cy="4.8" r="1"/>
		<circle class="st1" cx="341.8" cy="11.4" r="0.8"/>
		<circle class="st1" cx="345.1" cy="16.8" r="1"/>
		<circle class="st1" cx="341.8" cy="22.3" r="0.8"/>
		<circle class="st1" cx="345.1" cy="27.7" r="1"/>
		<circle class="st1" cx="341.8" cy="34.3" r="0.8"/>
		<circle class="st1" cx="345.1" cy="39.7" r="1"/>
		<circle class="st1" cx="341.8" cy="46.3" r="0.8"/>
		<circle class="st1" cx="345.1" cy="51.7" r="1"/>
		<circle class="st1" cx="320.8" cy="4.8" r="1"/>
		<circle class="st1" cx="326.8" cy="4.8" r="0.8"/>
		<circle class="st1" cx="332.8" cy="4.8" r="1"/>
		<circle class="st1" cx="338.8" cy="4.8" r="0.8"/>
		<circle class="st1" cx="335.5" cy="11.4" r="1"/>
		<circle class="st1" cx="329.5" cy="11.4" r="0.8"/>
		<circle class="st1" cx="332.8" cy="16.8" r="1"/>
		<circle class="st1" cx="338.8" cy="16.8" r="0.8"/>
		<circle class="st1" cx="323.5" cy="11.4" r="1"/>
		<circle class="st1" cx="317.5" cy="11.4" r="0.8"/>
		<circle class="st1" cx="320.8" cy="16.8" r="1"/>
		<circle class="st1" cx="326.8" cy="16.8" r="0.8"/>
		<circle class="st1" cx="311.5" cy="11.4" r="1"/>
		<circle class="st1" cx="305.5" cy="11.4" r="0.8"/>
		<circle class="st1" cx="308.8" cy="16.8" r="1"/>
		<circle class="st1" cx="314.8" cy="16.8" r="0.8"/>
		<circle class="st1" cx="308.8" cy="4.8" r="1"/>
		<circle class="st1" cx="314.8" cy="4.8" r="0.8"/>
		<circle class="st1" cx="296.8" cy="4.8" r="1"/>
		<circle class="st1" cx="302.8" cy="4.8" r="0.8"/>
		<circle class="st1" cx="299.5" cy="11.4" r="1"/>
		<circle class="st1" cx="293.5" cy="11.4" r="0.8"/>
		<circle class="st1" cx="296.8" cy="16.8" r="1"/>
		<circle class="st1" cx="302.8" cy="16.8" r="0.8"/>
		<circle class="st1" cx="335.5" cy="22.3" r="1"/>
		<circle class="st1" cx="329.5" cy="22.3" r="0.8"/>
		<circle class="st1" cx="332.8" cy="27.7" r="1"/>
		<circle class="st1" cx="338.8" cy="27.7" r="0.8"/>
		<circle class="st1" cx="323.5" cy="22.3" r="1"/>
		<circle class="st1" cx="317.5" cy="22.3" r="0.8"/>
		<circle class="st1" cx="320.8" cy="27.7" r="1"/>
		<circle class="st1" cx="326.8" cy="27.7" r="0.8"/>
		<circle class="st1" cx="323.5" cy="34.3" r="1"/>
		<circle class="st1" cx="317.5" cy="34.3" r="0.8"/>
		<circle class="st1" cx="320.8" cy="39.7" r="1"/>
		<circle class="st1" cx="326.8" cy="39.7" r="0.8"/>
		<circle class="st1" cx="335.5" cy="34.3" r="1"/>
		<circle class="st1" cx="329.5" cy="34.3" r="0.8"/>
		<circle class="st1" cx="332.8" cy="39.7" r="1"/>
		<circle class="st1" cx="338.8" cy="39.7" r="0.8"/>
		<circle class="st1" cx="335.5" cy="46.3" r="1"/>
		<circle class="st1" cx="329.5" cy="46.3" r="0.8"/>
		<circle class="st1" cx="332.8" cy="51.7" r="1"/>
		<circle class="st1" cx="338.8" cy="51.7" r="0.8"/>
		<circle class="st1" cx="323.5" cy="46.3" r="1"/>
		<circle class="st1" cx="317.5" cy="46.3" r="0.8"/>
		<circle class="st1" cx="320.8" cy="51.7" r="1"/>
		<circle class="st1" cx="326.8" cy="51.7" r="0.8"/>
		<circle class="st1" cx="311.5" cy="46.3" r="1"/>
		<circle class="st1" cx="305.5" cy="46.3" r="0.8"/>
		<circle class="st1" cx="308.8" cy="51.7" r="1"/>
		<circle class="st1" cx="314.8" cy="51.7" r="0.8"/>
		<circle class="st1" cx="311.5" cy="34.3" r="1"/>
		<circle class="st1" cx="305.5" cy="34.3" r="0.8"/>
		<circle class="st1" cx="308.8" cy="39.7" r="1"/>
		<circle class="st1" cx="314.8" cy="39.7" r="0.8"/>
		<circle class="st1" cx="311.5" cy="22.3" r="1"/>
		<circle class="st1" cx="305.5" cy="22.3" r="0.8"/>
		<circle class="st1" cx="308.8" cy="27.7" r="1"/>
		<circle class="st1" cx="314.8" cy="27.7" r="0.8"/>
		<circle class="st1" cx="299.5" cy="22.3" r="1"/>
		<circle class="st1" cx="293.5" cy="22.3" r="0.8"/>
		<circle class="st1" cx="296.8" cy="27.7" r="1"/>
		<circle class="st1" cx="302.8" cy="27.7" r="0.8"/>
		<circle class="st1" cx="299.5" cy="34.3" r="1"/>
		<circle class="st1" cx="293.5" cy="34.3" r="0.8"/>
		<circle class="st1" cx="296.8" cy="39.7" r="1"/>
		<circle class="st1" cx="302.8" cy="39.7" r="0.8"/>
		<circle class="st1" cx="299.5" cy="46.3" r="1"/>
		<circle class="st1" cx="293.5" cy="46.3" r="0.8"/>
		<circle class="st1" cx="296.8" cy="51.7" r="1"/>
		<circle class="st1" cx="302.8" cy="51.7" r="0.8"/>
		<circle class="st1" cx="272.3" cy="4.8" r="1"/>
		<circle class="st1" cx="278.3" cy="4.8" r="0.8"/>
		<circle class="st1" cx="284.3" cy="4.8" r="1"/>
		<circle class="st1" cx="290.3" cy="4.8" r="0.8"/>
		<circle class="st1" cx="287" cy="11.4" r="1"/>
		<circle class="st1" cx="281" cy="11.4" r="0.8"/>
		<circle class="st1" cx="284.3" cy="16.8" r="1"/>
		<circle class="st1" cx="290.3" cy="16.8" r="0.8"/>
		<circle class="st1" cx="275" cy="11.4" r="1"/>
		<circle class="st1" cx="269" cy="11.4" r="0.8"/>
		<circle class="st1" cx="272.3" cy="16.8" r="1"/>
		<circle class="st1" cx="278.3" cy="16.8" r="0.8"/>
		<circle class="st1" cx="263" cy="11.4" r="1"/>
		<circle class="st1" cx="257" cy="11.4" r="0.8"/>
		<circle class="st1" cx="260.3" cy="16.8" r="1"/>
		<circle class="st1" cx="266.3" cy="16.8" r="0.8"/>
		<circle class="st1" cx="260.3" cy="4.8" r="1"/>
		<circle class="st1" cx="266.3" cy="4.8" r="0.8"/>
		<circle class="st1" cx="248.3" cy="4.8" r="1"/>
		<circle class="st1" cx="254.3" cy="4.8" r="0.8"/>
		<circle class="st1" cx="251" cy="11.4" r="1"/>
		<circle class="st1" cx="245" cy="11.4" r="0.8"/>
		<circle class="st1" cx="248.3" cy="16.8" r="1"/>
		<circle class="st1" cx="254.3" cy="16.8" r="0.8"/>
		<circle class="st1" cx="287" cy="22.3" r="1"/>
		<circle class="st1" cx="281" cy="22.3" r="0.8"/>
		<circle class="st1" cx="284.3" cy="27.7" r="1"/>
		<circle class="st1" cx="290.3" cy="27.7" r="0.8"/>
		<circle class="st1" cx="275" cy="22.3" r="1"/>
		<circle class="st1" cx="269" cy="22.3" r="0.8"/>
		<circle class="st1" cx="272.3" cy="27.7" r="1"/>
		<circle class="st1" cx="278.3" cy="27.7" r="0.8"/>
		<circle class="st1" cx="275" cy="34.3" r="1"/>
		<circle class="st1" cx="269" cy="34.3" r="0.8"/>
		<circle class="st1" cx="272.3" cy="39.7" r="1"/>
		<circle class="st1" cx="278.3" cy="39.7" r="0.8"/>
		<circle class="st1" cx="287" cy="34.3" r="1"/>
		<circle class="st1" cx="281" cy="34.3" r="0.8"/>
		<circle class="st1" cx="284.3" cy="39.7" r="1"/>
		<circle class="st1" cx="290.3" cy="39.7" r="0.8"/>
		<circle class="st1" cx="287" cy="46.3" r="1"/>
		<circle class="st1" cx="281" cy="46.3" r="0.8"/>
		<circle class="st1" cx="284.3" cy="51.7" r="1"/>
		<circle class="st1" cx="290.3" cy="51.7" r="0.8"/>
		<circle class="st1" cx="275" cy="46.3" r="1"/>
		<circle class="st1" cx="269" cy="46.3" r="0.8"/>
		<circle class="st1" cx="272.3" cy="51.7" r="1"/>
		<circle class="st1" cx="278.3" cy="51.7" r="0.8"/>
		<circle class="st1" cx="263" cy="46.3" r="1"/>
		<circle class="st1" cx="257" cy="46.3" r="0.8"/>
		<circle class="st1" cx="260.3" cy="51.7" r="1"/>
		<circle class="st1" cx="266.3" cy="51.7" r="0.8"/>
		<circle class="st1" cx="263" cy="34.3" r="1"/>
		<circle class="st1" cx="257" cy="34.3" r="0.8"/>
		<circle class="st1" cx="260.3" cy="39.7" r="1"/>
		<circle class="st1" cx="266.3" cy="39.7" r="0.8"/>
		<circle class="st1" cx="263" cy="22.3" r="1"/>
		<circle class="st1" cx="257" cy="22.3" r="0.8"/>
		<circle class="st1" cx="260.3" cy="27.7" r="1"/>
		<circle class="st1" cx="266.3" cy="27.7" r="0.8"/>
		<circle class="st1" cx="251" cy="22.3" r="1"/>
		<circle class="st1" cx="245" cy="22.3" r="0.8"/>
		<circle class="st1" cx="248.3" cy="27.7" r="1"/>
		<circle class="st1" cx="254.3" cy="27.7" r="0.8"/>
		<circle class="st1" cx="251" cy="34.3" r="1"/>
		<circle class="st1" cx="245" cy="34.3" r="0.8"/>
		<circle class="st1" cx="248.3" cy="39.7" r="1"/>
		<circle class="st1" cx="254.3" cy="39.7" r="0.8"/>
		<circle class="st1" cx="251" cy="46.3" r="1"/>
		<circle class="st1" cx="245" cy="46.3" r="0.8"/>
		<circle class="st1" cx="248.3" cy="51.7" r="1"/>
		<circle class="st1" cx="254.3" cy="51.7" r="0.8"/>
		<circle class="st1" cx="224" cy="4.8" r="1"/>
		<circle class="st1" cx="230" cy="4.8" r="0.8"/>
		<circle class="st1" cx="236" cy="4.8" r="1"/>
		<circle class="st1" cx="242" cy="4.8" r="0.8"/>
		<circle class="st1" cx="238.7" cy="11.4" r="1"/>
		<circle class="st1" cx="232.7" cy="11.4" r="0.8"/>
		<circle class="st1" cx="236" cy="16.8" r="1"/>
		<circle class="st1" cx="242" cy="16.8" r="0.8"/>
		<circle class="st1" cx="226.7" cy="11.4" r="1"/>
		<circle class="st1" cx="220.7" cy="11.4" r="0.8"/>
		<circle class="st1" cx="224" cy="16.8" r="1"/>
		<circle class="st1" cx="230" cy="16.8" r="0.8"/>
		<circle class="st1" cx="214.7" cy="11.4" r="1"/>
		<circle class="st1" cx="208.7" cy="11.4" r="0.8"/>
		<circle class="st1" cx="212" cy="16.8" r="1"/>
		<circle class="st1" cx="218" cy="16.8" r="0.8"/>
		<circle class="st1" cx="212" cy="4.8" r="1"/>
		<circle class="st1" cx="218" cy="4.8" r="0.8"/>
		<circle class="st1" cx="200" cy="4.8" r="1"/>
		<circle class="st1" cx="206" cy="4.8" r="0.8"/>
		<circle class="st1" cx="202.7" cy="11.4" r="1"/>
		<circle class="st1" cx="196.7" cy="11.4" r="0.8"/>
		<circle class="st1" cx="200" cy="16.8" r="1"/>
		<circle class="st1" cx="206" cy="16.8" r="0.8"/>
		<circle class="st1" cx="238.7" cy="22.3" r="1"/>
		<circle class="st1" cx="232.7" cy="22.3" r="0.8"/>
		<circle class="st1" cx="236" cy="27.7" r="1"/>
		<circle class="st1" cx="242" cy="27.7" r="0.8"/>
		<circle class="st1" cx="226.7" cy="22.3" r="1"/>
		<circle class="st1" cx="220.7" cy="22.3" r="0.8"/>
		<circle class="st1" cx="224" cy="27.7" r="1"/>
		<circle class="st1" cx="230" cy="27.7" r="0.8"/>
		<circle class="st1" cx="226.7" cy="34.3" r="1"/>
		<circle class="st1" cx="220.7" cy="34.3" r="0.8"/>
		<circle class="st1" cx="224" cy="39.7" r="1"/>
		<circle class="st1" cx="230" cy="39.7" r="0.8"/>
		<circle class="st1" cx="238.7" cy="34.3" r="1"/>
		<circle class="st1" cx="232.7" cy="34.3" r="0.8"/>
		<circle class="st1" cx="236" cy="39.7" r="1"/>
		<circle class="st1" cx="242" cy="39.7" r="0.8"/>
		<circle class="st1" cx="238.7" cy="46.3" r="1"/>
		<circle class="st1" cx="232.7" cy="46.3" r="0.8"/>
		<circle class="st1" cx="236" cy="51.7" r="1"/>
		<circle class="st1" cx="242" cy="51.7" r="0.8"/>
		<circle class="st1" cx="226.7" cy="46.3" r="1"/>
		<circle class="st1" cx="220.7" cy="46.3" r="0.8"/>
		<circle class="st1" cx="224" cy="51.7" r="1"/>
		<circle class="st1" cx="230" cy="51.7" r="0.8"/>
		<circle class="st1" cx="214.7" cy="46.3" r="1"/>
		<circle class="st1" cx="208.7" cy="46.3" r="0.8"/>
		<circle class="st1" cx="212" cy="51.7" r="1"/>
		<circle class="st1" cx="218" cy="51.7" r="0.8"/>
		<circle class="st1" cx="214.7" cy="34.3" r="1"/>
		<circle class="st1" cx="208.7" cy="34.3" r="0.8"/>
		<circle class="st1" cx="212" cy="39.7" r="1"/>
		<circle class="st1" cx="218" cy="39.7" r="0.8"/>
		<circle class="st1" cx="214.7" cy="22.3" r="1"/>
		<circle class="st1" cx="208.7" cy="22.3" r="0.8"/>
		<circle class="st1" cx="212" cy="27.7" r="1"/>
		<circle class="st1" cx="218" cy="27.7" r="0.8"/>
		<circle class="st1" cx="202.7" cy="22.3" r="1"/>
		<circle class="st1" cx="196.7" cy="22.3" r="0.8"/>
		<circle class="st1" cx="200" cy="27.7" r="1"/>
		<circle class="st1" cx="206" cy="27.7" r="0.8"/>
		<circle class="st1" cx="202.7" cy="34.3" r="1"/>
		<circle class="st1" cx="196.7" cy="34.3" r="0.8"/>
		<circle class="st1" cx="200" cy="39.7" r="1"/>
		<circle class="st1" cx="206" cy="39.7" r="0.8"/>
		<circle class="st1" cx="202.7" cy="46.3" r="1"/>
		<circle class="st1" cx="196.7" cy="46.3" r="0.8"/>
		<circle class="st1" cx="200" cy="51.7" r="1"/>
		<circle class="st1" cx="206" cy="51.7" r="0.8"/>
	</g>
</g>
</svg>
