<svg xmlns="http://www.w3.org/2000/svg" x="0px" y="0px"
	 viewBox="0 0 70 90" style="enable-background:new 0 0 70 90;" width="70px">
<style type="text/css">
	.st0{fill:#F3F6F9;}
</style>
<g>
	<g>
		<g>
			<path class="st0" d="M35.1,8.9c-2.6-4.4-6.6-6.3-11.7-4.7c-5.8,1.8-8.6,7.8-9.7,13.3c-1.4,6.5-2.1,14.7,1.1,20.8
				c3.2,6,9.4,8.5,15.8,9.2c6.8,0.7,14,0,19.2-4.9c5.1-4.8,8.1-12.2,8.7-19c0.5-6.9-1.7-14.5-8.1-18.1c-5.8-3.3-14.2-2.5-17.7,3.8
				c-2,3.6,1.3,8.4,5.5,7.1c7-2.1,11.3,2.9,9.9,9.9c-0.7,3.4-2.3,7.3-4.9,9.8c-3,2.9-7.3,3.1-11.2,2.9c-3.6-0.1-7.6-0.8-9.8-3.9
				c-2.3-3.2-2.2-7.6-2-11.3c0.2-3.8,0.5-8.1,2.9-11.3c2-2.7,7.5-5.6,10.4-2.4C34.3,10.8,35.6,9.8,35.1,8.9L35.1,8.9z"/>
		</g>
	</g>
	<g>
		<g>
			<path class="st0" d="M20.8,55.4c0.1-1.4,0.1-3.4,0.7-4.6c0.9-1.9-0.6-4.2-2.8-3.6C8.3,49.6,2.8,63.6,3.7,73.3
				c0.5,4.9,2.5,11.9,7.6,13.9c3.1,1.2,6.8,0.1,9.9-0.4c4-0.7,8.1-1.5,12.1-2.3c8.4-1.7,16.5-4.3,24.9-6c6.5-1.4,9.4-5.1,9.5-12
				c0.1-10-10-27.5-22.1-22.3c-3.1,1.3-2.7,5.4-1,7.5c2.3,2.8,6.2,3.3,8.7,5.9c2.2,2.4,3.7,5.6,3.7,8.9c0,0.8,0,1.6-0.2,2.4
				c-0.2,1.4,0.9,0-0.3,1c-1.7,1.4-5.8,1.8-8,2.3C43.5,73.6,38.3,74.9,33,76c-4.9,1.1-9.9,2.1-14.8,3c-2.8,0.5-4.5,0.4-5.6-2.5
				c-0.7-1.9-1-3.8-1.1-5.8c-0.5-8.6,4.2-13.7,9.6-19.5c-1.2,0-2.3,0-3.5,0c1.3,1.1,2.1,2.8,2.9,4.2C20.6,55.6,20.8,55.5,20.8,55.4
				L20.8,55.4z"/>
		</g>
	</g>
</g>
</svg>
