<svg xmlns="http://www.w3.org/2000/svg" x="0px" y="0px"
	 viewBox="0 0 85 85" style="enable-background:new 0 0 85 85;" xml:space="preserve" width="90px">
<style type="text/css">
	.st0{fill:#F3F6F9;}
</style>
<g>
	<g>
		<g>
			<path class="st0" d="M11,24.3c-3.3,6.9-3.1,16.3-3.2,23.8c-0.1,8.1,0.1,17.2,2.3,25.1c2,6.9,9.1,7.1,15.2,7.6
				c9,0.6,18-0.1,26.9-1.2c4.1-0.5,8.2-1.1,12.3-1.8c3-0.5,6.6-0.6,8.9-2.7c2-1.9,2.3-4.6,2.4-7.2c0.3-4.6,0.3-9.3,0.5-13.9
				c0.3-9.3,0.7-18.5,1-27.8c0.2-6.1,1.8-13.7-5-16.7c-3.9-1.7-8.7-1.9-12.9-2.6c-4.6-0.8-9.3-1.4-14-1.9c-9.7-1-19.2-0.9-28.8,1.6
				c-2.9,0.7-1.6,4.8,1.2,4.4c8.8-1.4,17.8-1.5,26.6-0.6c4.5,0.5,9,1.2,13.4,2c3.2,0.6,10.3,0.7,12.6,2.9c2.2,2,0.6,8.3,0.5,11
				c-0.2,4.6-0.3,9.3-0.4,13.9c-0.3,8.6-0.4,17.2-0.8,25.8c-0.1,2.1,0.4,4.1-1.8,5.3c-1.6,0.8-4.3,0.7-6.1,1
				c-4.5,0.7-9,1.4-13.6,1.9c-8.3,1-16.7,1.4-25,0.7c-3.3-0.3-6.5-0.3-8-3.9c-0.8-1.9-0.9-4.4-1.2-6.4c-0.6-4.2-1-8.4-1.2-12.6
				c-0.2-4.5-0.1-8.9,0.2-13.4c0.3-4.4,1.5-8.9,1.1-13.3C14.4,23.6,11.9,22.5,11,24.3L11,24.3z"/>
		</g>
	</g>
	<g>
		<g>
			<path class="st0" d="M27.7,38.1c-0.3,5.5-2.2,13.1,0.1,18.2c1.6,3.6,6.1,5.9,9.6,3.3c1.7-1.2,1.1-3.7-1-3.9
				c-5.1-0.5-2.9-14.3-2.8-17.7C33.7,34.3,28,34.3,27.7,38.1L27.7,38.1z"/>
		</g>
	</g>
	<g>
		<g>
			<path class="st0" d="M31.5,33.3c1.1,0,2.3-0.5,3.1-1.3c0.8-0.8,1.3-2,1.3-3.1c-0.1-2.3-1.9-4.3-4.3-4.3c-1.1,0-2.3,0.5-3.1,1.3
				c-0.8,0.8-1.3,2-1.3,3.1C27.2,31.3,29,33.3,31.5,33.3L31.5,33.3z"/>
		</g>
	</g>
	<g>
		<g>
			<path class="st0" d="M42.3,39.7c-2,1.5-1.6,2.8-1.7,5.4c-0.2,4-0.4,8-0.6,12c1.6,0,3.2,0,4.8,0c0-4.8,0-18.9,6.6-20.1
				c6.2-1.1,4.5,15.3,5.3,19.3c0.4,1.8,2.7,1.4,3.2,0c2-5.3,1.4-12.7,0.1-18.2c-1-4-3.9-6.9-8.2-6.6C40.8,32.3,39.4,49,40.1,57.1
				c0.3,3,4.9,3.1,4.8,0c-0.2-4-0.4-8-0.5-12c-0.1-2.4,0.3-3.9-1.7-5.4C42.6,39.6,42.4,39.6,42.3,39.7L42.3,39.7z"/>
		</g>
	</g>
</g>
</svg>
